<mxfile host="app.diagrams.net" agent="Mozilla/5.0 (Windows NT 10.0; Win64; x64) AppleWebKit/537.36 (KHTML, like Gecko) Chrome/137.0.0.0 Safari/537.36" version="27.1.6" pages="2">
  <diagram name="Pàgina-1" id="ZFVmFVPgFFAZ3WUCX2Yf">
    <mxGraphModel grid="1" page="1" gridSize="10" guides="1" tooltips="1" connect="1" arrows="1" fold="1" pageScale="1" pageWidth="827" pageHeight="1169" math="0" shadow="0">
      <root>
        <mxCell id="0" />
        <mxCell id="1" parent="0" />
        <mxCell id="rDpsdq-XXFQOWV5XvkEr-1" value="&lt;h1 style=&quot;margin-top: 0px;&quot;&gt;Estats:&lt;/h1&gt;&lt;p&gt;&lt;/p&gt;&lt;ul&gt;&lt;li&gt;Inactiu: que és l&#39;estat inicial, o quan no hi ha cap jugador proper.&lt;/li&gt;&lt;li&gt;Caminant: quan un personatge es troba entre 2 i 10 passos el zombi camina capa el personatge.&lt;/li&gt;&lt;li&gt;Atacant: quan un personatge es troba a 2 o menys passos li ataquem.&lt;/li&gt;&lt;li&gt;Lesionat: quan el zombi ha rebut dany i segueix viu.&lt;/li&gt;&lt;li&gt;Destruït: quan el zombi ha mort.&lt;/li&gt;&lt;/ul&gt;&lt;div&gt;&lt;h1 style=&quot;margin-top: 0px;&quot;&gt;Transicions:&lt;/h1&gt;&lt;/div&gt;&lt;div&gt;En aquest diagrama d&#39;estats cada transició no serà un mètode independent donat que cal seguir els cicles del joc i el diagrama UML de la classe zombi.&amp;nbsp;&lt;span style=&quot;background-color: transparent;&quot;&gt;El cicle del joc és:&lt;/span&gt;&lt;/div&gt;&lt;div&gt;&lt;ul&gt;&lt;li&gt;acció dels jugadors si n&#39;hi ha (s&#39;invocaria el mètode rebreDany de la classe zombi),&amp;nbsp;&lt;/li&gt;&lt;li&gt;actualitzar zombi (mètode update de la classe zombi),&lt;/li&gt;&lt;li&gt;mostrar pantalla&lt;/li&gt;&lt;/ul&gt;&lt;/div&gt;&lt;p&gt;&lt;/p&gt;" style="text;html=1;whiteSpace=wrap;overflow=hidden;rounded=0;" vertex="1" parent="1">
          <mxGeometry x="80" y="40" width="660" height="280" as="geometry" />
        </mxCell>
        <mxCell id="rDpsdq-XXFQOWV5XvkEr-2" value="Assets" style="childLayout=tableLayout;recursiveResize=0;strokeColor=#98bf21;fillColor=#A7C942;shadow=1;" vertex="1" parent="1">
          <mxGeometry x="80" y="335" width="680" height="292" as="geometry" />
        </mxCell>
        <mxCell id="rDpsdq-XXFQOWV5XvkEr-3" style="shape=tableRow;horizontal=0;startSize=0;swimlaneHead=0;swimlaneBody=0;top=0;left=0;bottom=0;right=0;dropTarget=0;collapsible=0;recursiveResize=0;expand=0;fontStyle=0;strokeColor=inherit;fillColor=#ffffff;" vertex="1" parent="rDpsdq-XXFQOWV5XvkEr-2">
          <mxGeometry width="680" height="43" as="geometry" />
        </mxCell>
        <mxCell id="rDpsdq-XXFQOWV5XvkEr-4" value="Transició" style="connectable=0;recursiveResize=0;strokeColor=inherit;fillColor=#A7C942;align=center;fontStyle=1;fontColor=#FFFFFF;html=1;" vertex="1" parent="rDpsdq-XXFQOWV5XvkEr-3">
          <mxGeometry width="170" height="43" as="geometry">
            <mxRectangle width="170" height="43" as="alternateBounds" />
          </mxGeometry>
        </mxCell>
        <mxCell id="rDpsdq-XXFQOWV5XvkEr-5" value="Estat inicial" style="connectable=0;recursiveResize=0;strokeColor=inherit;fillColor=#A7C942;align=center;fontStyle=1;fontColor=#FFFFFF;html=1;" vertex="1" parent="rDpsdq-XXFQOWV5XvkEr-3">
          <mxGeometry x="170" width="170" height="43" as="geometry">
            <mxRectangle width="170" height="43" as="alternateBounds" />
          </mxGeometry>
        </mxCell>
        <mxCell id="rDpsdq-XXFQOWV5XvkEr-6" value="Estat Final" style="connectable=0;recursiveResize=0;strokeColor=inherit;fillColor=#A7C942;align=center;fontStyle=1;fontColor=#FFFFFF;html=1;" vertex="1" parent="rDpsdq-XXFQOWV5XvkEr-3">
          <mxGeometry x="340" width="170" height="43" as="geometry">
            <mxRectangle width="170" height="43" as="alternateBounds" />
          </mxGeometry>
        </mxCell>
        <mxCell id="rDpsdq-XXFQOWV5XvkEr-23" value="Tipus" style="connectable=0;recursiveResize=0;strokeColor=inherit;fillColor=#A7C942;align=center;fontStyle=1;fontColor=#FFFFFF;html=1;" vertex="1" parent="rDpsdq-XXFQOWV5XvkEr-3">
          <mxGeometry x="510" width="170" height="43" as="geometry">
            <mxRectangle width="170" height="43" as="alternateBounds" />
          </mxGeometry>
        </mxCell>
        <mxCell id="rDpsdq-XXFQOWV5XvkEr-7" value="" style="shape=tableRow;horizontal=0;startSize=0;swimlaneHead=0;swimlaneBody=0;top=0;left=0;bottom=0;right=0;dropTarget=0;collapsible=0;recursiveResize=0;expand=0;fontStyle=0;strokeColor=inherit;fillColor=#ffffff;" vertex="1" parent="rDpsdq-XXFQOWV5XvkEr-2">
          <mxGeometry y="43" width="680" height="42" as="geometry" />
        </mxCell>
        <mxCell id="rDpsdq-XXFQOWV5XvkEr-8" value="Es genera un zombi" style="connectable=0;recursiveResize=0;strokeColor=inherit;fillColor=inherit;align=center;whiteSpace=wrap;html=1;" vertex="1" parent="rDpsdq-XXFQOWV5XvkEr-7">
          <mxGeometry width="170" height="42" as="geometry">
            <mxRectangle width="170" height="42" as="alternateBounds" />
          </mxGeometry>
        </mxCell>
        <mxCell id="rDpsdq-XXFQOWV5XvkEr-9" value="" style="connectable=0;recursiveResize=0;strokeColor=inherit;fillColor=inherit;align=center;whiteSpace=wrap;html=1;" vertex="1" parent="rDpsdq-XXFQOWV5XvkEr-7">
          <mxGeometry x="170" width="170" height="42" as="geometry">
            <mxRectangle width="170" height="42" as="alternateBounds" />
          </mxGeometry>
        </mxCell>
        <mxCell id="rDpsdq-XXFQOWV5XvkEr-10" value="Inactiu" style="connectable=0;recursiveResize=0;strokeColor=inherit;fillColor=inherit;align=center;whiteSpace=wrap;html=1;" vertex="1" parent="rDpsdq-XXFQOWV5XvkEr-7">
          <mxGeometry x="340" width="170" height="42" as="geometry">
            <mxRectangle width="170" height="42" as="alternateBounds" />
          </mxGeometry>
        </mxCell>
        <mxCell id="rDpsdq-XXFQOWV5XvkEr-24" value="Intern (constructor)" style="connectable=0;recursiveResize=0;strokeColor=inherit;fillColor=inherit;align=center;whiteSpace=wrap;html=1;" vertex="1" parent="rDpsdq-XXFQOWV5XvkEr-7">
          <mxGeometry x="510" width="170" height="42" as="geometry">
            <mxRectangle width="170" height="42" as="alternateBounds" />
          </mxGeometry>
        </mxCell>
        <mxCell id="rDpsdq-XXFQOWV5XvkEr-11" value="" style="shape=tableRow;horizontal=0;startSize=0;swimlaneHead=0;swimlaneBody=0;top=0;left=0;bottom=0;right=0;dropTarget=0;collapsible=0;recursiveResize=0;expand=0;fontStyle=1;strokeColor=inherit;fillColor=#EAF2D3;" vertex="1" parent="rDpsdq-XXFQOWV5XvkEr-2">
          <mxGeometry y="85" width="680" height="41" as="geometry" />
        </mxCell>
        <mxCell id="rDpsdq-XXFQOWV5XvkEr-12" value="Personatge entre 2 i 10 passos" style="connectable=0;recursiveResize=0;strokeColor=inherit;fillColor=inherit;whiteSpace=wrap;html=1;" vertex="1" parent="rDpsdq-XXFQOWV5XvkEr-11">
          <mxGeometry width="170" height="41" as="geometry">
            <mxRectangle width="170" height="41" as="alternateBounds" />
          </mxGeometry>
        </mxCell>
        <mxCell id="rDpsdq-XXFQOWV5XvkEr-13" value="Inactiu / Caminant / Atacant" style="connectable=0;recursiveResize=0;strokeColor=inherit;fillColor=inherit;whiteSpace=wrap;html=1;" vertex="1" parent="rDpsdq-XXFQOWV5XvkEr-11">
          <mxGeometry x="170" width="170" height="41" as="geometry">
            <mxRectangle width="170" height="41" as="alternateBounds" />
          </mxGeometry>
        </mxCell>
        <mxCell id="rDpsdq-XXFQOWV5XvkEr-14" value="Caminant" style="connectable=0;recursiveResize=0;strokeColor=inherit;fillColor=inherit;whiteSpace=wrap;html=1;" vertex="1" parent="rDpsdq-XXFQOWV5XvkEr-11">
          <mxGeometry x="340" width="170" height="41" as="geometry">
            <mxRectangle width="170" height="41" as="alternateBounds" />
          </mxGeometry>
        </mxCell>
        <mxCell id="rDpsdq-XXFQOWV5XvkEr-25" value="Intern (mètode update)" style="connectable=0;recursiveResize=0;strokeColor=inherit;fillColor=inherit;whiteSpace=wrap;html=1;" vertex="1" parent="rDpsdq-XXFQOWV5XvkEr-11">
          <mxGeometry x="510" width="170" height="41" as="geometry">
            <mxRectangle width="170" height="41" as="alternateBounds" />
          </mxGeometry>
        </mxCell>
        <mxCell id="rDpsdq-XXFQOWV5XvkEr-15" value="" style="shape=tableRow;horizontal=0;startSize=0;swimlaneHead=0;swimlaneBody=0;top=0;left=0;bottom=0;right=0;dropTarget=0;collapsible=0;recursiveResize=0;expand=0;fontStyle=0;strokeColor=inherit;fillColor=#ffffff;" vertex="1" parent="rDpsdq-XXFQOWV5XvkEr-2">
          <mxGeometry y="126" width="680" height="43" as="geometry" />
        </mxCell>
        <mxCell id="rDpsdq-XXFQOWV5XvkEr-16" value="Personatge a menys de 2 passos" style="connectable=0;recursiveResize=0;strokeColor=inherit;fillColor=inherit;fontStyle=0;align=center;whiteSpace=wrap;html=1;" vertex="1" parent="rDpsdq-XXFQOWV5XvkEr-15">
          <mxGeometry width="170" height="43" as="geometry">
            <mxRectangle width="170" height="43" as="alternateBounds" />
          </mxGeometry>
        </mxCell>
        <mxCell id="rDpsdq-XXFQOWV5XvkEr-17" value="Inactiu / Caminant / Atacant" style="connectable=0;recursiveResize=0;strokeColor=inherit;fillColor=inherit;fontStyle=0;align=center;whiteSpace=wrap;html=1;" vertex="1" parent="rDpsdq-XXFQOWV5XvkEr-15">
          <mxGeometry x="170" width="170" height="43" as="geometry">
            <mxRectangle width="170" height="43" as="alternateBounds" />
          </mxGeometry>
        </mxCell>
        <mxCell id="rDpsdq-XXFQOWV5XvkEr-18" value="Atacant" style="connectable=0;recursiveResize=0;strokeColor=inherit;fillColor=inherit;fontStyle=0;align=center;whiteSpace=wrap;html=1;" vertex="1" parent="rDpsdq-XXFQOWV5XvkEr-15">
          <mxGeometry x="340" width="170" height="43" as="geometry">
            <mxRectangle width="170" height="43" as="alternateBounds" />
          </mxGeometry>
        </mxCell>
        <mxCell id="rDpsdq-XXFQOWV5XvkEr-26" value="Intern (mètode update)" style="connectable=0;recursiveResize=0;strokeColor=inherit;fillColor=inherit;fontStyle=0;align=center;whiteSpace=wrap;html=1;" vertex="1" parent="rDpsdq-XXFQOWV5XvkEr-15">
          <mxGeometry x="510" width="170" height="43" as="geometry">
            <mxRectangle width="170" height="43" as="alternateBounds" />
          </mxGeometry>
        </mxCell>
        <mxCell id="rDpsdq-XXFQOWV5XvkEr-19" value="" style="shape=tableRow;horizontal=0;startSize=0;swimlaneHead=0;swimlaneBody=0;top=0;left=0;bottom=0;right=0;dropTarget=0;collapsible=0;recursiveResize=0;expand=0;fontStyle=1;strokeColor=inherit;fillColor=#EAF2D3;" vertex="1" parent="rDpsdq-XXFQOWV5XvkEr-2">
          <mxGeometry y="169" width="680" height="41" as="geometry" />
        </mxCell>
        <mxCell id="rDpsdq-XXFQOWV5XvkEr-20" value="Zombi rep dany" style="connectable=0;recursiveResize=0;strokeColor=inherit;fillColor=inherit;whiteSpace=wrap;html=1;" vertex="1" parent="rDpsdq-XXFQOWV5XvkEr-19">
          <mxGeometry width="170" height="41" as="geometry">
            <mxRectangle width="170" height="41" as="alternateBounds" />
          </mxGeometry>
        </mxCell>
        <mxCell id="rDpsdq-XXFQOWV5XvkEr-21" value="Qualsevol" style="connectable=0;recursiveResize=0;strokeColor=inherit;fillColor=inherit;whiteSpace=wrap;html=1;" vertex="1" parent="rDpsdq-XXFQOWV5XvkEr-19">
          <mxGeometry x="170" width="170" height="41" as="geometry">
            <mxRectangle width="170" height="41" as="alternateBounds" />
          </mxGeometry>
        </mxCell>
        <mxCell id="rDpsdq-XXFQOWV5XvkEr-22" value="Lesionat" style="connectable=0;recursiveResize=0;strokeColor=inherit;fillColor=inherit;whiteSpace=wrap;html=1;" vertex="1" parent="rDpsdq-XXFQOWV5XvkEr-19">
          <mxGeometry x="340" width="170" height="41" as="geometry">
            <mxRectangle width="170" height="41" as="alternateBounds" />
          </mxGeometry>
        </mxCell>
        <mxCell id="rDpsdq-XXFQOWV5XvkEr-27" value="Extern (mètode&amp;nbsp;rebreDany)" style="connectable=0;recursiveResize=0;strokeColor=inherit;fillColor=inherit;whiteSpace=wrap;html=1;" vertex="1" parent="rDpsdq-XXFQOWV5XvkEr-19">
          <mxGeometry x="510" width="170" height="41" as="geometry">
            <mxRectangle width="170" height="41" as="alternateBounds" />
          </mxGeometry>
        </mxCell>
        <mxCell id="rDpsdq-XXFQOWV5XvkEr-43" style="shape=tableRow;horizontal=0;startSize=0;swimlaneHead=0;swimlaneBody=0;top=0;left=0;bottom=0;right=0;dropTarget=0;collapsible=0;recursiveResize=0;expand=0;fontStyle=1;strokeColor=inherit;fillColor=#EAF2D3;" vertex="1" parent="rDpsdq-XXFQOWV5XvkEr-2">
          <mxGeometry y="210" width="680" height="41" as="geometry" />
        </mxCell>
        <mxCell id="rDpsdq-XXFQOWV5XvkEr-44" value="Zombi es cura" style="connectable=0;recursiveResize=0;whiteSpace=wrap;html=1;strokeColor=inherit;align=center;verticalAlign=middle;fontFamily=Helvetica;fontSize=12;fontColor=default;whiteSpace=wrap;labelBackgroundColor=none;labelBorderColor=none;" vertex="1" parent="rDpsdq-XXFQOWV5XvkEr-43">
          <mxGeometry width="170" height="41" as="geometry">
            <mxRectangle width="170" height="41" as="alternateBounds" />
          </mxGeometry>
        </mxCell>
        <mxCell id="rDpsdq-XXFQOWV5XvkEr-45" value="Lesionat" style="connectable=0;recursiveResize=0;strokeColor=inherit;whiteSpace=wrap;html=1;align=center;verticalAlign=middle;fontFamily=Helvetica;fontSize=12;fontColor=default;" vertex="1" parent="rDpsdq-XXFQOWV5XvkEr-43">
          <mxGeometry x="170" width="170" height="41" as="geometry">
            <mxRectangle width="170" height="41" as="alternateBounds" />
          </mxGeometry>
        </mxCell>
        <mxCell id="rDpsdq-XXFQOWV5XvkEr-46" value="Inactiu" style="connectable=0;recursiveResize=0;strokeColor=inherit;whiteSpace=wrap;html=1;" vertex="1" parent="rDpsdq-XXFQOWV5XvkEr-43">
          <mxGeometry x="340" width="170" height="41" as="geometry">
            <mxRectangle width="170" height="41" as="alternateBounds" />
          </mxGeometry>
        </mxCell>
        <mxCell id="rDpsdq-XXFQOWV5XvkEr-47" value="De temps [3 cicles] (mètode update)" style="connectable=0;recursiveResize=0;strokeColor=inherit;whiteSpace=wrap;html=1;" vertex="1" parent="rDpsdq-XXFQOWV5XvkEr-43">
          <mxGeometry x="510" width="170" height="41" as="geometry">
            <mxRectangle width="170" height="41" as="alternateBounds" />
          </mxGeometry>
        </mxCell>
        <mxCell id="rDpsdq-XXFQOWV5XvkEr-38" style="shape=tableRow;horizontal=0;startSize=0;swimlaneHead=0;swimlaneBody=0;top=0;left=0;bottom=0;right=0;dropTarget=0;collapsible=0;recursiveResize=0;expand=0;fontStyle=1;strokeColor=inherit;fillColor=#EAF2D3;" vertex="1" parent="rDpsdq-XXFQOWV5XvkEr-2">
          <mxGeometry y="251" width="680" height="41" as="geometry" />
        </mxCell>
        <mxCell id="rDpsdq-XXFQOWV5XvkEr-39" value="Zombi rep atac mortal" style="connectable=0;recursiveResize=0;strokeColor=inherit;fillColor=inherit;whiteSpace=wrap;html=1;" vertex="1" parent="rDpsdq-XXFQOWV5XvkEr-38">
          <mxGeometry width="170" height="41" as="geometry">
            <mxRectangle width="170" height="41" as="alternateBounds" />
          </mxGeometry>
        </mxCell>
        <mxCell id="rDpsdq-XXFQOWV5XvkEr-40" value="Qualsevol" style="connectable=0;recursiveResize=0;strokeColor=inherit;fillColor=inherit;whiteSpace=wrap;html=1;" vertex="1" parent="rDpsdq-XXFQOWV5XvkEr-38">
          <mxGeometry x="170" width="170" height="41" as="geometry">
            <mxRectangle width="170" height="41" as="alternateBounds" />
          </mxGeometry>
        </mxCell>
        <mxCell id="rDpsdq-XXFQOWV5XvkEr-41" value="Destruït" style="connectable=0;recursiveResize=0;strokeColor=inherit;fillColor=inherit;whiteSpace=wrap;html=1;" vertex="1" parent="rDpsdq-XXFQOWV5XvkEr-38">
          <mxGeometry x="340" width="170" height="41" as="geometry">
            <mxRectangle width="170" height="41" as="alternateBounds" />
          </mxGeometry>
        </mxCell>
        <mxCell id="rDpsdq-XXFQOWV5XvkEr-42" value="Extern (mètode&amp;nbsp;rebreDany)" style="connectable=0;recursiveResize=0;strokeColor=inherit;fillColor=inherit;whiteSpace=wrap;html=1;" vertex="1" parent="rDpsdq-XXFQOWV5XvkEr-38">
          <mxGeometry x="510" width="170" height="41" as="geometry">
            <mxRectangle width="170" height="41" as="alternateBounds" />
          </mxGeometry>
        </mxCell>
        <mxCell id="G_sKlp9lNrh3cBZVOQnK-6" value="update" style="rounded=0;orthogonalLoop=1;jettySize=auto;html=1;exitX=1;exitY=0.25;exitDx=0;exitDy=0;entryX=0;entryY=0;entryDx=0;entryDy=0;" edge="1" parent="1" source="G_sKlp9lNrh3cBZVOQnK-1" target="G_sKlp9lNrh3cBZVOQnK-4">
          <mxGeometry relative="1" as="geometry">
            <mxPoint x="439" y="695" as="targetPoint" />
            <mxPoint as="offset" />
          </mxGeometry>
        </mxCell>
        <mxCell id="G_sKlp9lNrh3cBZVOQnK-17" style="edgeStyle=orthogonalEdgeStyle;rounded=0;orthogonalLoop=1;jettySize=auto;html=1;exitX=0.75;exitY=1;exitDx=0;exitDy=0;entryX=0.5;entryY=0;entryDx=0;entryDy=0;" edge="1" parent="1" source="G_sKlp9lNrh3cBZVOQnK-1" target="G_sKlp9lNrh3cBZVOQnK-16">
          <mxGeometry relative="1" as="geometry">
            <Array as="points">
              <mxPoint x="284" y="865" />
              <mxPoint x="450" y="865" />
              <mxPoint x="450" y="970" />
            </Array>
          </mxGeometry>
        </mxCell>
        <mxCell id="G_sKlp9lNrh3cBZVOQnK-1" value="Inactiu" style="html=1;whiteSpace=wrap;" vertex="1" parent="1">
          <mxGeometry x="209" y="720" width="100" height="40" as="geometry" />
        </mxCell>
        <mxCell id="G_sKlp9lNrh3cBZVOQnK-8" value="update" style="edgeStyle=orthogonalEdgeStyle;rounded=0;orthogonalLoop=1;jettySize=auto;html=1;exitX=0.75;exitY=0;exitDx=0;exitDy=0;entryX=1;entryY=1;entryDx=0;entryDy=0;" edge="1" parent="1" source="G_sKlp9lNrh3cBZVOQnK-2" target="G_sKlp9lNrh3cBZVOQnK-4">
          <mxGeometry x="-0.5" relative="1" as="geometry">
            <mxPoint as="offset" />
          </mxGeometry>
        </mxCell>
        <mxCell id="G_sKlp9lNrh3cBZVOQnK-23" value="" style="edgeStyle=orthogonalEdgeStyle;rounded=0;orthogonalLoop=1;jettySize=auto;html=1;exitX=0.5;exitY=1;exitDx=0;exitDy=0;entryX=0.5;entryY=0;entryDx=0;entryDy=0;" edge="1" parent="1" source="G_sKlp9lNrh3cBZVOQnK-2" target="G_sKlp9lNrh3cBZVOQnK-16">
          <mxGeometry x="0.2" relative="1" as="geometry">
            <mxPoint as="offset" />
          </mxGeometry>
        </mxCell>
        <mxCell id="G_sKlp9lNrh3cBZVOQnK-2" value="Caminant" style="html=1;whiteSpace=wrap;" vertex="1" parent="1">
          <mxGeometry x="414" y="805" width="100" height="40" as="geometry" />
        </mxCell>
        <mxCell id="G_sKlp9lNrh3cBZVOQnK-11" value="update" style="edgeStyle=orthogonalEdgeStyle;rounded=0;orthogonalLoop=1;jettySize=auto;html=1;exitX=0;exitY=0.75;exitDx=0;exitDy=0;entryX=1;entryY=1;entryDx=0;entryDy=0;" edge="1" parent="1" source="G_sKlp9lNrh3cBZVOQnK-3" target="G_sKlp9lNrh3cBZVOQnK-4">
          <mxGeometry relative="1" as="geometry" />
        </mxCell>
        <mxCell id="G_sKlp9lNrh3cBZVOQnK-19" style="edgeStyle=orthogonalEdgeStyle;rounded=0;orthogonalLoop=1;jettySize=auto;html=1;exitX=0.25;exitY=1;exitDx=0;exitDy=0;entryX=0.5;entryY=0;entryDx=0;entryDy=0;" edge="1" parent="1" source="G_sKlp9lNrh3cBZVOQnK-3" target="G_sKlp9lNrh3cBZVOQnK-16">
          <mxGeometry relative="1" as="geometry">
            <Array as="points">
              <mxPoint x="675" y="865" />
              <mxPoint x="480" y="865" />
              <mxPoint x="480" y="970" />
            </Array>
          </mxGeometry>
        </mxCell>
        <mxCell id="G_sKlp9lNrh3cBZVOQnK-3" value="Atacant" style="html=1;whiteSpace=wrap;" vertex="1" parent="1">
          <mxGeometry x="650" y="720" width="100" height="40" as="geometry" />
        </mxCell>
        <mxCell id="G_sKlp9lNrh3cBZVOQnK-7" value="[dist &amp;gt;10]" style="rounded=0;orthogonalLoop=1;jettySize=auto;html=1;exitX=0;exitY=1;exitDx=0;exitDy=0;entryX=1;entryY=0.75;entryDx=0;entryDy=0;" edge="1" parent="1" source="G_sKlp9lNrh3cBZVOQnK-4" target="G_sKlp9lNrh3cBZVOQnK-1">
          <mxGeometry relative="1" as="geometry">
            <mxPoint as="offset" />
          </mxGeometry>
        </mxCell>
        <mxCell id="G_sKlp9lNrh3cBZVOQnK-9" value="&lt;span style=&quot;color: rgb(0, 0, 0); font-family: Helvetica; font-size: 11px; font-style: normal; font-variant-ligatures: normal; font-variant-caps: normal; font-weight: 400; letter-spacing: normal; orphans: 2; text-align: center; text-indent: 0px; text-transform: none; widows: 2; word-spacing: 0px; -webkit-text-stroke-width: 0px; white-space: nowrap; background-color: rgb(255, 255, 255); text-decoration-thickness: initial; text-decoration-style: initial; text-decoration-color: initial; float: none; display: inline !important;&quot;&gt;[2 &amp;lt; dist &amp;lt;10]&lt;/span&gt;" style="edgeStyle=orthogonalEdgeStyle;rounded=0;orthogonalLoop=1;jettySize=auto;html=1;exitX=0;exitY=1;exitDx=0;exitDy=0;entryX=0.25;entryY=0;entryDx=0;entryDy=0;" edge="1" parent="1" source="G_sKlp9lNrh3cBZVOQnK-4" target="G_sKlp9lNrh3cBZVOQnK-2">
          <mxGeometry x="0.7143" y="-5" relative="1" as="geometry">
            <mxPoint as="offset" />
          </mxGeometry>
        </mxCell>
        <mxCell id="G_sKlp9lNrh3cBZVOQnK-10" value="&lt;span style=&quot;color: rgb(0, 0, 0); font-family: Helvetica; font-size: 11px; font-style: normal; font-variant-ligatures: normal; font-variant-caps: normal; font-weight: 400; letter-spacing: normal; orphans: 2; text-align: center; text-indent: 0px; text-transform: none; widows: 2; word-spacing: 0px; -webkit-text-stroke-width: 0px; white-space: nowrap; background-color: rgb(255, 255, 255); text-decoration-thickness: initial; text-decoration-style: initial; text-decoration-color: initial; float: none; display: inline !important;&quot;&gt;[dist &amp;lt; 2]&lt;/span&gt;" style="edgeStyle=orthogonalEdgeStyle;rounded=0;orthogonalLoop=1;jettySize=auto;html=1;exitX=1;exitY=0;exitDx=0;exitDy=0;entryX=0;entryY=0.25;entryDx=0;entryDy=0;" edge="1" parent="1" source="G_sKlp9lNrh3cBZVOQnK-4" target="G_sKlp9lNrh3cBZVOQnK-3">
          <mxGeometry relative="1" as="geometry" />
        </mxCell>
        <mxCell id="G_sKlp9lNrh3cBZVOQnK-4" value="?" style="rhombus;whiteSpace=wrap;html=1;" vertex="1" parent="1">
          <mxGeometry x="444" y="720" width="40" height="40" as="geometry" />
        </mxCell>
        <mxCell id="G_sKlp9lNrh3cBZVOQnK-12" value="&lt;h1 style=&quot;margin-top: 0px;&quot;&gt;Diagrama d&#39;Estats:&lt;/h1&gt;" style="text;html=1;align=left;verticalAlign=middle;whiteSpace=wrap;rounded=0;" vertex="1" parent="1">
          <mxGeometry x="80" y="660" width="320" height="40" as="geometry" />
        </mxCell>
        <mxCell id="G_sKlp9lNrh3cBZVOQnK-15" value="update [cicles &amp;gt; 3]" style="edgeStyle=orthogonalEdgeStyle;rounded=0;orthogonalLoop=1;jettySize=auto;html=1;exitX=0.5;exitY=0;exitDx=0;exitDy=0;entryX=0.5;entryY=1;entryDx=0;entryDy=0;" edge="1" parent="1" source="G_sKlp9lNrh3cBZVOQnK-13" target="G_sKlp9lNrh3cBZVOQnK-1">
          <mxGeometry x="0.037" y="50" relative="1" as="geometry">
            <mxPoint as="offset" />
          </mxGeometry>
        </mxCell>
        <mxCell id="G_sKlp9lNrh3cBZVOQnK-29" style="edgeStyle=orthogonalEdgeStyle;rounded=0;orthogonalLoop=1;jettySize=auto;html=1;exitX=0.75;exitY=0;exitDx=0;exitDy=0;entryX=0;entryY=0;entryDx=0;entryDy=0;" edge="1" parent="1" source="G_sKlp9lNrh3cBZVOQnK-13" target="G_sKlp9lNrh3cBZVOQnK-16">
          <mxGeometry relative="1" as="geometry">
            <Array as="points">
              <mxPoint x="284" y="940" />
              <mxPoint x="440" y="940" />
              <mxPoint x="440" y="980" />
            </Array>
          </mxGeometry>
        </mxCell>
        <mxCell id="G_sKlp9lNrh3cBZVOQnK-13" value="Lesionat" style="html=1;whiteSpace=wrap;" vertex="1" parent="1">
          <mxGeometry x="209" y="970" width="100" height="40" as="geometry" />
        </mxCell>
        <mxCell id="G_sKlp9lNrh3cBZVOQnK-14" value="Destruït" style="html=1;whiteSpace=wrap;" vertex="1" parent="1">
          <mxGeometry x="650" y="970" width="100" height="40" as="geometry" />
        </mxCell>
        <mxCell id="G_sKlp9lNrh3cBZVOQnK-20" value="[vida &amp;lt;=0]" style="edgeStyle=orthogonalEdgeStyle;rounded=0;orthogonalLoop=1;jettySize=auto;html=1;exitX=1;exitY=0.5;exitDx=0;exitDy=0;entryX=0;entryY=0.5;entryDx=0;entryDy=0;" edge="1" parent="1" source="G_sKlp9lNrh3cBZVOQnK-16" target="G_sKlp9lNrh3cBZVOQnK-14">
          <mxGeometry relative="1" as="geometry" />
        </mxCell>
        <mxCell id="G_sKlp9lNrh3cBZVOQnK-21" value="[vida &amp;gt;0]" style="edgeStyle=orthogonalEdgeStyle;rounded=0;orthogonalLoop=1;jettySize=auto;html=1;exitX=0;exitY=0.5;exitDx=0;exitDy=0;entryX=1;entryY=0.5;entryDx=0;entryDy=0;" edge="1" parent="1" source="G_sKlp9lNrh3cBZVOQnK-16" target="G_sKlp9lNrh3cBZVOQnK-13">
          <mxGeometry relative="1" as="geometry" />
        </mxCell>
        <mxCell id="G_sKlp9lNrh3cBZVOQnK-16" value="?" style="rhombus;whiteSpace=wrap;html=1;" vertex="1" parent="1">
          <mxGeometry x="444" y="970" width="40" height="40" as="geometry" />
        </mxCell>
        <mxCell id="G_sKlp9lNrh3cBZVOQnK-24" value="update [cicles &amp;lt; 3]" style="edgeStyle=orthogonalEdgeStyle;rounded=0;orthogonalLoop=1;jettySize=auto;html=1;exitX=0.5;exitY=1;exitDx=0;exitDy=0;entryX=0.25;entryY=1;entryDx=0;entryDy=0;" edge="1" parent="1" source="G_sKlp9lNrh3cBZVOQnK-13" target="G_sKlp9lNrh3cBZVOQnK-13">
          <mxGeometry x="-0.0476" y="10" relative="1" as="geometry">
            <Array as="points">
              <mxPoint x="259" y="1050" />
              <mxPoint x="234" y="1050" />
            </Array>
            <mxPoint as="offset" />
          </mxGeometry>
        </mxCell>
        <mxCell id="G_sKlp9lNrh3cBZVOQnK-25" value="" style="ellipse;html=1;shape=startState;fillColor=#000000;strokeColor=default;gradientColor=none;" vertex="1" parent="1">
          <mxGeometry x="100" y="725" width="30" height="30" as="geometry" />
        </mxCell>
        <mxCell id="G_sKlp9lNrh3cBZVOQnK-26" value="" style="edgeStyle=orthogonalEdgeStyle;html=1;verticalAlign=bottom;endArrow=open;endSize=8;strokeColor=default;rounded=0;entryX=0;entryY=0.5;entryDx=0;entryDy=0;" edge="1" parent="1" source="G_sKlp9lNrh3cBZVOQnK-25" target="G_sKlp9lNrh3cBZVOQnK-1">
          <mxGeometry relative="1" as="geometry">
            <mxPoint x="95" y="810" as="targetPoint" />
          </mxGeometry>
        </mxCell>
        <mxCell id="G_sKlp9lNrh3cBZVOQnK-27" value="&#xa;&lt;span style=&quot;color: rgb(0, 0, 0); font-family: Helvetica; font-size: 11px; font-style: normal; font-variant-ligatures: normal; font-variant-caps: normal; font-weight: 400; letter-spacing: normal; orphans: 2; text-align: center; text-indent: 0px; text-transform: none; widows: 2; word-spacing: 0px; -webkit-text-stroke-width: 0px; white-space: nowrap; background-color: rgb(255, 255, 255); text-decoration-thickness: initial; text-decoration-style: initial; text-decoration-color: initial; display: inline !important; float: none;&quot;&gt;rebreDany&lt;/span&gt;&#xa;&#xa;" style="text;html=1;align=center;verticalAlign=middle;whiteSpace=wrap;rounded=0;fillColor=default;" vertex="1" parent="1">
          <mxGeometry x="424" y="956" width="74" height="2" as="geometry" />
        </mxCell>
      </root>
    </mxGraphModel>
  </diagram>
  <diagram id="DBrmfOBlmsm1k2rYxYRn" name="Pàgina-2">
    <mxGraphModel grid="1" page="1" gridSize="10" guides="1" tooltips="1" connect="1" arrows="1" fold="1" pageScale="1" pageWidth="1169" pageHeight="827" math="0" shadow="0">
      <root>
        <mxCell id="0" />
        <mxCell id="1" parent="0" />
        <mxCell id="Yhj1wLFjmlfYXxHoX_J6-3" value="" style="shape=image;verticalLabelPosition=bottom;labelBackgroundColor=default;verticalAlign=top;aspect=fixed;imageAspect=0;image=data:image/png,iVBORw0KGgoAAAANSUhEUgAABpMAAANlCAIAAAAfEZaYAAAgAElEQVR4AezdYZrbthEA0JyrB8p5cppcJodxv13a4zEAQpBEUgT58qMFhwNg8KDliqid/vXDPwQIECBAgAABAgQIECBAgAABAgQInE/gr/OVpCICBAgQIECAAAECBAgQIECAAAECBH44ufMhIECAAAECBAgQIECAAAECBAgQIHBGASd3Z9wVNREgQIAAAQIECBAgQIAAAQIECBBwcuczQIAAAQIECBAgQIAAAQIECBAgQOCMAk7uzrgraiJAgAABAgQIECBAgAABAgQIECDg5M5ngAABAgQIECBAgAABAgQIECBAgMAZBVZP7v7yDwECBAicRuCMv0DURIAAAQIECBAgQIAAAQI7C/RO7nae2vAECBAgMCTw11+rz+qh/pIIECBAgAABAgQIECBAYE6B1bdBL4pzbqiqCRC4oIAH8gU31ZIIECBAgAABAgQIECAwIODkbgBJCgECBD4q4OTuo/wmJ0CAAAECBAgQIECAwMcEnNx9jN7EBAgQGBRwcjcIJY0AAQIECBAgQIAAAQIXE3Byd7ENtRwCBC4o4OTugptqSQQIECBAgAABAgQIEBgQcHI3gCSFAAECHxVwcvdRfpMTIECAAAECBAgQIEDgYwJO7j5Gb2ICBAgMCji5G4SSRoAAAQIECBAgQIAAgYsJOLm72IZaDgECFxRwcnfBTbUkAgQIECBAgAABAgQIDAg4uRtAkkKAAIGPCji5+yi/yQkQIECAAAECBAgQIPAxASd3H6M3MQECBAYFnNwNQkkjQIAAAQIECBAgQIDAxQSc3F1sQy2HAIELCji5u+CmWhIBAgQIECBAgAABAgQGBJzcDSBJIUCAwEcFnNx9lN/kBAgQIECAAAECBAgQ+JjA1U7uvN9+7KNkYgIEdhPwZNuN1sAECBAgQIAAAQIECBA4tcAEJ3d/ff8zqOj9dhBKGgECEwl4sk20WUolQIAAAQIECBAgQIDAhgIbnNwtJ2vFf25Y4o8fP7y1butpNAIE5hLwDJxrv1RLgAABAgQIECBAgACBrQS2Obkrqtn8JXPzAYuCXRIgQODMAp6BZ94dtREgQIAAAQIECBAgQGA/ge1P7ppvmPlP5OXFLPHlT9VFxwhG5nJrbZDoXneMETQIECAwr0A8HuddgsoJECBAgAABAgQIECBA4AWBjU/umq+XRbC+jEg+eotgHMzl5eW7I/Gco02AAIG5BNaeeHOtQrUECBAgQIAAAQIECBAg8KzABid3MWXz3fJhMCeMtF+YLrpoECBAYEaB/GycsX41EyBAgAABAgQIECBAgMBrAk7uXnPTiwABAscJOLk7ztpMBAgQIECAAAECBAgQOJPAZid3+cVyrR0LX0sYiTcH6QfjrgYBAgRmFMjPxhnrVzMBAgQIECBAgAABAgQIvCawzcld8VaZL3M7SszBZ9vNQfrBuKtBgACBGQXyc3LG+tVMgAABAgQIECBAgAABAq8JbHByV79SFpHxy5xZtPPl8v9Z0VxwkdbMESRAgMBcAp5sc+2XagkQIECAAAECBAgQILCVwDYnd8v/J2z+z6K+tVsRX/KXy6IdwUiuX2LzrWgXNbgkQIDApAL1Q2/ShSibAAECBAgQIECAAAECBJ4S2ODk7qn5JBMgQIDAswJO7p4Vk0+AAAECBAgQIECAAIFrCDi5u8Y+WgUBAlcWcHJ35d21NgIECBAgQIAAAQIECKwLOLlbt3GHAAEC5xBwcneOfVAFAQIECBAgQIAAAQIEjhZwcne0uPkIECDwrICTu2fF5BMgQIAAAQIECBAgQOAaAk7urrGPVkGAwJUFnNxdeXetjQABAgQIECBAgAABAusCTu7WbdwhQIDAOQSc3J1jH1RBgAABAgQIECBAgACBowWc3B0tbj4CBAg8K+Dk7lkx+QQIECBAgAABAgQIELiGgJO7a+yjVRAgcGUBJ3dX3l1rI0CAAAECBAgQIECAwLqAk7t1G3cIECBwDgEnd+fYB1UQIECAAAECBAgQIEDgaAEnd0eLm48AAQLPCji5e1ZMPgECBAgQIECAAAECBK4h4OTuGvtoFQQIXFnAyd2Vd9faCBAgQIAAAQIECBAgsC7g5G7dxh0CBAicQ8DJ3Tn2QRUECBAgQIAAAQIECBA4WsDJ3dHi5iNAgMCzAk7unhWTT4AAAQIECBAgQIAAgWsIOLm7xj5aBQECVxZwcnfl3bU2AgQIECBAgAABAgQIrAs4uVu3cYcAAQLnEHByd459UAUBAgQIECBAgAABAgSOFnByd7S4+QgQIPCsgJO7Z8XkEyBAgAABAgQIECBA4BoCTu6usY9WQYDAlQWc3F15d62NAAECBAgQIECAAAEC6wJO7tZt3CFAgMA5BJzcnWMfVEGAAAECBAgQIECAAIGjBZzcHS1uPgIECDwr4OTuWTH5BAgQIECAAAECBAgQuIaAk7tr7KNVECBwZQEnd1feXWsjQIAAAQIECBAgQIDAuoCTu3UbdwgQIHAOASd359gHVRAgQIAAAQIECBAgQOBoASd3R4ubjwABAs8KOLl7Vkw+AQIECBAgQIAAAQIEriHg5O4a+2gVBAhcWcDJ3ZV319oIECBAgAABAgQIECCwLuDkbt3GHQIECJxDwMndOfZBFQQIECBAgAABAgQIEDhawMnd0eLmI0CAwLMCTu6eFZNPgAABAgQIECBAgACBawj0Tu7+8g8BAgQInEPgGr9yrIIAAQIECBAgQIAAAQIEnhLondw9NZBkAgQIENhJwJ+52wnWsAQIECBAgAABAgQIEDi5gJO7k2+Q8ggQIPDDyZ0PAQECBAgQIECAAAECBO4p4OTunvtu1QQIzCTg5G6m3VIrAQIECBAgQIAAAQIEthNwcredpZEIECCwj4CTu31cjUqAAAECBAgQIECAAIGzCzi5O/sOqY8AAQJO7nwGCBAgQIAAAQIECBAgcE8BJ3f33HerJkBgJgEndzPtlloJECBAgAABAgQIECCwnYCTu+0sjUSAAIF9BJzc7eNqVAIECBAgQIAAAQIECJxdwMnd2XdIfQQIEHBy5zNAgAABAgQIECBAgACBewo4ubvnvls1AQIzCTi5m2m31EqAAAECBAgQIECAAIHtBJzcbWdpJAIECOwj4ORuH1ejEiBAgAABAgQIECBA4OwCTu7OvkPqI0CAgJM7nwECBAgQIECAAAECBAjcU8DJ3T333aoJEJhJwMndTLulVgIECBAgQIAAAQIECGwn4ORuO0sjESBAYB8BJ3f7uBqVAAECBAgQIECAAAECZxdwcnf2HVIfAQIEnNz5DBAgQIAAAQIECBAgQOCeArc7uXv/Bfj9EQ74qE1R5AEOpiBwDQE/0dfYR6sgQIAAAQIECBAgQIDAswJO7p4V+zHFK/QURT5NrwOBuwr4ib7rzls3AQIECBAgQIAAAQJ3F7jdyd3dN3xg/c4IBpCkEDhUwE/lodwmI0CAAAECBAgQIECAwGkEnNydZitOU4gzgtNshUII/BTwU+mjQIAAAQIECBAgQIAAgXsKfP7k7q/vf378+PpbqPFPvRlxa+0Ntkgo0oq79fh1Ae+P0JzlYTBKfZhZJ0Tfovglc7lbrzTGyd1zOxI0CBD4iEDzJ/ojlZiUAAECBAgQIECAAAECBI4U+PzJXRwk5WUXr6n9y2WEonvRJe4OxuOQKzpGY3yE6PJUI47MnupVJHeKLG4VlzVmMbJLAgSOF6h/To+vwYwECBAgQIAAAQIECBAgcLzAuyd3ccxUNJ5aSfOlNILRyGMWweIyZxbtZuZ4cO1g66kRipL2uGzW0yy+zqwje1RoTAIExgX8VI5bySRAgAABAgQIECBAgMCVBN49udvEovlSGsFo5Lnq4ODRYd2xeZ6V5yra4yM0M4vRdrpcm7qOj0R2KtKwBAgMCtQ/p4MdpREgQIAAAQIECBAgQIDA1ALXObkrtmHtRbcZbwaLAeOymTwejHF2bTTraZ5R1pl1ZNdSDU6AwEMBP5UPiSQQIECAAAECBAgQIEDgkgJO7r629am34mbyePCYj1GznuZK68w6ckzNZiFAYE3AT+WajDgBAgQIECBAgAABAgSuLXCWk7vivfSpy8EDqWUji5Fjd+t4HXlqhLXuMeNaI/7a71rCSHxt9jr+MFInjBQghwCBDQX8GG6I+ZGh4sGuQYAAAQIdgY88ok1KgAABAgROLnCWk7vl9C1+kddqcav5BpvvLu1ihDqhHqfIeXOEovv4ZZQx3iUyo29u1Hc7keVWs3v00iBA4GCB+nl1cAGme1PADr4JqDsBAncQ8Ki8wy5bIwECBAi8IHCik7sXqteFAAECdxDwMjP7LtvB2XdQ/QQIHCDgUXkAsikIECBAYEYBJ3cz7pqaCRC4l4CXmdn32w7OvoPqJ0DgAAGPygOQTUGAAAECMwp8/uQu/mLmjHxqJkCAwAECXmYOQN51Cju4K6/BCRC4hoBH5TX20SoIECBAYHOBz5/cbb4kAxIgQOBiAl5mZt9QOzj7DqqfAIEDBDwqD0A2BQECBAjMKODkbsZdUzMBAvcS8DIz+37bwdl3UP0ECBwg4FF5ALIpCBAgQGBGASd3M+6amgkQuJeAl5nZ99sOzr6D6idA4AABj8oDkE1BgAABAjMKOLmbcdfUTIDAvQS8zMy+33Zw9h1UPwECBwh4VB6AbAoCBAgQmFHAyd2Mu6ZmAgTuJeBlZvb9toOz76D6CRA4QMCj8gBkUxAgQIDAjAJO7mbcNTUTIHAvAS8zs++3HZx9B9VPgMABAh6VByCbggABAgRmFHByN+OuqZkAgXsJeJmZfb/t4Ow7qH4CBA4Q8Kg8ANkUBAgQIDCjgJO7GXdNzQQI3EvAy8zs+20HZ99B9RMgcICAR+UByKYgQIAAgRkFnNzNuGtqJkDgXgJeZmbf74/s4EcmnX2n1H9yAZ/qk2/Qm+XZ3zcBdSdAgACBqwo4ubvqzloXAQLXEfAyM/tefmQHPzLpszv115//PNtd/gUElo/A4EKm+FQPrkVaLWB/axMRAgQIECDw48ePyU7urvEb/Rqr8PNDgMBhAh4ah1HvNNE7O/jwXONhwguLeqfg8emOmaVZz0O0hwnNYYvgMkjxn5FTxOMyEgYb7zP2R4jCcmOwtsG0fgGDg0i7gIBPwgU20RIIECBAYA+Ba57cLV8u9/DaZEzfSzZhNAiB+wh4aMy+16/t4MPfZQ8TXnZ7reBnpztmlk5VDwEfJnQGz7fWVlrH60gep9l+oUsxTn+E+m4dKQZ89nLzAZ8tQP5JBHwSTrIRyiBAgACBswlMdnI3znfV3/1XXdf4zsokcEMBP/izb/oLO/iwy1rCcti0duQU8bW0HM/tYgs6t77+PP/3P0uXyMwjRDA3ckLRt7nYom+dUyTU48csa7cGE/rdF5BmTrPmIrNYRe6Sb+V2MULsyJKT7+ZeuV3kdC6XW52+S8F56tyO7p0i+7dybdqzC+SP9+xrUT8BAgQIENhQwMndhphHDOU7zRHK5iBwMgE/+CfbkKfLeWoH63ONYr6HCUv+2qR19zqzjuQairvFZZ4938rtnJNHzu0i/+Hlw4Q8eNGuTZ5NKPKLy6K2uBvxaMStpVHEm3UWOcUI9blhnV9H8iD5bm5HThGsLyOS649gHMzFgHXNcSv3iqDGZQTs72W20kIIECBAYFuBD5/cLd/hit/TdTAiRWa2KHKamUVO7j7YjhEG83Na9O3UFt9fl+S17v2hci9tAgQuINB8aFxgXfdZwuAO1k/+guhhQs5fm7SOj0Ri5Dq5ec4yUmpzqJioaOTk3I60HMztZkIEc+NhzQ8T8mi53ayn8xs/+q51jIQmfr5bt+sx60jda22iZt8cfLYdU+eO/WDc1ZhdoLnpsy9K/QQIECBA4H2BD5/cPfVFcC25jje/WxffBorLQcpl5Nf6xhRr3euy68w6EsNqECBwVQE/+LPv7FM7WP8uKJb/MGHJX5u0jo9Eoob4PVg0IqE/e06r5y3urk3R77h8Kyj6Lpd5/Nzu340Bc5en2msFRzwa9bDFQpoJdTBHihHquepI7h7tZtrDYE4Yab8wXXTRmF0gf0JmX4v6CRAgQIDAhgLvntzVXwcffv2tqy9+TxeXOb95azz4cKicsF+7WXB9/jgY2a9OIxMgcBKBtYfGScpTxkOBF3bwYZeXE+qOI5FYY50ct3JjJK2TU9/KkdzOk0b7YUJkNn/V5rsjCUV+fblWTx2vI8VodUIdyV3quyORPMLSzr3W2tFrLWEk3hykH4y7GrML5E/I7GtRPwECBAgQ2FDg3ZO7TUopfk8Xl3mK5q3BYH3ImEc+st0suPluUGfWkSMrNxcBAh8R8IP/EfYNJ31tBx/+L2H9hLVJ6/hIJDTq5LiVGyNpnZz6Vo7kdp402g8Tlsw+4PJ7eXComLrZWBukjteRYsA6oY7kLvXdkUgeof5+kkfI7eiVg8+2m4P0g3FXY3aB/GmZfS3qJ0CAAAECGwqc4uQufyns/85u3h0J1jl1ZEPW/lBrU9fxkUh/LncJELiAQP0ouMCibrWEd3bw5dOltUnr+MNIkVBc5l/isa11TtyKRienuFUjFAl1Df2EesCoamk8TCjy+5d1MTFL0bHILC7rZdaRokt9WUSeHeHZ/Dxdp51v1VOEUpEWcY1rCNjfa+yjVRAgQIDA5gJO7jYnfTzg2veSOj4SeTyfDAIEJheoHwWTL+h25R+5g8uRU/GfIR7xTmS5FZnN4vPdOqG4WycsRzNFWpTULGBJzjn97vUUue8x7aLCYgnNu4VVndOsPKfVCcXd5bJIK3Ly3Xwr2jmhoM63ivzlckmIdtGIy+Y4y91mTs7XnlSg+PxPugplEyBAgACBzQXOcnIXX/v6K1z7jV7E6690DxP688bd+MoYkRcaRTExQh1/GKkTYjQNAgQuI+AnffattIOz76D6CRA4QMCj8gBkUxAgQIDAjAJznNzFeVluFNzFreUy5zxMyMlr7RhkLaETj765EfkR7ESWW5Hp+01YaRC4toAf9tn31w7OvoPqJ0DgAAGPygOQTUGAAAECMwqc6ORuRj41EyBA4AABLzMHIO86hR3cldfgBAhcQ8Cj8hr7aBUECBAgsLmAk7vNSQ1IgACBjQW8zGwMevhwdvBwchMSIDCfgEflfHumYgIECBA4RMDJ3SHMJiFAgMAbAl5m3sA7RVc7eIptUAQBAucW8Kg89/6ojgABAgQ+JuDk7mP0JiZAgMCggJeZQajTptnB026NwggQOI+AR+V59kIlBAgQIHAqASd3p9oOxRAgQKAh4GWmgTJVyA5OtV2KJUDgMwIelZ9xNysBAgQInF7Ayd3pt0iBBAjcXsDLzOwfATs4+w6qnwCBAwQ8Kg9ANgUBAgQIzCjg5G7GXVMzAQL3EvAyM/t+28HZd1D9BAgcIOBReQCyKQgQIEBgRgEndzPumpoJELiXgJeZ2ffbDs6+g+onQOAAAY/KA5BNQYAAAQIzCji5m3HX1EyAwL0EvMzMvt92cPYdVD8BAgcIeFQegGwKAgQIEJhRwMndjLumZgIE7iXgZWb2/baDs++g+gkQOEDAo/IAZFMQIECAwIwCTu5m3DU1EyBwLwEvM7Pvtx2cfQfVT4DAAQIelQcgm4IAAQIEZhRwcjfjrqmZAIF7CXiZmX2/7eDsO6h+AgQOEPCoPADZFAQIECAwo4CTuxl3Tc0ECNxLwMvM7PttB2ffQfUTIHCAgEflAcimIECAAIEZBZzczbhrah4V8BVwVEreuQV8ks+9P4+rs4OPjWQQIHB7AY/K238EABAgQIBAW8DJXdtF9LQCf33/M1ier4CDUNJOLuCTfPINelieHXxIJIEAAQIelT4DBAgQIECgKXCdk7v3f9m/P0KTeDy4nEkV/xndi3hcRsJg4/1l9keIwnJjsLbBtH4Bg4NIIzCRgM/8RJvVLNUONlkECRAgkAU8KrOGNgECBAgQCAEnd0Hx4zxfF9YqqeN15Pd6VlovdClG6o9Q360jxYDPXm4+4LMFyCdwsIDP/MHgm09nBzcnNSABAtcT8Ki83p5aEQECBAhsInCWk7uHfz6rSMi/2vOt3K6B1u7meG7XIzyMRPeHmZ2EvLqcVsebkVxDToh40chTLO2ckO/meG4XOZ3LkfF//Pg6RY3Kczu6R059t38r16ZNYBaB+HGYpWB1FgJ2sABxSYAAgVrAo7I2ESFAgAABAl9HHGsKR/7uLOYqLpeDmFzn2mFNzqnbxbDFZT1LPcJIZKmtHnykb+SsdY94NKLL0ijiH4HKNeR2lFoE68uI5PojGAdzMWBn73KvnK9NYC4Bn+S59quu1g7WJiIECBAoBDwqCxCXBAgQIEBgEXj35C4OqorGuG/zl3QRLC6bg4/k5I51fh3J+Ue21yrJyM161jrm5JGcfv7gCM20h8GcMNKOUnNyPxh3NQjMItD8eM9SvDo7/+sCHAIECBAIAb/sgkKDAAECBAhkgXdP7vJYr7XzaVRuF6PlW83f681gHqQYoc6vI7n7ke21SiIejbqqYpnNhDqYI8UI9Vx1JHePdjPtYTAnjLRfmC66aBCYRSD/LMxSszqzgB3MGtoECBBoCnhUNlkECRAgQIDAKU7uXtiG+ld7HcnD1ndHInmEI9t1bcvsdbyOFHXWCXUkd6nvjkTyCHWpeYTcjl45+Gy7OUg/GHc1CMwikH8uZqlZnVnADmYNbQIECDQFPCqbLIIECBAgQMDJ3e/PwHm+LqxVUsfryO/1fLfqhDqSu9R3RyJ5hPrvheURcjt65eCz7eYg/WDc1SAwi0D+uZilZnVmATuYNbQJECDQFPCobLIIEiBAgACBz5/c1Qc9daT+Rf4wUiTUl0VkZNKRj0v8VdOR5LWcurYls44XkeKyXlQdKbrUl0Xk2RGezc/Tddr5Vj1FwBZpEdcgMJeAT/Jc+1VXG78aNAgQIECgI1A/P0UIECBAgACBU5zcLScv+bd4sTH51tIuEpbLnFYnFHeb4xQ59SAPIzHCw8w6IfrmRqTlYG5HQs249ra/1n0Zqri7XOZZiok6t2KoTk6+VeTnqaNdNOKyOc5yt5mT87UJnFxg7Wf55GUrLwTsYFBoECBAYE3Ao3JNRpwAAQIEbi5wlpO7m2+D5RMgQKAj4GWmgzPFLTs4xTYpkgCBzwp4VH7W3+wECBAgcFoBJ3en3RqFESBA4KeAl5nZPwp2cPYdVD8BAgcIeFQegGwKAgQIEJhRwMndjLumZgIE7iXgZWb2/baDs++g+gkQOEDAo/IAZFMQIECAwIwCTu5m3DU1EyBwLwEvM7Pvtx2cfQfVT4DAAQIelQcgm4IAAQIEZhRwcjfjrqmZAIF7CXiZmX2/7eDsO6h+AgQOEPCoPADZFAQIECAwo4CTuxl3Tc0ECNxLwMvM7PttB2ffQfUTIHCAgEflAcimIECAAIEZBZzczbhraiZA4F4CXmZm3287OPsOqp8AgQMEPCoPQDYFAQIECMwo4ORuxl1TMwEC9xLwMjP7ftvB2XdQ/QQIHCDgUXkAsikIECBAYEYBJ3cz7pqaCRC4l4CXmdn32w7OvoPqJ0DgAAGPygOQTUGAAAECMwo4uZtx19RMgMC9BLzMzL7fdnD2HVQ/AQIHCHhUHoBsCgIECBCYUcDJ3Yy7pmYCBO4l4GVm9v22g7PvoPoJEDhAwKPyAGRTECBAgMCMAk7uZtw1NRMgcC8BLzOz77cdnH0H1U+AwAECHpUHIJuCAAECBGYUcHI3466pmQCBewl4mZl9v+3g7DuofgIEDhDwqDwA2RQECBAgMKOAk7sZd03NBAjcS8DLzOz7bQc/uIPv478/wgeXb+oTCvhErW0KmTUZcQIECBC4uYCTu5t/ACyfAIEJBLzMTLBJ3RLtYJdn35vv4788wl/pn5FFNidqBkdGk3OkwLLVgzPa0zUoMmsy4gQIECBwcwEndzf/AFg+AQITCHiZmWCTuiUevIOd6dJR0h/NbvmNm50pGtmtUH+EP4r7ddEaZo5Yf7HLGjo5nVsHrP8X/x//HfP+EU0XkTDYeH+N/RFSab+bg7UNpvULGBzk5mkMb/4BsHwCBAgQWBNwcrcmI06AAIGzCHiZOctOvFrHwTvYn66+W0ceLvSFLsWYgyMMphWDn+1yZBWdnM6tI1e6VkYdryMP63yhSzFmf4T6bh0pBnz2cvMBny3gAvkML7CJlkCAAAECewg4udtD1ZgECBDYUsDLzJaanxjrqR2MPxH048ePpV2UHAn1sPlWbucRmr1yQswbs+cuedjcLkaoB4mE3Cu3IyE38tQRX3p1pujfKsbJo8WtwREG05qryHMt4xSRuBzpHsnNRjg37w4G18qo481IriEnRLxo1FXlhHw3x3O7yOlcLrc6fZeCl4ScXI+5NsjgRyUPeMN2/mDccPmWTIAAAQIE1gSc3K3JiBMgQOAsAl5mzrITr9YxvoM5Mx8TxMw5Ye24p8iJvksj7kZjLSHy68w68nCQfkJxNy7XJqpxOpkxWm4U+fWAkVxkRrz2X8tci8dQ7yfEUM1GHCc17w4G14qMeDSKAYt4k7rIKUYYoe6PkO/mdkxUBOvLiOT6IxgHczFgXXPcyr0iqNERg0OAAAECBG4u4OTu5h8AyydAYAIBr3kTbFK3xMEdrNOKSHG5zFkH60iuLg5x1tLW4sUg+fJhux6zjjQHWUur43VkGbAZHw8+dZrQHHZkhLWOYfIwITL3a6zVcIFPVHNpOfhsO3Yhd+wH4+6dG02uO4NYOwECBAgQWASc3PkkECBA4OwCXmbOvkOP6hvcwTqtiOQjktwu5i96rd3tpOXBm2nNYJ6oGKHOryO5e7TX0up4HVkGacabwZi0aHSSHy6zU0OepTPF4Ah5tJ3aa0VGPBp1AQVUM6EO5kgxQj1XHcndo91MexjMCSPtF6aLLnduZNs7O1g7AQIECBAoBJzcFSAuCRAgcOTpZH8AACAASURBVDoBLzOn25InCxrcwTqtiBSXa1X00+q7daQYuU6oI7lLfXckkkeIdt1xuVXH68ha5sgfgosCOsn1jHWkU8PIFJGzNnIkHNBYq6GO15GivDqhjuQu9d2RSB5haedea+3otZYwEm8O0g/G3Ts3su2dHaydAAECBAgUAk7uChCXBAgQOJ2Al5nTbcmTBQ3uYJ1WRIrLtSr6afXdOlKMXCfUkdylvjsSySNEu+643KrjdWQts3MYF/PmxvjI45l5/JF61kYuxtn1cq2GOl5HisLqhDqSu9R3RyJ5hBo5j5Db0SsHn203B+kH4+6dG9n5zg7WToAAAQIECgEndwWISwIECJxOwMvM6bbkyYLGdzBnLn89sJgqJyy3HkaKhOKyf6KxyRQjC6mrWpt6Lf7xEZrLXKt2ief/XKu/3qDca7Adf9V0ML+ZtlZhHS8ixWVzRUXOw8sioR6zSCgun83P3TvtfKueIlSLtIhrkPEZIECAAAECTYHeyV18z9MgQIAAgc8KNJ/ggrMIPPU6Gp+0tTf/SFgaTYSckxNyPLf7OflutNe6LwnF3eUy+jZz8t3cPdqR8FQkkutdyLce3l2So4bmEoqcYvzibj1UEYnLura4NdiISgbzc1r0zY1IyMHcjoTlY5xvrS0n5+TuS7u4u1wWaUVOvptvRTsnFHXmW0X+crkkRLtoxGVznOVuMyfn37C99tm4IYUlEyBAgACBLNA7uct52gQIECDwKQEvM5+S32rel3fw5Y5bVW6cwwQ6e925dVh5JiJwgICP+gHIpiBAgACBGQWc3M24a2omQOBeAl5mZt/v13bQH8mZfd+frb/5OWkGnx1ZPoEpBHzap9gmRRIgQIDA8QJO7o43NyMBAgSeE/Ay85zX+bLHd9Bfozvf7qmIAIGDBMYflQcVZBoCBAgQIHAOASd359gHVRAgQGBdwMvMus0cd0Z2MJ/ZaRMgcDeBOZ5lO1c58qjcuQTDEyBAgACBMwo4uTvjrqiJAAECWcDLTNaYsW0HZ9w1NRMgcLCAR+XB4KYjQIAAgVkEnNzNslPqJEDgvgJeZmbfezs4+w6qnwCBAwQ8Kg9ANgUBAgQIzCjg5G7GXVMzAQL3EvAyM/t+28HZd1D9BAgcIOBReQCyKQgQIEBgRgEndzPumpoJELiXgJeZ2ffbDs6+g+onQOAAAY/KA5BNQYAAAQIzCji5m3HX1EyAwL0EvMzMvt92cPYdVD8BAgcIeFQegGwKAgQIEJhRwMndjLumZgIE7iXgZWb2/baDs++g+gkQOEDAo/IAZFMQIECAwIwCTu5m3DU1EyBwLwEvM7Pvtx2cfQfVT4DAAQIelQcgm4IAAQIEZhRwcjfjrqmZAIF7CXiZmX2/7eDsO6h+AgQOEPCoPADZFAQIECAwo4CTuxl3Tc0ECNxLwMvM7PttB2ffQfUTIHCAgEflAcimIECAAIEZBZzczbhraiZA4F4CXmZm3+8XdvCFLrMrNevn0GQRJHBJAT/vl9xWiyJAgACB9wWc3JWGvjSUIq4JEPi0gOfSp3fg3flf2MEXurxb5YH9//r+Z2TCwxyaEzWDI2VvkjOu9M50yyzHzPVOnfreQeCzP3F3ELZGAgQIEJhU4BYnd099Hx380tBMawYn/WQomwCB8wh4tpxnL16r5LAdzKcwnd99D+t5mPCaQ+51wBR5un67U0znVn/MTe4eOfuRc22CY5DrCfgQXm9PrYgAAQIENhHY8uTu5V+39ZvGy0OtoWw7YGe0zq212sQJECDQF3jtwfJar34l7r4mcPxeLDOuzbsWj9U9TIjMlxsHTDFeW6eYzq3x8V/OPHL2I+d6GUTHawv4EF57f62OAAECBF4WOMvJXbGAzX9zbztgZ7TOrWKNLgkQIDAo8NSD5YD/LWSwbGkhML6Defuie9EocurBcyS3f/z4kfvmdkyRg7kdCdF46m5RxlLJMlRznGawmLpYTtyNRgwSmXGraNTlRULnVuT0G7mMfmZ9d5k9RmgW078ba1/S6iki0hx8uftwis4sMe/IIFGMxj0FOh/Ce4JYNQECBAgQWATOeHLX/LW99oWv+Eb4c1Xf0bzHy5hrg3S+ceZBot2sMKaONA0CBAhsItB55sT4+fm21o5kjYMFRnawKGmtSxFf9rrTt8hfMpvBPMizCUV+fVlEll+7I8XUHaNXcatz2VSK9RYdIx6NhwmR2WzEz2Pzbj9YV14U07/MzstERX6efe1WES8um8MWOQ9XkcvQvrNA8cm5M4W1EyBAgACBLHC6k7vm7+wiWF9GJH87jGAczP2x8r/aa8+9cn6030+IoTQIECAwItB/7MS5wHhjZFI5Gwr0d7A50VqXtXgeJOfkduQ0g3G3Pu7Jt5rtPGBuR3IdXCJ1PLosjbWEOp4jud0fZ2Sx9WhFkftdNqeOYDRyATmY25HTDK45NJObwRi/HqrOryO5u/ZtBXwwbrv1Fk6AAAECfYH26VX9rWttlM6L4lqXTrz5C/thMCeMtKOAnNwPxt0RmeaweQRtAgQIPCXQfKp0Hr/jt54qQ/LLAs0d7I/W6VLsbzFO3XEk8nCQOmGtjHq6ou9yuXRv3srBtdHqeI7kdkyXh83tOjnfHfm9X+RveNmsLYLRyDPmYG5HTjO4tsxil+MyRlsaEY9GTqhnrCM5X/u2Aj4Yt916CydAgACBvsC7J3d59Pd/3TZHeBjMCSPtqDkn94Nxd+2r7VMJOVmbAAECDwWKh1W8G2/YeFiDhHcEih0cGWq8S5HZ/FQUMxZdirsPf9PV3XMkt+uRI7KkPUxeS6jjOZLby4x1pKgkLutGp2+dvG2kOXUEo5EnzcHcjpxmcG3T15JjtGbHoldx2eySB9S+rUD9UbkthYUTIECAAIEscKKTu/zbeq0dpa8ljMSbg/SDcXfk62auIXfUJkCAwGsCy1OleSKzbfC18vR6KPDC74XxLkVmcdn8tVXnFEvoJ9R3cyS3i2HzZaRFI9+N9trdOp4jub0MVUceTjGeEJmbN5plRzAaed4czO3IaQabn5O1YAy1NOoBi0hxOThsMYvLOwjUH5U7rNoaCRAgQIDAQ4GznNwVv6rzZW7HenLw2XZzkH4w7o583cz15I7aBAgQeE1g2+M5o31E4NmtX/tVUsdzJLfzjEW8f1n/puvnL56d6eoBi0gxfn+o5W7dpYjky7rCPEVRzPitInPtMj5vawmdeF15XlddeXF3JCFmr/sut+p4Eakv60jMsjZmkeDyngLFJ+eeCFZNgAABAgRqgVOc3NW/p4vI+GXOLNr5sv4uGzRFWsRzo5PTuZVH0CZAgMC4QDxY4ghgj8Z4PTKfFYgdfNixubO5V50Qd+NWRJZGMx7Btdr6CcXd5TLPmxPqKXJ+zowRcjDa9d1OZPlFHxPVNUTfzleC/q08Qqdd199Jzrdy8Z1B4tbaGvsJ+W60cxlZckko7hYJcbmk1WPWkXpAkXsKrH2G76lh1QQIECBAIAS2PLmLQZ9txHe43CgGWbsV8SV/uSzaEYzk+ptBvhXtooa4rLuP3IocDQIECDwlUDxz4hm1VeOpYiS/IFDs4Asj6PKmQH8LOnc7t94sSXcCBAoBP24FiEsCBAgQILAInOLkbrrN6Hyx6NyabpkKJkDgJAJrD5b3T+5OssDLl7G2g5df+EkWuPyk9Itp7lEz2B/HXQIEXhbwE/cynY4ECBAgcG0BJ3cv7m/zu0Uz+OIEuhEgQOCXQP/Z8sL53a+B/fdBAv0dPKiIm02Tfy5utnTLJTCrgEflrDunbgIECBDYWcDJ3c7AhidAgMDbAiMvM/mcotN+uxYDvCIwsoOvjKsPAQIELiTgUXmhzbQUAgQIENhSwMndlprGIkCAwB4C4y8za2d2e1RlzHGB8R0cH1MmAQIELibgUXmxDbUcAgQIENhKwMndVpLGIUCAwF4CL7zMxBHeXjUZ9xmBF3bwmeHlEiBA4AoCHpVX2EVrIECAAIEdBJzc7YBqSAIECGwq4GVmU84PDGYHP4BuSgIEZhPwqJxtx9RLgAABAgcJOLk7CNo0BAgQeFnAy8zLdCfpaAdPshHKIEDgzAIelWfeHbURIECAwAcFnNx9EN/UBAgQGBLwMjPEdOIkO3jizVEaAQJnEfCoPMtOqIMAAQIETibg5O5kG6IcAgQIVAJeZiqSyQJ2cLINUy4BAp8Q8Kj8hLo5CRAgQGACASd3E2ySEgkQuLmAl5nZPwB2cPYdVD8BAgcIeFQegGwKAgQIEJhRwMndjLumZgIE7iXgZWb2/baDs++g+gkQOEDAo/IAZFMQIECAwIwCTu5m3DU1EyBwLwEvM7Pvtx2cfQfVT4DAAQIelQcgm4IAAQIEZhRwcjfjrqmZAIF7CXiZmX2/X9jBF7ocrzRFkcezmJEAgdcEPFJec9OLAAECBC4v4OTu8ltsgWcX8D317Dt0gvp8SE6wCW+V8MIOvtDlrRJf6nxYkc2JmsGX1vFKp7++/3ml5zN9llmOmeuZuuQS2EXgsz/UuyzJoAQIECBAYAsBJ3dbKO4zRvPrSzO4z/xGfV3gqbcse/o69G16+pDMvtXH7GCc8hRca/Ei7bSXHb3OrQOWc+TsR851AJ0pCDQFfM6bLIIECBAgQGDLk7vP/rrtzB4vLUXj2e3vTDE41PgInczOrcEy3kkrDJfLGLB594WCX+gSNSyN/gjNOosR3rzsF/Dm4LrfTcDHafYdP2wHi2fy4tYMTkTa0evcOmCBR85+5FwH0JmCQFPA57zJIkiAAAECBG5xcvfjx4/6q0AdefhpeKFLMeb4CJ3Mzq1iul0v18qo43XkYWEvdCnG7I9Q360jxYDPXm4+4LMFyL+SgI/T7Ls5voP5f1dYW3WRkwdf2v3I8jsxBsmzDAYjLU8U4yx3O7MsmTFIZMYIRaM5SwxSJD97mct4oW8UH6suBonx11bxMGEZcK37wwKie0yUK4yy425notxRm8AeAj5+e6gakwABAgQuIHCWk7v4yhjfQQvcSKh/qedbuZ1HaPbKCTHvMsJyGQl52NyOhGis3c3x3I6ORaMuOBI6tyKn34gC+mn9u2tl1PFmJNeQEyJeNOpickK+m+O5XeR0Lpdbnb5LwUtCTq7HXBuk/rzlvtoECoH8M1LccjmFwAs7uNaliOcHUfzmyjlLu46EW74VI8TdpVHkxN1OvLjVuSyWEIP3p460YuSIDzbiKT2Yn9Pqyoti+pe1dpFfzJUvo110KS6XtCJYX9aRGF+DwJECxUfxyKnNRYAAAQIEzixwipO7/Hu6/h48+NU2D1KLx91oFDlFfKSMYoSROotZ6hGWyMO0hwlrI8f4zQX2exV312qIeDT6HZuVrPWNoYqE4rLei+i4NHJ+bkdaEawvI5Lrj+BSQL7slFSkRQ0aBELAhyQoJm28sINrXdbii0zcXRrF5dqDKNKKQZqXeQuKjnGrjudIbr88RWeuuLV3o15IFu7fzZm5zmavp5LXRohZioTicm2u6K5BYD+B+tO431xGJkCAAAECEwm8e3K3HFs0/3NQof4lXUSKy2XYOlhHcgG5whyPdr/72qTRvdmox6wjgx2LtMFxil7bXq7VcAHq5tJy8Nl2yOeO/WDc1SDgRfoCn4Hmz35/XZ0u+TFbpMXl0igu1z5LkbaU1L/MZReZcauO50huN2eMcdYKfiohJ2/brheSC+7fzZm5qmavTnLxYVgu84BL3yItJ9Qz1pGcr01gPwGfvf1sjUyAAAECUwu8e3KXF//ar9u6VxEpvm7GZZ567Utt5MSY0Yhb0YiRl0bEo9Hpu+QUI9T5dSQGz42HaQ8T8mg7tddqiHg06gIKqGZCHcyRYoR6rjqSu0e7mfYwmBNG2i9MF100CDx8viE6v0B+UAxWO94lZz5s54SopA5GJBqRnBtrd+t4juT2MlodiVk6tx72jUF2ajRri2A08uw5mNuR0wyuPQTWkmO0ZseiV3HZ7JIH1Cawn0D9adxvLiMTIECAAIGJBOY4uRsB7f+yr+/WkWKWOqGO5C713ZFIHiHadce4tTQeJhT5e1yu1VDH60hRT51QR3KX+u5IJI+wtHOvtXb0WksYiTcH6QfjrgYBL9IX+AzkB8Xgcsa75MzczhNFPBrNuxGMtGjErdxYu1vHcyS3l9HqSMzSufWwbwyyU6NZWwSjkWfPwdyOnGZw7SGwlhyjNTsWvYrLZpc8oDaB/QTqT+N+cxmZAAECBAhMJODkbnWz6m8PdSR3ru+ORPII0a47xq2l8TChyN/jcq2GOl5HinrqhDqSu9R3RyJ5hPrNJI+Q29ErB59tNwfpB+OuBoH648pkOoH80Bgsfq1LHc+R3M4T5Xhudz5da3/8fG3Yfrwz6cOJir79ifLdkXb8Ce6R5CKnrrwotX9Z4xf5ebq1W3W8iNSXdSRPVFdV3HVJYD+B4sO530RGJkCAAAECcwl8/uSu+I5Yfw8uEhbf+ld7Eelf1mMW+XVCHSm61JdF5OEI+aNT9427nVuR02+886ISI6+VUceLSHFZs9SRokt9WUSeHeHZ/Dxdp51v1VM8lIwEDQLFZwnIdALjOxjP59zI683xpR1341ZElkYdj0insGLwPGbuHu1IGIksj8SYolNG5+HZvxX19Bt1tf38uJuL7wwSt9bW2E/Id6MdNSyNiC+N4m6mXmrIadE3etWRuKVBYG+BtR+Tvec1PgECBAgQOLnAlid37yw1f1Ns/tqOhKXRnCvn5IQcz+1+Tr4b7bXuS0Jxd7mMvs2c4m5cNhFihEh7rRF1vtA9+uZGjJODuR0JxSvEkpPvRnut+5JQ3G2OU+TEyM0aavC17hHPlRTtqCeS++NHWi5Sm0AI1J+fuKUxhYAd7G9T36dzt3OrP6O7BAicUMBP9Ak3RUkECBAgcAaBs5zcZQu/tvt/joBP/rRoE7iDgJ/62XfZDnZ2MP6njn5OfZdqbSJCYGoBP9RTb5/iCRAgQGA/gdOd3I18g9+P41QjN7++NIOnKlsxBAhsLuAHf3PSgwe0gwV4/EFjMoWMSwJ3FvBAuPPuWzsBAgQIdAROcXLnG3xnh9wiQICAl5nZPwN2cPYdVD8BAgcIeFQegGwKAgQIEJhR4BQndzPCqZkAAQKHCXiZOYx6p4ns4E6whiVA4EoCHpVX2k1rIUCAAIENBZzcbYhpKAIECOwi4GVmF9YDB7WDB2KbigCBWQU8KmfdOXUTIECAwM4CTu52BjY8AQIE3hbwMvM24YcHsIMf3gDTEyAwg4BH5Qy7pEYCBAgQ+ICAk7sPoJuSAAECTwl4mXmK64TJdvCEm6IkAgTOJuBRebYdUQ8BAgQInETAyd1JNkIZBAgQWBXwMrNKM8kNOzjJRimTAIFPCnhUflLf3AQIECBwYgEndyfeHKURIEDgW8DLzOwfBDs4+w6qnwCBAwQ8Kg9ANgUBAgQIzCjg5G7GXVMzAQL3EvAyM/t+28HZd1D9BAgcIOBReQCyKQgQIEBgRgEndzPumpoJELiXgJeZ2ffbDs6+g+onQOAAAY/KA5BNQYAAAQIzCji5m3HX1EyAwL0EvMzMvt92cPYdVD8BAgcIeFQegGwKAgQIEJhRwMndjLumZgIE7iXgZWb2/baDL+/gNeimWMUURb78QdJxc4E9PjB7jLn5wg1IgAABAgSOF3ByV5r70rCIcCg/Ga4JfE7Az+Pn7LeZ+YM7+Nf3P9ss49VRHi6/U+TDvq8WdWi/KVaxa5G7Dn7oXl56ss5PYr3uPfZ0jzHrykUIECBAgMB0Ak7uyi0b/NLw1Jebco7v6+ZEzWCz+97B81Sy90qNT+D8An4ez79H/Qo/u4MvzP5ClzWBwaEG09Zmacb3GLM5keAI9UjOfpLL17biP2O6Ih6XkTDYeH+N/RGisNwYrG0wrV/A4CAvp3129pfL1pEAAQIECOwtsOXJ3Wd/3a7NHl9ugjIia10is994p3unb+dWv57z3L3AEs6DqRICP3788DM1+8fgszv4wuwvdFnbo8GhBtPWZmnG9xizOZHgCPVIzgGSa2XU8TrysLwXuhRj9keo79aRYsBnLzcf8KkCPjv7U6VKJkCAAAECRwpc/+Ru7aX3/S8H74zQ6du5deQn4525LrCEd5avL4HNBfxMbU568ICDO7j8D0u5tiISl/3/Caq425y9yIlJczy3I2FpdG7VmUWkOUJR5Mj4RU4eId/K7bqStbtLfPkKETkPu+caHvaN0WL8onskPGzECA8z64To25x9udtZS+6e282J6uBTkRj/qV5FcnOZze+KdWYUsNzKCflWbhezvymZZ2zW/HD8SFgKW0rNRcbSYhX5bnSvOxZpr10WC3xtEL0IECBAgMD1BM5ycpe/HzS/DURC/Us938rtvFtFr+Jy8ItIMXg9yOA4S1ouL7ebw+aEh+2o82FmnRB9m2UsdzvLzN1zu55IhACBcYHmz+N4d5kfFxjfwTqziMRzOBZVJ8SteFznSP07qBihTni2e+TXIy+3ini9qE1GKGaJMaNRJNSXdST61kovrKI5SJ5isB2/cAfzm2nFYiOnXledWUeie24MpuUuub33Mpe51oos4jVLvZu5+ObgxZgPR8j5uR0TFcH6MiK5/gguBeTLTklFWtTwTmOPMd+pR18CBAgQIHASgVOc3OXf0/mbRBjlhLXvEEVO9F0axd3iMiev3SriL9e5Vv9IDTmn015qKwru5DdvrXWvF15n1pHmFIIECAwK+JkahDpt2vgO1plFpLhclhzBaGSKZrCf0OnSvNUMrv2+ayY3g2sjdOL9deW7dbuoobgsJq3vFgl5/GZyToj2eGZ02aqxNnUdH4k0q6o7NtN2Da7VEN+dOgkPC1vru9axzq8jzb7NtIfBnDDSjqlzcj8Yd19rNCd6bSi9CBAgQIDAlQTePbnLX3SK9iBT/Uu6iBSXy7B1sI7kAoq7xWUnc226zhf0GG1tlrX4w46RcEBjrcg6PhI5oGBTELiwQP1TduHFXnJp4ztYZxaR4nLhimA0MmMdLH5fNxPyCLld910iOSfa9chrvz2bmWvJy/hFJTFpNNbGzAmdQeruOZLbMeBao5NcFNDJXBt8q/ja1HV8JNKsqu7YTNs1uFZDxKNRl1FsVjOhDuZIMUI9Vx3J3aPdTHsYzAkj7Remiy6vNXJVr42gFwECBAgQuKTAuyd3GeW1X7d1ryJSf8tZInnq/pf7JTOGjUYxQpGW7za71MG61DxItOuOcWtpPEwo8ve4XKuhjo9E9qjQmATuI1D/lN1n7ddY6fgO1plFpLhcfCIYjexWBIvL5i/QOicG7NyKnGg0k8eDzdpi8KJRD1tHcpf6bhEpLoti6rt58KK9llzH60gx1H6Xa1PX8ZFIs866YzNt1+BaDXW8jhSF1Ql1JHep745E8ghLO/daa0evtYSReHOQfjDuvtbIVb02gl4ECBAgQOCSAnOc3I3QP/xlHwnRaA7bvDsSrHPqyDLjWjzqeZgQmfs11mqo4yOR/eo0MoE7CNQ/ZXdY9ZXWOL6DdWYRKS4XpQhGI+sVweKyOJAqBszjPLw1mFwX0Kzh2enqYetIrrC+W0SKy6LI+m4evGivJdfxOlIMtd/l2tR1fCTSrLPu2EzbNbhWQx2vI0VhdUIdyV3quyORPELxISwu69E6CTl5rR1T54R+MO6+1mhO9NpQehEgQIAAgSsJOLkrd7P5pWEkWOfUkWWytXiU8jAhMvdrrNVQx0ci+9VpZAJ3EKh/yu6w6iutcXwHi8z6z5g3I9lqZIQiv+hSvO0/vKwTivHz5dIuZqwXFV2KzE68ziwiDy/7CfUyi/w6oVPtsw4xVLMRf+S/eXcwWC9n6VjHH0bqhA7OYHnLCJ2PyuA4zdqa5RWZxeULXYoRmmupc/K6irt1DUVC5zLfKtr5sp4i6inSIv5OY48x36lHXwIECBAgcBKBz5/cFd8JRr7HFF0WyuKXfXEZOc143oy1hCJe1/kwYWSW5tJyx5H2UltRz0jHnLPWvY4/jNQJeSJtAgQeCvghekh08oSndjCe4Uuv4tdNDha3AqE/wvKLJnLiMrovjUhoFp/vNhNitLW7eYS6hnw32jFm5MetwVnyCMUgcVksP7rEXBGJLs1b9d0lLXcvcuKyyHl4uVbAw44xY4xQFBnxGKqOLLci3tmLGOS1RkzxQvfomxsxTg7mdiQ0ofLdaK91XxKKu8tl9G3m5Lu5e7RzQlFnvlXk56mjXTTisjnOcreZk/Ofaq99eJ4aRDIBAgQIELiewJYnd+/oxK//5TtHPVQkdL4i5Jx6hPg207mVR6i/PeS7zdEeJsTU9eAjtyKn34gy+mnNu9E3NyIzgp3IcisyOyuNQTQIEOgL+Dnq+5z/7oY7uOFQx7hNV/AxLDecxSfhhpv+7JJ9SJ4Vk0+AAAECNxE4y8ld5r7Dr+3OGju3spI2AQL3EfBYmH2vN9zBDYc6THXGmg/DuclEPgM32eg3l+lz8iag7gQIECBwVYHTndwtf1brqtx5Xc1vJ81g7qVNgMANBTwZZt/0rXYw/jjz7CDqJ0CAQC2w1aOyHlmEAAECBAhMLXCKk7t4FfELe+oPk+IJENhJwLNxJ9jDhrWDh1GbiACBeQU8KufdO5UTIECAwK4Cpzi523WFBidAgMDsAl5m7ODsAuonQIDAQwG/7B4SSSBAgACBewo4ubvnvls1AQIzCXiZmWm3WrXawZaKGAECBP4Q8Kj8g8MFAQIECBD4JeDk7peE/yZAgMBZBbzMnHVnRuuyg6NS8ggQuLGAR+WNN9/SCRAgQKAn4OSup+MeAQIEziDgZeYMu/BODXbwHT19CRC4iYBH5U022jIJECBA4FkBJ3fPisknQIDA0QJeZo4W33o+O7i1qPEIELiggEflBTfVkggQIEBgCwEnd1soGoMAAQJ7CniZ2VP3iLHt4BHK5iBAYHIBj8rJN1D5BAgQILCXysGuqgAAIABJREFUgJO7vWSNS4AAga0EvMxsJfmpcezgp+TNS4DARAIelRNtllIJECBA4EgBJ3dHapuLAAECrwh4mXlF7Ux97OCZdkMtBAicVMCj8qQboywCBAgQ+LSAk7tP74D5CRAg8EjAy8wjobPft4Nn3yH1ESBwAgGPyhNsghIIECBA4IwCTu7OuCtqIkCAQBbwMpM1ZmzbwTPv2jV25xqrOPPn5GK1nfMDc86qLrb1lkOAAAECMwo4uZtx19T8U8A3vMGPAqhBqNOm2cHTbs1gYYft4F/f/wxWdaW0d4QH+57cdnAVr236roO/VpJetcBTH9Fz7uk5q6qpRQgQIECAwMECVzi5e+qbysG+u0738PvN5WUeCrzjv+vg7xT2Qt/BtVz+A/MC3Um6DO7gSapVRi1w5A7uPdfyoCj+s17ykZG9lxxrOWyimPGYxsi6RnL2q7b4vBW/rZp3Xyj4hS7FkvsjNOssRnjzsl/Am4Mf0H32+g8gMgUBAgQI3FNgy5O7D/663XvqA75sPfv5G1zyYNqzs18gf0RmJOcCFHkJN1xyXv5p2/bltFszWNiRO3jAXPUUdWRQZpO0w2Y/bKJNWMYHGVnXSM74jC9nrpVRx+vIw0lf6FKM2R+hvltHigGfvdx8wGcLeDN/9vrfXL7uBAgQIEBgTcDJ3ZpMGa+/TNSRss+e14OzD6btWelJxx6RGck56fJeLeuGS36V6tB+9uVQ7h0mG9/B/IeJ4n80KiqKeHPYJdjJ2WqKuqo6EmXkW1FA3M0LGQ/GmLn7jx8/YoRIaAYjreje7BWq+e7SHhmn7pUjMUIODrajb3MVy928/CItd8/tevaiY53wMBLjP8zsJKyVUcebkVxDToh40agryQn5bo7ndpHTuVxudfouBS8JObkec22QzichD/LBdt6UD5ZhagIECBAgcDaBU5zc1d9C6t/cnW8hyxeR/teRraYo9m+8ziiguZDxYBRQT73cKoZqphU5ecwlv5kwHowBO40YrZOzdiv6dlbX+Tzk7rldT9ccv07rRGL8Tk59q9mrH2yWGl2ad5d5i5xOZl2nyGEC9uUw6p0memoHl+TcZa0dv/5y2csPdRHJl9Frbdgcj+Q8QpGw3CqCDy8fJuQZm2U05302OD5yDVv3LRZVLGHtMp7Dawkj8bWp67LrzDrSnHEwrdl3saqLWUtei6/VEPFoFCMU8WYlRU4xwsh290fId3M7JiqC9WVEcv0RDOQYsK45buVeEfx445xVfZxFAQQIECBA4BQnd/HFIv/CXmtHct68/A1miefuOZLja+21KfKMecyI5wHrQR4WWXSvR1ibaC1ez1iPWUxad6kTYrqlUSQUd9cul4le6xtjrnV/uIraIcYsGmtTFGlrly8vszlvEexf5pKKzLhVxGu3yNT4rECxU58txuwvCDy1g52fxOY4RbC4XKotggdMUSjVBbyZEN2Lkdfia2lrvw6a+c1gzLg2VE7Yr71WWx0fiTTrrDs203YNrtUQv207CQ8LW+u71rHOryPNvs20h8GcMNKOqXNyPxh3P9VolvqpYsxLgAABAgTOI/DuyV3+qlS0n1rkAW8RB0xRLLn4/lFc1l/xHybE+HVmPdqS3MyMcepedX4RKS7rEfLge7frYtZWXWfWkWa1g2nNvm8Gi6n7l2sL78SLATuZby5E9/cFmpv1/rBGOEzgqR3sJBe/Z+MyL6TZvQgWl0X3GDY3ipx8ubSLMXPfpZ27FMnNXyU5J7fzOM2Oa/UUHeOyOfhgsL/MmOKARrPgpk+dWUeaBQ+mNftuFVyrIeLRqGcsNquZUAdzpBihnquO5O7RbqY9DOaEkfYL00WXTzXyuj5Vg3kJECBAgMAJBd49uctLeufXbadv/T1piTycuhizuCy6N2cpcvLl0i7GrAfJXYrkh9+n6/wYrXlrMHhYkVHtfo3mkh/CLvWs9S2qHUwrem1yWUzdv+wvqujbSW5mbrIcg7wjYF/e0TtD36d2sJPcuRXLbOYUweIy+jafn/nu0m52z8HcbnZ5mFBUUudHVSO3OjnFRP1hi3GKy7WhYsxdG3Uxy3R1fCTSLLXu2EzbNbhWQx2vI0VhdUIdyV3quyORPMLSzr3W2tFrLWEk3hykH4y7n2rkdX2qBvMSIECAAIETCsxxcvcQrvmbvggWl3nMzq1Ia+bkYG4vvYpIcdn8ip9zcjvKaI48HqzHLCLF5TtFFjXvcVlXu0ZRZ9aRZoWDac2+7wdj9mjEmHWkuVlL/nhyMzMm1fiUgH35lPxW8z61g53kzq0otZlTBIvL6Nt5jDzMyWPm9tKxiBSXa/MuaXXyw2KKSV8YodmlCBaXa6vI1e7XrospEGLqOrOORHJuDKblLpu312qo43WkKKZOqCO5S313JJJHqD8heYTcjl45+Gy7OUg/GHc/1chr/FQN5iVAgAABAicUcHL3tSkjXxSaOTmY28tOF5Hicm3eJa1Ozp+e5t2RYJ1TRIrLd4rMBe/UrqttyjdXsda3KHUwrei11WXMHo0YuY40l7nkjyc3M2NSjU8J2JdPyW8171M72E+u7xaRkT+WXnQpllnfLSLFZf3wKRJeLmkZpxitqLaePSfUU+e7S3tt/CJeD/UwoZ6rGVlGLkZrZnaCa93r+MNIndBH7lSVb312mfWiHkaKhPqyiNRKRUJx+Wx+7t5p51v1FLEjRVrEP9s4Z1WfNTE7AQIECBD4+oW+pvDC784XusTs/b713SLy8Pt057vLUkMxYJ3/bMLLJS0T1dOF1VrBzZqLcerLOjI+UdG36Ni//Ow3+KZVXfA7C1xGe3+Z9Qcp6izKKy4jrV5s3Cq6dOaKLhofESh26iM1mPQdgfEdjIdGNOp541b9MxuRnFOMkG9Ffj8n3627N1eX05anUKTFrRi2juRb0V5rxMh1wjJyHY+SYupmZr4bXfJoDxNy8lo7BllL6MSjb25EfgQ7keVWZK5hrsVj5IeNmOJhZp0QfXMj0nIwtyMh9m7tbmT2E4q7y2X0XRpFTr6bb0U7JxR15ltF/nKZZ4y+0cg5MVSMkxtx9+ON9z9mH1+CAggQIECAwB4CW57cvVxf/vbQ/J5RfAspfq9HlzxOUUy+Ffn9nHy37l7UsCTntKi5uBXDRnJEotEcPO4ujbWcGHZJWC5z305C3Ir8OpJvRfuFRmfkh6NF39yIXhHsRJZbkdnBjEFea8QUr3UvPkX1IDF+cwn5brSLQSK+9oEp8l1+RKC5vx+pxKSvCdjB19yWZ+DDvngfEr2fAPl9QyM8FPAxe0gkgQABAgTuKXCKk7t70ndWPfLFZSSnM8X7tz5ewPtLeDjCHdb4EEHCGQR8FM+wC+/UYAdf0xt3G898rZKb98J78w/AYcv3STuM2kQECBAgMJeAk7vT7df4t5bxzM0X+cGpN1/L2oB3WOPa2sXPJuDTeLYdebYeO/iUWP6zwOieopNMYGoBP+9Tb5/iCRAgQGA/ASd3+9k+N/IULypTFPmcu2wCMwh4mZlhl3o12sGejnsECBD4FvCo9EEgQIAAAQJNASd3TRZBAgQInEjAy8yJNuOlUuzgS2w6ESBwLwGPynvtt9USIECAwLCAk7thKokECBD4kICXmQ/BbzatHdyM0kAECFxXwKPyuntrZQQIECDwloCTu7f4dCZAgMABAl5mDkDedQo7uCuvwQkQuIaAR+U19tEqCBAgQGBzASd3m5MakAABAhsLeJnZGPTw4ezg4eQmJEBgPgGPyvn2TMUECBAgcIiAk7tDmE1CgACBNwS8zLyBd4qudvAU26AIAgTOLeBRee79UR0BAgQIfEzAyd3H6E1MgACBQQEvM4NQp02zg6fdGoURIHAeAY/K8+yFSggQIEDgVAJO7k61HYohQIBAQ8DLTANlqpAdnGq7FEuAwGcEPCo/425WAgQIEDi9gJO702+RAgkQuL2Al5nZPwJ2cPYdVD8BAgcIeFQegGwKAgQIEJhRwMndjLumZgIE7iXgZWb2/baDs++g+gkQOEDAo/IAZFMQIECAwIwCTu5m3DU1EyBwLwEvM7Pvtx2cfQfVT4DAAQIelQcgm4IAAQIEZhRwcjfjrj2u+f2vPu+P8LhKGacRsN2DW/EpqE/NO8gi7aGAHXxIJIEAAQIelT4DBAgQIECgKXDNk7u/vv9pLviw4Ge/fLw/+/sjHEZtovcFdt3uXQd/f+1PjTC4ls0fQYPzPrUWyUcK2MEjtc1FgMCkAh6Vk26csgkQIEBgb4EtT+5O9ev2hWJe6LK2PRsOtTbFaePLmUX+z9OW+mZhd97lTDfiMJKTx7xAe9slbzvaBXinW4IdnG7LFEyAwPECHpXHm5uRAAECBKYQcHL3e5s2/Lqw4VC/65unVSy/uJxnHQ8qveq6Hiy7uj3iMJJTDTx3YNslbzva3LJzVm8H59w3VRMgcKiAR+Wh3CYjQIAAgXkEPn9yV/+1siISl/0/xlXcbf7uL3Jim3I8tyNhaXRu1Zl1ZCmpP0j/7o8fP4qEYpnF3aKG5ireH6GepRhzKTun9etc7hbV5u4PHeqE3D3G75fRGSR3zO08S+4e7bWEWqzI7FxGAZ2ctVvRt1nAcjeKj8sYLXfP7UiIRnP8uDvSiPFHkiOn2asfbJYaXZp3l+mKnE5mlDfe2Ha08XllbiVgB7eSNA4BAhcW8Ki88OZaGgECBAi8I/D5k7vlXKBYQ/Gbe3klzjl1QnG3SKhneZiQBxzpHvn1yMutF1YRY8YIOVIPGHc7NUROnMjkSLTHR4gu0aj75khu17DLIEtOzlxrN1eRk5tT1HRFl7rXw4RYfl5CtB92rxOKAdcul7W83D0qbI7/AlRznNpzLW0t/vIymzJFsH+ZSyoy41YRr90i87VGMf5rg+j1QQE7+EF8UxMgMIuAR+UsO6VOAgQIEDhY4N2Tu3idrhvjK6l/TxeR4nIZOYLRyDM2g/2ETpfmrWawc0LRzI9gNDpFNnNyfrSbmePBtVUMjlCk5VOM4tZScB3MXWJR0ajz49Zg5fUIdSSP2Ry206W+VUSKy2WuZrAoY6fLtanr+EikWWTdsZm2R7CYun+5FFDkRFXN+Hgwxnm20Zzi2UHkf1DADn4Q39QECMwi4FE5y06pkwABAgQOFnj35C6X+/Kv27pjESkul0kjGI1+MQ/PFpvjxFx197X8p+KRHI2nVpGTc3twtNylaI+PUGcWVnnk4lZc5pzmMVmdEH2LAorLpWMRLC6bM+bxl3ZdQxGJy4fj14M3p4gB927UBS8z1vGRSLPaumMzbY9gMXX/cm3hnXgxYCfz5dU1p3h5NB2PF7CDx5ubkQCB6QQ8KqfbMgUTIECAwDECdzm5q78KjERiD+rkuFU31pKb8QhGIw/YDI4kNDs2g3m03G4mDwabacvgnVsPZ88JRTsPm9uRVgSLy/rk7mFC3SXmat4qBiwuc9+PtNfqqeMjkeYS6o7NtJ2CMXs0YqI60tzBJX88uZkZkz7b2Ha0Z2eX/76AHXzf0AgECFxewKPy8ltsgQQIECDwmoCTu99una8LnVu/+/9qrSU34xGMxq9hvv67GRxJaHZsBvNoud1MHgw205bBO7cezp4TinYeNrcjrQgWlzX1w4S6S8zVvFUMWFzmvh9pr9VTx0cizSXUHZtpOwVj9mjERHWkuYNL/nhyMzMmfbax7WjPzi7/fQE7+L6hEbYV8Jnc1tNomwj4WG7CaBACBAgQuJ7AGU/u6r822IzkzSh+04/kF13qd/Uiobis8zv1LLdGquoPMl5DnRk15Ck6qxgcoZnWDMa89d2RSHRv1lyM0L98bYRizHqQIiFf1ltfd29G8qrX2svgebq1zE58rXsdfxipE15eWi74/WU2d2GZoqi5uCzKyJfRLrp05oouTzWK8Z/qK/kMAvEB1iBAgACBjsAZnthqIECAAAECZxPY8uTunbXlX+HLe35+U13aRU4xXXF3ucw5DxNi3rrvMk4eIZeXZ4nMtWAepJkTCf27zSKjb24U4+Rb9SqKu8tlZ4TiVmFYj7/kF7MUgxR360EeJhRlrI0f8RgwIvUIS05OqHPW7i6Zxd2ie73MOr8ZaRbfzKyD0Tc3Ii2CnchyKzLXVrEWj5EfNmKKh5lrCcsI/btrOTF7bhRDFbfWhip6DV6+Dzg4kTQCBO4gsO0D6g5i1kiAAAECBAgQ+KDAWU7u+gTTvbU2C24G+wt39zICN9/9my///Y8xwPcNjUCAQAjE/9IQEQ0CBAgQIECAAIHTCji522tr6jftOrLX3MY9mcDN/3SDT/77n0eG7xsagQCBRSB+JXmw+EgQIECAAAECBKYQmODk7hr/y/A1VjHFZ/okRcaOezU6yY5MXYZP0dTbp3gCpxKI50k0TlWeYggQIECAAAECBAqBCU7uiopdEiBA4G4CXrDvtuPWS2AngfgDd8v4ni07ORuWAAECBAgQILChgJO7DTENRYAAgV0EvF3vwmpQAvcTKB4mxeX9PKyYAAECBAgQIDCBgJO7CTZJiQQI3FzA2/XNPwCWT2ArgeJhUvwRvK1mMQ4BAgQIECBAgMCGAk7uNsQ0FAECBHYRKF62d5nDoAQIXF2g+SRpBq8uYX0ECBAgQIAAgZkEnNzNtFtqJUDgngJere+571ZNYFuB5pOkGdx2XqMRIECAAAECBAi8I+Dk7h09fQkQIHCEgFfrI5TNQeDSAmt/MXYtfmkMiyNAgAABAgQIzCTg5G6m3VIrAQL3FHByd899t2oCGwp0HiOdWxsWYCgCBAgQIECAAIHXBJzcveamFwECBI4T8F59nLWZCFxRoP8H6zxhrrjn1kSAAAECBAhcR8DJ3XX20koIELiqgPfqq+6sdRE4RqD/DOmf6x1ToVkIECBAgAABAgTWBJzcrcmIEyBA4CwC/bfus1SpDgIEzirw8BnyMOGsK1MXAQIECBAgQOD6Ak7uzrjH73+Bfn+EM7qoaUXAdq/AlOF5oeatvNwD1wQIHC4w8kfqRnIOL9yEBAgQIECAAAECXwJO7tqfg8++J78/+/sjtF1ETymw63bvOvjBnINrOeEb7GDlB3uajgCBKQQGHyCDaVMsWZEECBAgQIAAgSsJOLlr7Oadv7wuZxb5PxtAlwjdeZfzBo44jOTkMS/QPtuSz1bPBbbYEgjcRGD8f4rwnLnJR8IyCRAgQIAAgekEnNw1tuzmX16L5ReXDa85Q1dd17O7MeIwkvPsvCfPP9uSz1bPybdPeQQIhMD402P8jC8G1yBAgAABAgQIEDhA4MMnd/E1MRpff4P3+59i8UuwvhXxnN8PPvwWWyfEvDFynROVR3IuaWkX3YtBirt193qK90eoZynGXCbNaf068/IjM3d/uIo6IXeP8WPwuuAlfy0hx3M7z5JriPZawloBRX7zMgpo3u0Ho2+zgOVuFB+XMWbuntuREI3m+HF3pBHjjyRHTrNXP9gsNbo07y7TFTmdzCjvyMbZ6jly7eYiQOBlgfxkG2y/PJeOBAgQIECAAAECOwl8+OQujhWW5S1fK6Mday7eWvuXdfdllhitvhy5lWt7bYq67CISZQzG65JeGCG6RKOePUdye01yycmZa+3iA7DUkJObU9QLL7rUvR4mxPLrGurpRsYvBly7XAavy1vLb8bXuteV15l15Kkpmsl18OVlNssrgv3LXEyRGbeKeO0WmZ9qFBV+qgzzEiBAgAABAgQIECBAgMDBAu+e3MULedEYX0Z+I222czCGLYJPXS6DFF3WRu7HY5BoRP47hzsjo72wisFhi7R8ilHcWqshd8kga/k5Z2SKOqeO5DHrvWhGoks9WhEpLkfWFYPv0WjW01xjnVlHmhUOpjX7vhkspu5fLnMVOVFAMz4ejHGObzSLPL4MMxIgQIAAAQIECBAgQIDAwQLvnty9X25+I222czCmK4IPL4uDxc7RUjHU2oxLPJKjEflr5ya5kpyc24Oj5S5Fe3yEOjNXWNwtbsXlyOw5JzoujeJWvlzadRlFTpGw4Hdmae5OjNkcLe42B68XkvP3btcFLzPW8ZFIs9q6YzNtj2Axdf9ybeGdeDFgJ3OP1Q2O2SxysK80AgQIECBAgAABAgQIEJhX4CInd/kgpn7FrSOdDVtLbsYjGI08cjM4ktDs2Azm0XK7mTwYbKYtg3duPZw9JxTtPGxuR1oRLC7z7i9dHibUXWKu5q1iwOIy9/1Ie62eOj4SaS6h7thM2ykYs0cjJqojzR1c8seTm5kx6fGNs9VzvIAZCRDYVsBTZVtPoxEgQIAAAQIE9hNwclfarn2XbcYjGI08XDM4ktDs2Azm0XK7mTwYbKYtg3duPZw9JxTtPGxuR1oRLC7rk5qHCXWXmKt5qxiwuMx9P9Jeq6eOj0SaS6g7NtN2Csbs0YiJ6khzB5f88eRmZkx6fONs9RwvYEYCBLYV8FTZ1tNoBAgQIECAAIH9BCY4uavfw9e+bnb+xmLdpY6EcvNWPXiR1r+sV9GMLDUUQ3UKG89sjtzs3gw+VcObIxTdi8umW5FTXxaRepAiIV/WW193b0YCrdNYBs/TdZLXbq11r+MPI3XCy0vL1b6/zOYuLFMUNReXRRn5MtpFl85c0eXgRlHhwbObjgCB6wl4qlxvT62IAAECBAgQuKrAh0/uivf5/MKc28vZQZFcb0nRpUiI7v20tXOK5TtuHqQY/2GRuW+zhjqh/mJd5BQ1FHcfzlJ0L5ZQz77kF7MUgxR360EeJhRlrI0f8RgwIvUIS05OqHPW7i6Zxd2ie73MOr8ZaRbfzKyD0Tc3Ii2CnchyKzLXVrEWj5EfNmKKh5lrCcsI/btrOTF7bhRDFbfWhip6HXb5/hYcVqqJCBCYQsBTZYptUiQBAgQIECBA4OvwYU3hzl/pmmtvBtf0xC8mcPPdv/nyz/BhtgVn2AU1ELiSgKfKlXbTWggQIECAAIFrCzi5a+9v/Y22jrR7il5O4Gx//OpgYJ/8g8Gb09mFJosgAQIvC3iqvEynIwECBAgQIEDgYAEnd0Pg8TfphrIlzS8QO+7dZv7NvMIKfA6vsIvWQOBMAp4qZ9oNtRAgQIAAAQIEegJO7no67hEgQOAMAt6xz7ALaiBwJQFPlSvtprUQIECAAAEC1xZwcnft/bU6AgSuIOAd+wq7aA0EziTgqXKm3VALAQIECBAgQKAn4OSup+MeAQIEziDgHfsMu6AGAlcS8FS50m5aCwECBAgQIHBtASd3195fqyNA4AoC3rGvsIvWQOBMAp4qZ9oNtRAgQIAAAQIEegJO7no67hEgQOAMAt6xz7ALaiBwJQFPlSvtprUQIECAAAEC1xZwcnft/bU6AgSuIOAd+wq7aA0ECBAgQIAAAQIECBB4XsDJ3fNmehAgQOBYASd3x3qbjQABAgQIECBAgAABAmcRcHJ3lp1QBwECBNYEnNytyYgTIECAAAECBAgQIEDg2gJO7q69v1ZHgMAVBJzcXWEXrYEAAQIECBAgQIAAAQLPCzi5e95MDwIECBwr4OTuWG+zESBAgAABAgQIECBA4CwCTu7OshPT1eEoYbotU/C8An7c5t07lRMgQIAAAQIECBAgQOAdASd3o3p/ff8zmv3jR/NNuxkcH/NUmYNredbtVGtUDIGTCAz+uJ2kWmUQIECAAAECBAgQIECAwFYC05zcPXxxfZjwPtn4FJ3Mzq33KzznCDdc8jk3QlXzCvghmnfvVE6AAAECBAgQIECAAIF3BJzcPaE3/vLcyezceqKUqVJvuOSp9kexEwj4IZpgk5RIgAABAgQIECBAgACBHQROdHK3/LXK+i9X5nhuh0YO5nYkROOpu/WrckT64/xY+auySxkxSFT1bCNmf6pjs1c/2Cw1ujTvxhojra/x1BIkE7itQOfH7bYmFk6AAAECBAgQIECAAIE7CJzl5K54Ly0uR05/6i7F/hUJDy+LhFxDfSvP1b+bx8m9xtv5UGy819q8RbX9yzxdkRm3ivhSbdzVIEDgBYHix+qFEXQhQIAAAQIECBAgQIAAgRkF3j25i1OkovGmRf2aWkeKKR4mdPKbfevgEqnjnZGLW8vlwxGavTYJFlP3L/vVFn07yc3MTZZjEAI3EfBDdJONtkwCBAgQIECAAAECBAgUAu+e3BXDvXxZHPzVr6l1pJhrJKGYJUZ42HfJXLpHr7XGw9EeJqyN/H68mLp/uUxX5EQNzfh4MMbRIEDgoUDzJ+thLwkECBAgQIAAAQIECBAgMLvAKU7u6pfSkUhBX3fJCfXdHMnt3KtoL2kPk99PKObd9jLKi0aMX0fW/o7tWvypEWJeDQIE+gLNn6x+F3cJECDQEfBU6eC4RYAAAQIECBA4lYCTu6/tGPz+GmnRaO5l/+74dM3B3w9GedGIMetIp9rx5GZmTKpBgMBDAT9ED4kkECDwlICnylNckgkQIECAAAECHxQ448ld8y+lFl8xi8v6gKlIqC/rSLENRUIxRX03d+/c7dzKI3Ta8Xd+Ozn9W03hpUtRXnGZh127VcQ7c+XRtAkQ6AgUP1adTLcIECAwIuCpMqIkhwABAgQIECBwBoFTnNwth2L5QKp53BMJa183+wnF3XqKnFBPkfNzZnMX6+6R1rkVOf1GzN5P69zNa6nTYvxmqflutItBIr6MsFwWOS4JEBgXaP4wjneXSYAAgULAU6UAcUmAAAECBAgQOK3AWU7uTgv0WmGdL8SdW6/NpRcBApcX8Ny4/BZbIIGDBTxVDgY3HQECBAgQIEDgZQEndy/TPejY/E7cDD4YyG0CBG4v4NFx+48AAAIbC3iqbAxqOAIECBAgQIDAbgJO7najNTABAgQ2EvCOvRGkYQgQ+CngqeKjQIAAAQIECBCYRcDJ3Sw7pU4CBO4r4B37vntv5QT2EfBU2cfVqAQIECBAgACB7QWc3G1vakQCBAhsK+Ade1tPoxEg4KniM0CAAAECBAgQmEXAyd0sO6VOAgT/E35JAAAgAElEQVTuK+Ad+757b+UE9hHwVNnH1agECBAgQIAAge0FnNxtb2pEAgQIbCvgHXtbT6MRIOCp4jNAgAABAgQIEJhFwMndLDulTgIE7ivgHfu+e2/lBPYR8FTZx9WoBAgQIECAAIHtBZzcbW9qRAIECGwr4B17W0+jESBAgAABAgQIECBAYBYBJ3ez7JQ6CRC4r4CTu/vuvZUTIECAAAECBAgQIHBvASd3995/qydAYAYBJ3cz7JIaCRAgQIAAAQIECBAgsL2Ak7vtTY1IgACBbQWc3G3raTQCBAgQIECAAAECBAjMIuDkbpadUicBAvcVcHJ33723cgIECBAgQIAAAQIE7i3g5O7e+2/1BAjMIODkboZdUiMBAgQIECBAgAABAgS2F3Byt72pEQkQILCtgJO7bT2NRoAAAQIECBAgQIAAgVkEnNzNslPqJEDgvgJO7u6791ZOgAABAgQIECBAgMC9BZzc3Xv/rZ4AgRkEnNzNsEtqJECAAAECBAgQIECAwPYCTu62NzUiAQIEthVwcretp9EIECBAgAABAgQIECAwi4CTu1l2Sp0ECNxXwMndfffeygkQIECAAAECBAgQuLeAk7t777/VEyAwg4CTuxl2SY0ECBAgQIAAAQIECBDYXsDJ3famRiRAgMC2Ak7utvU0GgECBAgQIECAAAECBGYRcHI3y06pkwCB+wo4ubvv3ls5gX0EPFX2cTUqAQIECBAgQGB7ASd325sakQABAtsKeMfe1tNoBAh4qvgMECBAgAABAgRmEXByN8tOqZMAgfsKeMe+795bOYF9BDxV9nE1KgECBAgQIEBgewEnd9ubGpEAAQLbCnjH3tbTaAQIeKr4DBAgQIAAAQIEZhHondz95R8CBAgQOIfALL9U1EmAwBQCTu6m2CZFEiBAgAABAgR+/PixenJHhwABAgQIECBA4JICTu4uua0WRYAAAQIECFxSwMndJbfVoggQIECAAAECqwJO7lZp3CBAgAABAgQInEzAyd3JNkQ5BAgQIECAAIGdBZzc7QxseAIECBAgQIDAZgJO7jajNBABAgQIECBAYAoBJ3dTbJMiCRAgQIAAAQL+PXc+AwQIECBAgACB2wk4ubvdllswAQIECBAgMK2AP3M37dYpnAABAgQIECDwkoCTu5fYdCJAgAABAgQIfEDAyd0H0E1JgAABAgQIEPiggJO7D+KbmgABAgQIECDwlICTu6e4JBMgQIAAgT8E/vIPAQIECBwl8Mfz1wUBAgQIELiHgJO7e+yzVRIgQIDAPgL+7NI+rkYlQIBAKeB5W4q4JkCAAIF7CDi5u8c+WyUBAgQI7CPgTXIfV6MSIECgFPC8LUVcEyBAgMA9BJzc3WOfrZIAAQIE9hHwJrmPq1EJECBQCnjeliKuCRAgQOAeAk7u7rHPVkmAAAEC+wh4k9zH1agECBAoBTxvSxHXBAgQIHAPASd399hnqyRAgACBfQS8Se7jalQCBAiUAp63pYhrAgQIELiHgJO7e+yzVRIgQIDAPgLeJPdxNSoBAgRKAc/bUsQ1AQIECNxDwMndPfbZKgkQIEBgHwFvkvu4GpUAAQKlgOdtKeKaAAECBO4h4OTuHvtslQQIECCwj4A3yX1cjUqAAIFSwPO2FHFNgAABAvcQcHJ3j322SgIECBDYR8Cb5D6uRiVAgEAp4HlbirgmQIAAgXsIOLm7xz5bJQECBAjsI+BNch9XoxIgQKAU8LwtRVwTIECAwD0EnNzdY5+tkgABAgT2EfAmuY+rUQkQIFAKeN6WIq4JECBA4B4CTu7usc9WSYAAAQL7CHiT3MfVqAQIECgFPG9LEdcECBAgcA8BJ3f32GerJECAAIF9BLxJ7uNqVAIECJQCnreliGsCBAgQuIeAk7t77LNVEiBAgMA+At4k93E1KgECBEoBz9tSxDUBAgQI3EPAyd099tkqCRAgQGAfAW+S+7galQABAqWA520p4poAAQIE7iHg5O4e+2yVBAgQILCPgDfJfVyNSoAAgVLA87YUcU2AAAEC9xBwcnePfbZKAgQIENhHwJvkPq5GJUCAQCngeVuKuCZAgACBewg4ubvHPlslAQIECOwj4E1yH1ejEiBAoBTwvC1FXBMgQIDAPQSc3N1jn62SAAECBPYRmO5N8r9//vfX3//ug/GxUf/9+6///fPfx6bfeeJLbtnOZoa/psB0z9trboNVESBAgMDhAk7uDic3IQECBAhcSGC2N8lLngJd4ODua19WTh8n3rJ///6r+ufCR6wXeq6ddSmzPW/P6qguAgQIEJhNwMndbDumXgIECBA4k8Bkb5JvnAL9+8//dj10eX38+Q/ufp5wNX0n3rKvZf39739//vP4p/fZT8Kz+Y8rkHFWgcmet2dlVBcBAgQITCfg5G66LVMwAQIECJxIYK43yXdOgXb+C6mvH7+93vMkn6PvA65//vlf88/cTbxly8Hd08jP7uez+U8XpMN5BOZ63p7HTSUECBAgMLuAk7vZd1D9BAgQIPBJgd3eJP/795+//3n876MbTFuIJj4FWt/jXQ9u/vvn77//ffwv0BtMay7iZ/1fe9P4M3cTb5mDu+Z+C74jsNvz9p2i9CVAgAABArsLOLnbndgEBAgQIHBhgR3eJP/779+/v/6lZw+OjNpp/30d5f3vfz//7WL/+zv//zb8PAX6zmgm/PjxNfWvzn99d/7q9Mc/y/HSct70K/3XkVNv9u8PwR/VfS9xZfzGR6bu+5X058Fdv4Bf5X6vJ9GsxX/8WKr7tbxGUUtoMK3u/9VxGf17iOr/OuQr+ve/P2bcsgcHd7X5gpg+az/Z1/Z0Lb9WFrmMwA7P28vYWAgBAgQIXFnAyd2Vd9faCBAgQGBvgU3fJNNhXO/Pea2nfZ27/f3Pv/999/7v6+wk/f/Ifp8C/f2V8Tsh/98i/PfP/756/+z837/pj/z9eTz287zs77///p7r619j9s3cnf3nKdj35Et5//37z68/zlaNX27b9ylNq+8fPXsFrK1uLR4V/Pfv99nlo9O7wbQY9qvxtapf436vsDy5m3jLegd3HfM/9vPLqLen1cHtH7ouLiiw6fP2gj6WRIAAAQJXFXByd9WdtS4CBAgQOEJgozfJ9cO4PxYxmParzx+nJ9/neL/OieqMfIr06+6v/24cp3yfCfaOF7//NNzvc8Pe8MWfm/s1a/x3p29VWXRaTnV+FbA2xFo8D/N1xPb9pyDjlK24G5eDaT/z/5z76+pXtb8GnHfLvra0/OfXZ+/Pdf9a6/Lf3f38SvnjI13+ics/x3J1QYGNnrcXlLEkAgQIELi2gJO7a++v1REgQIDAvgLvv0kuxz3xB+HWyh1My93/OCL5OvL4dXbyO+n3QUj7/ndmdZzyu9fvkapWnr3foRr/j7F6fbs9ywLq1S8HQa34HxUsF4PHcoNp30dQeeavaouTu/aW/PZo3/+utoL53auxtF+hUqz8I4C/8h6fmC3Ttf9PZZ8p+/eMSytX6E/clTo3uH7/eXsDJEskQIAAgQsKOLm74KZaEgECBAgcJvDmm+Tv87huxYNpP77+lWD//P31N2J//tvq4myofXLzdRDy63jm++jor++/bPtnLeUpUHF68jt5bfY8y+/saJXjx42vRrdv2XOtgJ/jfP27A+Mv6P6cZXXVf1TxffFzE4K0zhhPq0+vvgv5Y+xZt6z+k3GF1Kp5uZ9f/Tp7+ujPahbTuryAwJvP2wsIWAIBAgQI3FPAyd09992qCRAgQGAbgQ3eJONPaf36t761K3uQ9t8/f//vr/99/Zvn/v13+bNO6V+iVv4lw58zlGdDP/8y7p9/OK88Tvk6d/njhOlrsN7sXx1+HQ82llaO/0dKt2/u2Svg54jN1S1nQ1//jyB/rjpX8fP/H6I+9stJX3+l9msLGqeDf6b9PNgq/y7p93V2LTdnGaWMNheVYb66HbplQ38UbrDs3kf68R/8q9wFphfY4Hk7vYEFECBAgMAdBZzc3XHXrZkAAQIEthLY6E3y1/+/Qfo/PG1VuJbWOJr5I1Se93yP/UdGmu0rOY6QqqQq0DwYylnlOVKaqtk33+/0TVOk5q/OjdBy64/V/cr+eZoWq/4Z/3m+9P3/6ZFSy+Zg2q9Bl78W++ffJP3va4zEvvw93uq8c21Vf/StkqpAkz1nddibff8U6fbOqb2yczlJ7vcWNRLy2NqXFNjoeXtJG4siQIAAgSsLOLm78u5aGwECBAjsLbDlm+SvP1X399gfvvud9nWI8ecpz1fk9/Hb1wnJ76uFZP3g4yv712hVVhVYTnJ+5f8e+/d8ebxyOxrD/ZGy3jf1/Gr2Chga8c+ZBv/83GBaKuCr1qLYn3e/Cvh9LvV1lS6/c9KS04hfzVx8lVUF9t2yJ/4Oa6fsr6K7e9pYVYHi8oICWz5vL8hjSQQIECBwWQEnd5fdWgsjQIAAgQMEtn6T/PpTdX+eWDQX8Wfa9zHPz4O8r38v2PLvuYtjoK/bX//iu7///e/r/w12yfh9LPTfP3//vPN9639ff8Ts16TfXb8vv7s2/97lg9m/+3ydQv08j/z+F5f9Opssx/8176///jqfafbNBzfdAtZWtxb/nvnfb5JfRaz+92Da7/7fy/mt+/vGz7/SGodV3y5zbtnXn7j7+jz98c+y0p558Uno7unXaEX+H5QuLiuw9fP2slAWRoAAAQIXE3Byd7ENtRwCBAgQOFTgHG+SP/+03ve/rO3r/4Qhn2v9+gNZ3/8muOXfpvZ1svJb6d9/fv7fWXydkZX/Fw7/fh+d/fX158T+W/uLkt3Zv+f5PffXGWL+K8F/jv+7qN+tZt8/FvijV8Da6tbivyfevPV92PRPkv9jhnyq95X597/Lvz1wsi37PnL7rjn9x89D5K558Uno7em3W5H/h6WLqwqc43l7VV3rIkCAAIHzCji5O+/eqIwAAQIEzi/gTfL8e6RCAgSuIeB5e419tAoCBAgQeFbAyd2zYvIJECBAgMBvAW+Svy20CBAgsKeA5+2eusYmQIAAgfMKOLk7796ojAABAgTOL+BN8vx7pEICBK4h4Hl7jX20CgIECBB4VsDJ3bNi8gkQIECAwG8Bb5K/LbQIECCwp4Dn7Z66xiZAgACB8wo4uTvv3qiMAAECBM4v4E3y/HukQgIEriHgeXuNfbQKAgQIEHhWwMnds2LyCRAgQIDAbwFvkr8ttAgQILCngOftnrrGJkCAAIHzCji5O+/eqIwAAQIEzi/gTfL8e6RCAgSuIeB5e419tAoCBAgQeFbAyd2zYvIJECBAgMBvAW+Svy20CBAgsKeA5+2eusYmQIAAgfMKOLk7796ojAABAgTOL+BN8vx7pEICBK4h4Hl7jX20CgIECBB4VsDJ3bNi8gkQIECAwG8Bb5K/LbQIECCwp4Dn7Z66xiZAgACB8wo4uTvv3qiMAAECBM4v4E3y/HukQgIEriHgeXuNfbQKAgQIEHhWwMnds2LyCRAgQIDAbwFvkr8ttAgQILCngOftnrrGJkCAAIHzCji5O+/eqIwAAQIEzi/gTfL8e6RCAgSuIeB5e419tAoCBAgQeFbAyd2zYvIJECBAgMBvAW+Svy20CBAgsKeA5+2eusYmQIAAgfMKOLk7796ojAABAgTOL+BN8vx7pEICBK4h4Hl7jX20CgIECBB4VsDJ3bNi8gkQIECAwG8Bb5K/LbQIECCwp4Dn7Z66xiZAgACB8wo4uTvv3qiMAAECBM4v8Jd/CBAgQOAogfP/UlAhAQIECBDYXMDJ3eakBiRAgACBGwn4MyA32mxLJUDgowKetx/lNzkBAgQIfEzAyd3H6E1MgAABAhcQ8CZ5gU20BAIEphDwvJ1imxRJgAABApsLOLnbnNSABAgQIHAjAW+SN9psSyVA4KMCnrcf5Tc5AQIECHxMwMndx+hNTIAAAQIXEPAmeYFNtAQCBKYQ8LydYpsUSYAAAQKbCzi525zUgAQIECBwIwFvkjfabEslQOCjAp63H+U3OQECBAh8TMDJ3cfoTUyAAAECFxDwJnmBTbQEAgSmEPC8nWKbFEmAAAECmws4uduc1IAECBAgcCMBb5I32mxLJUDgowKetx/lNzkBAgQIfEzAyd3H6E1MgAABAhcQ8CZ5gU20BAIEphDwvJ1imxRJgAABApsLOLnbnNSABAgQIHAjAW+SN9psSyVA4KMCnrcf5Tc5AQIECHxMwMndx+hNTIAAAQIXEPAmeYFNtAQCBKYQ8LydYpsUSYAAAQKbCzi525zUgAQIECBwIwFvkjfabEslQOCjAp63H+U3OQECBAh8TMDJ3cfoTUyAAAECFxDwJnmBTbQEAgSmEPC8nWKbFEmAAAECmws4uduc1IAECBAgcCMBb5I32mxLJUDgowKetx/lNzkBAgQIfEzAyd3H6E1MgAABAhcQ8CZ5gU20BAIEphDwvJ1imxRJgAABApsLOLnbnNSABAgQIHAjAW+SN9psSyVA4KMCnrcf5Tc5AQIECHxMwMndx+hNTIAAAQIXEPAmeYFNtAQCBKYQ8LydYpsUSYAAAQKbCzi525zUgAQIECBwIwFvkjfabEsl8H/2zm3bchNXoP3/P11n9HGXokggY5aRucw8JFjoOgV4m+xKIPApAc7bT/ETHAIQgAAEPiPAzd1n6AkMAQhAAAIbEOBLcoMmUgIEILAEAc7bJdpEkhCAAAQg8DoBbu5eR4pDCEAAAhA4iABfkgc1m1IhAIFPCXDefoqf4BCAAAQg8BkBbu4+Q09gCEAAAhDYgABfkhs0kRIgAIElCHDeLtEmkoQABCAAgdcJcHP3OlIcQgACEIDAQQT4kjyo2ZQKAQh8SoDz9lP8BIcABCAAgc8IcHP3GXoCQwACEIDABgT4ktygiZQAAQgsQYDzdok2kSQEIAABCLxOgJu715HiEAIQgAAEDiLAl+RBzaZUCEDgUwKct5/iJzgEIAABCHxGgJu7z9ATGAIQgAAENiDAl+QGTaQECEBgCQKct0u0iSQhAAEIQOB1AtzcvY4UhxCAAAQgcBABviQPajalQgACnxLgvP0UP8EhAAEIQOAzAtzcfYaewBCAAAQgsAEBviQ3aCIlQAACSxDgvF2iTSQJAQhAAAKvE+Dm7nWkOIQABCAAgYMI8CV5ULMpFQIQ+JQA5+2n+AkOAQhAAAKfEeDm7jP0BIYABCAAgQ0I8CW5QRMpAQIQWIIA5+0SbSJJCEAAAhB4nQA3d68jxSEEIAABCBxEgC/Jg5pNqRCAwKcEOG8/xU9wCEAAAhD4jAA3d5+hJzAEIAABCGxAgC/JDZpICRCAwBIEOG+XaBNJQgACEIDA6wS4uXsdKQ4hAAEIQOAgAnxJHtRsSoUABD4lwHn7KX6CQwACEIDAZwS4ufsMPYEhAAEIQGADAnxJbtBESoAABJYgwHm7RJtIEgIQgAAEXifAzd3rSHEIAQhAAAIHEeBL8qBmUyoEIPApAc7bT/ETHAIQgAAEPiPAzd1n6AkMAQhAAAIbEOBLcoMmUgIEILAEAc7bJdpEkhCAAAQg8DoBbu5eR4pDCEAAAhA4iABfkgc1m1IhAIFPCXDefoqf4BCAAAQg8BkBbu4+Q09gCEAAAhDYgABfkhs0kRIgAIElCHDeLtEmkoQABCAAgdcJcHP3OlIcQgACEIDAQQT4kjyo2ZQKAQh8SoDz9lP8BIcABCAAgc8IcHP3GXoCQwACEIDABgT4ktygiZQAAQgsQYDzdok2kSQEIAABCLxOgJu715HiEAIQgAAEDiLwH/6CAAQgAIEsAge9XSgVAhCAAAQg8JcAN3d/SfBPCEAAAhCAwHMC/A7Ic2ZYQAACEOghwHnbQw0bCEAAAhBYnwA3d+v3kAogAAEIQOA7AnxJfseeyBCAwFkEOG/P6jfVQgACEIDAXwLc3P0lwT8hAAEIQAACzwnwJfmcGRYQgAAEeghw3vZQwwYCEIAABNYnwM3d+j2kAghAAAIQ+I4AX5LfsScyBCBwFgHO27P6TbUQgAAEIPCXADd3f0nwTwhAAAIQgMBzAnxJPmeGBQQgAIEeApy3PdSwgQAEIACB9Qlwc7d+D6kAAhCAAAS+I8CX5HfsiQwBCJxFgPP2rH5TLQQgAAEI/CXAzd1fEvwTAhCAAAQg8JwAX5LPmWEBAQhAoIcA520PNWwgAAEIQGB9Atzcrd9DKoAABCAAge8I8CX5HXsiQwACZxHgvD2r31QLAQhAAAJ/CXBz95cE/4QABCAAAQg8J8CX5HNmWEAAAhDoIcB520MNGwhAAAIQWJ8AN3fr95AKIAABCEDgOwJ8SX7HnsgQgMBZBDhvz+o31UIAAhCAwF8C3Nz9JcE/IQABCEAAAs8J8CX5nBkWEIAABHoIcN72UMMGAhCAAATWJ8DN3fo9pAIIQAACEPiOAF+S37EnMgQgcBYBztuz+k21EIAABCDwlwA3d39J8E8IQAACEIDAcwJ8ST5nhgUEIACBHgKctz3UsIEABCAAgfUJcHO3fg+pAAIQgAAEviPAl+R37IkMAQicRYDz9qx+Uy0EIAABCPwlwM3dXxL8EwIQgAAEIPCcAF+Sz5ktZrFHi/eoYrGls3K6cy6YObNauc/kDgEIQAACaxDg5m6NPpElBCAAAQjMSWCtL8n//P9fc5IcmtUvbWq0nZxtYxV9XRjqvC8lrDyBR0t0zp7OmZVHjQQCEIAABCDwLgFu7t7liTcIQAACEDiLQN+XZJ/VK2RHh75uB8zfX8m828nokiWxtEASMWfQUleLzrhszXozV1TF2Y6EO0xMybGHYp7Gw4+PcQI/Ok8wXz3/BESEgAAEIACBLQlwc7dlWykKAhCAAASSCPR9SfZZvVJSQmgfwkteqaXRSVr0tECNhb+l1lJXi85b+QR+aml4uZcEbq+pDhPjM/bgZ73EOHz6+LrDpwn8qL96/j+WjzkEIAABCBxLgJu7Y1tP4RCAAAQg8AKBvi/JPqs/f/7oXyaS39AxZYi8GOUSBjpvhfBZeYmkoackAZnVhbQLxac2F4a3wmIg8XkNjI7xWdQxHloeJUqLstER2yA3zcSoaXM9NlEuD174SCL+H1kZZZO/zHp5UaJz0AoiNwPxLwOtIEJDONAxJvrxGge2V8KXglbWTrSO1hSdmn9R+Hagm/JtJkSHAAQgAAEIZBLg5i6TNrEgAAEIQGA3An1fkn1WFzv59haU2pseF+9T/Oe6MRErLa+NRVmSKUq8UDsszt4q6Ijeg8waP5e8Xdju2YP1tsW4kmptIJcpNYUWeS20T9trekkxYqNa0fZi5ZOpKdfktRxELgPjwciLmRgd46Gl3bEHPavHEsgI/aNIdP4iFMji0OcsU9pKhJ8P5szqcywkAAEIQAAC2xPg5m77FlMgBCAAAQgMJND+JXl9Sxf//ig//U1uDIvJGKF5vDwYYUKIOHOTj79fuFUQ/16zVrKYmEHRQ7tQeytaaYVx41poL2+RFPP0hkW1ocJaDnrfFROoGWrlFp1Yv9FDUe1WqBVaxpKqVo6FMvvVoJjqV8kQFwIQgAAEIJBGgJu7NNQEggAEIACBDQn0fUn2WV34Alt9PaHHmnvR3AjNozHXnmVsdPTjNTY+xVAG2sQo+5s7I/H64q02ZeTmUcxNIJEX9b1QqpOBeEge+NyuBLy8RVJM3hsW1YYKazmIXAY+DenRNSgqeKGWGA8+lpdocxkX1W6FWqFl3BFOTL4a6Lq+yoG4EIAABCAAgXwC3NzlMyciBCAAAQjsQ6DvS7LP6qIW2AZTQryoY4TmUWxr11haoaajfepxsahbBRPF60tKLVOBjgkUuzV+zGPNlfgcOvDJXOG8vEVSTNUbFtWGCms5eLmXmMS8gpdoEz/bItEerrG2qo3FqqbQIi86iYUy+9VA1/VVDsSFAAQgAAEI5BPg5i6fOREhAAEIQGAfAn1fkn1WF7XANpgS4kUdIzSPYtt491Q010I9LhZ1q6CtvHJjwmIoA20o4+Jsi9DreIlEGT2ohfbyFkkxW29YVBsqrOXg5V5iEvMKXqJN/GyLRHvw+0t70GOx0sKn46KTWCizXw10jV/lQFwIQAACEIBAPgFu7vKZExECEIAABPYh0Pcl2Wd1UYtt/ayR+D8JaBT89YHp1q3+U4XulK5APtxtwqLgQ8uUDGr+jdy7ulWQEPHg8my8xSZ+tmbu5bcSr3C7Znw+XvJtmb6oW4lR8I9G4ikZBfP4VF+bB2M95UNIX4yayL8dzJnVt0yIDgEIQAACJxDg5u6ELlMjBCAAAQiMIpD8JSm3GzLwhcnUNdAKItE6WuH6ktezxQIDBTN1PZoQJoo8XmriQay8RE/JuDYolnAp19KTlCR0UVPPiolO41ZBK9fG4qSmEMjFVg9EX4SB5JoSzRrMmlw83w4kxK2mVxBbPRA1LdRjUZDe1WZFM1Yws9ej2F4Do6Nn9ZSMtYLJU08Z/etRRxRbGWgdcSV+9EBmPx/8vsw+L4EEIAABCEAAAh0EuLnrgIYJBCAAAQhA4H8E+JL8dim08G/R+baKDaIDeYMmzl8Cy2z+HpEhBCAAAQiMIMDN3Qiq+IQABCAAgVMI8CX5Yafb4bdrfljOuqHBu27v1sqclbZWv8gWAhCAAATeIsDN3Vsk8QMBCEAAAicS4Esyv+v6z/HBP58/ESHwFQH2+1fkiQsBCEAAAt8S4ObuW/5EhwAEIACBtQnwJbl2/8geAhBYhwDn7Tq9IlMIQAACEHiTADd3b9LEFwQgAAEInEaAL8nTOk69EIDAVwQ4b78iT1wIQAACEPiWADd33/InOgQgAAEIrE2AL8m1+0f2EIDAOgQ4b9fpFZlCAAIQgMCbBLi5e5MmviAAAQhA4DQCfEme1nHqhQAEviLAefsVeeJCAAIQgMC3BLi5+5Y/0SEAAQhAYG0CfEmu3T+yhwAE1iHAebtOr8gUAhCAAATeJMDN3Zs08RTJWiEAACAASURBVAUBCEAAAqcR4EvytI5TLwQg8BUBztt88ub/5c0jBCAAAQiMIxAc8tzcBXCYggAEIAABCNwQ4EvyBhDTEIAABF4iwHn7EsgHbmD+ABaqEIAABH4gEJ+33Nz9gBZTCEAAAhA4nkD8lj0eDwAgAAEIvEaA8/Y1lM2OYN6MCkUIQAACPxGIz1tu7n6CizEEIAABCBxOIH7LHg6H8iEAAQi8SIDz9kWYja5g3ggKNQhAAAI/EojPW27ufsSLOQQgAAEIHE0gfssejYbiIQABCLxKgPP2VZxNzmDehAklCEAAAj8TiM9bbu5+BowDCEAAAhA4mED8lj0YTFLpe/BfooolkkxadoRpIDBiwYzw2VDK0SowP7r9FA8BCCQSiM9bbu4SW0EoCEAAAhDYjkD8lp2/3Ot/j/VtnrcMgyRvbb8trTH6ElUMTXKo88YuoHZLINiJ3nZET0f49Jkj0QRgrmkwhgAEIDCOQHzecnM3jjyeIQABCEBgfwLxW7ZWf59VzduP8o5kOkxqSTa6alSrRSnKR/gsBkLYgrpFZxzJ607K/F3CGbk8ikLj4PcaYw+SmB405taoFifQ6KRb7dvo3WkvbQjzpdtH8hCAwEIE4vOWm7uFWkmqEIAABCAwHYH4LVtLt8+q5u1HeUcyHSa1JBtdNarVohTlI3wWAyFsQd2ik0CyloaXe8lteh0mxmfswc96iXH49PF1h48S+Db6o1S3UYb5Nq2kEAhAYHIC8XnLzd3k7SM9CEAAAhCYmkD8lq2l3m1lDK/frJEo8hj/xo2ZNT4vb0bHhNCz11gUYnOj9ufPn2L0Sy5RvJpM1cxjD9pcj4vpiYKevYQ+itbxsyZb8WzksRMz2/IogVqUjY7YFpO85aDN9dhE8S32CrcS8X+rGSgUyyym5zUlgWtKK+gpPfaZ1Ga1XI+1Bx2xmLNfk2J++RSFSy5CrSY6fjaeEifdA1Ngtx8M2wnAvJ0VmhCAAAR+IRCft9zc/cIWWwhAAAIQOJ1A/Jat0emzur6KjU/jyn9LewXtwev7KMaDV9AO/aw3F/3alJEXk7ycGM2a56KHmm3gRKauMo2H20ejIN5q8kcwxZsfXOUHUbyJl9TMPVuv6SXevy+2qBMIR5d5ha7VYuQeS0uB3omp1ygEs0VNI/SPItH5i7Bl2UtK2kqEPw5G+Pwxpe3NYb59iykQAhCYhEB83nJzN0mbSAMCEIAABJYkEL9ldUlyreAHWi0e+3BGYh4vbyKUgY5SFMYKgUlxqiisXWQUlYvCmodAHtelZ/3Y5GAeTVA/axS0/6KyVpBxu6aYvDWohfbyFkkxK29YVBsqrOWgt20xgZqhVm7RifUbPRTVboVaoWUsqWrlWCizfYNioD5XWDUSgHkjKNQgAAEI/EggPm+5ufsRL+YQgAAEIHA0gfgtW0PTZ1W8+jGuzOOVgAhloBPzQn1JcY21fjENUfC2RQ8mMTGvOfdJBh5kSiejQ4iCF2qJNvdV+JS0RI+1z+I4UI5zKHobJKwl6eUtkmKS3rCoNlRYy0HkMvBpmGYVFbxQS4wHH8tLtLmMi2q3Qq3QMu4IJyZ9A51VnwesnhKA+VNi6EMAAhDoIxCft9zc9VHFCgIQgAAEIPBfAvFbtsaoz6oYzrgyj1cCIpSBTswIzWNL0MCbnvJjH6sYriYM5C2xitHF0M8aiXk0yfhZ8ewHNWUv9xLvbZCkFtrLWyTFJL1hUW2osJaDl3uJScwreIk28bMtEu3hGmur2lisagot8qKTWCizfQOdVZ8HrJ4SOJn5ybU/XSfoQwACvxOIzxxu7n4njAcIQAACEDiXQPyWrXHpszJ3Q5dz48o8Gp141ihL8t7KSwJlmfKDop92YRGIj3JJvFsv0bZ+1kjMo0nGz2rnZlxT9nIvMa7GPdZCe3mLpJinNyyqDRXWcvByLzGJeQUv0SZ+tkWiPZhFaB69t0BBK9fGElorxEKZ7RsUA/W5wqqRwMnMT669cXmgBgEIvEggPnO4uXsRNa4gAAEIQOA4AvFbtoajz8p8Zl+PxtXtH+rs0DcmxTR0pbf6sXLRv/d5OWmXe00juX2MFYpp60q9gswazzW5b65oxgP5M5ixWjzbmGSxTGNrHq+4RWGckpn9tkyf/63EKPhHI/FsjYJ5fKqvzYOxnvIhpClGTeS/DEb4/CWfE2zbmcsG1IMRiNpTGhH98jlDDuOqwzMEIPAJgfhg4ebuk6YQFAIQgAAENiEQv2VHFGk+iq5HCXTlY3Rk9hqYWePh+hQXHXmMnQSzMaLarCSgK5IoelbGMis5y1RjFO3BOJHHS0c8i4mXiElxys9eauLQBCpyMMq1x1oCNX0tF1s9EAURBpJrSjSDXoiTvoGE6DAXWz0QP1qox6JQ7KaelXHN/FIws9ej2BZ19Kw2l7FWMHnqKaOvQ8vYDOSx6OeaLepo/Ufj2uJ55ATlRwQeMffKXvIoelF5hM9ioEA4Qw5BekxBAAIrEogPFm7uVuwpOUMAAhCAwCwE4rdsfpaz5XNLYLmEbytCoY8AK6GP21FWLJL8dj9iXlQ2wtsrXaOgzfWUHmssl/ySiI4o6FmtIwrB7bbWF88y0B4YQwACEOggoI87b87NnWeCBAIQgAAEINBKIH7Ltnp5T2+2fFoqWzHnlrrQaSfAGmhndbIm6yS/+4+YF5W1UI+vOzJTkVcwkqJV0Yk2rI0vQz2rXdXkLTloP4whAAEItBAIzpz/HjstLtCBAAQgAAEIQKBIIH7LFk3GCfmX/+PY4hkCEPicwFTn7ec0chJ4xLyoLEIZ6MyN0DxqTRnf6vhfrBPb4qVbzWFNXnSiQzCGAAQg0EEgOHO4uevgiQkEIAABCEDgHwLxW/YfPUYQgAAEIPAbAc7b3/j1WD9iXlQWofy7JTMwacWzLbdmEtF4vh79rJfUNMVhzUQUGEAAAhB4SiA+WPidu6c80YcABCAAAQj8QyB+y/6jxwgCEIAABH4jwHn7G78e60fMi8oilMGjPLyVlxiHsYKf9ZLLYU3ecntoUuIRAhCAwC2B4Mzhd+5u6aEAAQhAAAIQiAjEb9nIkjkIQAACEHhCgPP2Ca13dB8xLyqLUAaPMvNWXmIcxgp+1ksuhzU5N3cGOI8QgMArBIIzh5u7VwjjBAIQgAAEziUQv2XP5ULlEIAABN4mwHn7NtF7f4+Ye2UjMY/+CuxWoc9E12lCBP9RPKMZO9GzjCEAAQh0EAjOHG7uOnhiAgEIQAACEPiHQPyW/UePEQQgAAEI/Ebg6Xmr/4tpv0U+17qduaYtYw9Opq6BUTCzteharcODMTeZ6FkZmyjXBWIw6/WRQAACEIgJ1E68y4r/zl1Mj1kIQAACEIBARCB+y0aWzEEAAhCAwBMCLeetXKZcA7lheRIH3X8ItDD/R5sRBCAAAQj0EojPW27uerliBwEIQAACEPjzJ37LQggCEIAABN4iUDtv/W2djliz0jqMawSgVyODHAIQgMC7BOLzlpu7d2njDQIQgAAEziIQv2XPYkG1EIAABEYS0OdtfFuns9BWWs64hQD0WiihAwEIQOB3AvF5y83d74TxAAEIQAAC5xKI37LncqFyCEAAAm8TMLd1jcdvo9rbyW7iD3qbNJIyIACB6QnE5y03d9M3kAQhAAEIQGBiAvFbduLESQ0CEIDASgTk2u5p0pzST4lpfehpGowhAAEIjCMQn7fc3I0jj2cIQAACENifQPyWHVf/V3EfVbREko8qQhkCEPiQQMfl3WXyYc6rh+YYX72D5A8BCKxCID5vublbpY/kCQEIQAACMxKI37LjMv4q7qOK0pIsBioKH+X/i3LOfYFcZHxb7C+gsIVAOwFZ5+37S0zao6CpCQBQ02AMAQhAYByB+Lzl5m4ceTxDAAIQgMD+BOK3bK3+Pquat0a53PIY/ZrcqE37GMAMphLKyYyeGSsBHSEgUCSg13njwSVqelB0jrBIQDMvKiCEAAQgAIFXCMTnLTd3r0DGCQQgAAEIHEogfsvWoPRZ1by1y69vV6NfFBqdmR8DmMFUQkWZ0TNjJaAjBASKBPw6vz2+aib6Iu/WSTGZQ4Qe4CGFUyYEIACBZALxecvNXXI7CAcBCEAAAlsRiN+ytVL7rP78+aO/NgPnonaZiOYVV0f3kiCKdqt9mu9eUdOBjH4Q5dIUJ6IpHsygGEWcGOWnjzqNDltJ3iASV+K/VsWtwuWqZn6bgJhLIMlNbGVQq0KbMIbAOALFdV5cupJD0URmr4F4MAOjduZjC8AzyVA1BCAAgXcJxOctN3fv0sYbBCAAAQicRSB+y9ZY9FlpbzUPRm6uWq5ZrVOTSCytfN3gyJQMjE6L3JgEj6YEcX4NjKGZrSXs1WoS+ZKvKQRyn7nJNn70yRt9Hbo2ZeTm8fJghP7RS3RoxhBII2CWoo7rt5vcOGu1xrFsfDNoNN9JLWC+U5nUAgEIQOBzAvF5y83d5w0iAQhAAAIQWJhA/JbVhZkvQP2o1RrHtbg1+eVWZq+BefRXRcaq5VHnL/61sBhFa+pxMaL25pX1bDGWURj3WMxNhDLQCWihHotOUVgrs6hcFIp/78rre4k2ZwyBcQRu1951rkoCt/qieTvQJ7Ye3xqurvAiw9VRkD8EIACBoQTi85abu6HwcQ4BCEAAApsTiN+yteL7rLS3wIP+qjRq8ngNzKO/tbkiilrLY0uSxqGJG89q/8bQTBWzLeoMEvpCdMLxrNbU6RWtAmWzGK5H7fCyNWpawUf0Eq3PGALjCLSsPVnMtX3xVnoSyAze8j+Jnxbmk6RKGhCAAASWJhCft9zcLd1ckocABCAAgY8JxG/ZWnJ9VtpbuweteTvWChLOC0UiA1HWg9qsl2uJHl/evESiBFO3tuJk0KCYmwhloKNroR6LTlFYu6GoKYu3oqGxMo9FE+2QMQTGEfCrsRZLbtNqCoPkEtcMBoVLcNvOPCEZQkAAAhDYmEB83nJzt3HrKQ0CEIAABIYTiN+ytfB9VtpbuwetqcdFb0UFLxSJDLQ3GddmvVxL9Phy5SW3IdoVRPP1QTFtEcpAx9VCPRadorB2m1ZTFm9FQ2NlHosm2iFjCIwj4FdjEOu6OwsUcqbMFZ485kT/Pcoj5r+HwwMEIACBYwnE5y03d8cuDAqHAAQgAIEXCMRv2VqAPivtrebBy7VEj2vejI55FKuWr+LAVvxcA6OpH28DaeXYrZltefzlM9tnblKNH/0dmdHX+demvNxI/KOX6EA+KzPLIwTGETCLc1ygoZ7lVDGDoUG7ne/BvLt8DCEAAQikEYjPW27u0hpBIAhAAAIQ2JBA/JZ9vWDzpVe8GzI6koPIRXINvFwkQXWXjnFlHBb9iFBsveS6HpIQQRrxRVJsKAkEg2Jugb5M6eQDJzJVSzVW0LMylhyugcivgZnVqK8ctJrYipWXyBQDCIwmUNsmo+OO9i/bygxGx23xvyvzltrRgQAEIJBJID5vubnL7AWxIAABCEBgNwLxW3a3aj+qJ4YczAZTH5VCWAhAoJ/AOTvaXOHJYz+7XstzmPcSwg4CEIDAOwTi85abu3co4wUCEIAABM4kEL9lz2TybtXXJ2vss9iFojD2wywEIDAzgcM3tdzfmcHQlh3OfChbnEMAAhDQBOLzlps7zYrxzgTMTzk8QmBpAjvv1dVqi9+yq1UzS756e86SE3lAAAJfE+C8NR3QR6UeG7VfHmH+Cz1sIQABCLQTiM9bbu7aSaK5NoF4J6xdG9kfRoDFPFXDacdU7SAZCEBgYwKct7fN1fd3enxrWFOAeY0McghAAALvEojPW27u3qWNt3kJxDth3rzJDAKOAIvZIflSQDu+pE9sCEDgJAKctx3d1vd3etzoCuaNoFCDAAQg8COB+Lzl5u5HvJgvQyDeCcuUQaIQ+POHxTzVKqAdU7WDZCAAgY0JcN6+0lx9f6fHRecwL2JBCAEIQOB1AvF5y83d68BxOCmBeCdMmjRpQaBEgMVcovKZjHZ8hp7AEIDAYQQ4b8c1XF/hmfG4oHiGAAQgAAEhEL/juLkTUAw2JxDvhM2Lp7y9CLCY3+2n+UTRjy2BaEcLJXQgAAEI/E6A8/Z3hu0e5G3YboImBCAAAQh0E4jfcdzcdYPFcDEC8U5YrBjSPZsAi/nd/hd5yhdLPPjDH15+txl4gwAEIFAnUDyu6+rMvEAgfgkyCwEIQAACLxIITm1u7gI4TG1FgJ/2tmrn2cWwmN/t//W6feTTvKEf2aIMAQhAAAJ9BHj99XH7xQrmv9DDFgIQgEA7gfi85eaunSSaaxOId8LatZH9YQRYzK83vA+p3N+9ng8OIQABCEDAE+g7q70fJO0EYN7OCk0IQAACvxCIz1tu7n5hi+1KBOKdsFIl5Ho8ARbz60vgKVL9a3pPbV9PHocQgAAEDiHAeZvfaJjnMyciBCBwJoH4vOXm7sxVcWLV8U44kQg1L0uAxfx66/RN3K1zo0w7bomhAAEIQOAVApy3r2B85ATmj3ChDAEIQKCbQHzecnPXDRbDxQjEO2GxYkj3bAIs5hH9b6Rqru0+/D9UNCY8gtVUPuEwVTtIBgJDCbDfh+ItOod5EQtCCEAAAq8TiM9bbu5eB47DSQnEO2HSpEkLAiUCLOYSlX7ZdRnnr+SMx5rCV+34Kq7BMuixRtuHS+NQDFQU+iQHSdop/ZLAFSUn1i95YnsCgW933AmEfY0w90yQQAACEBhBID5vubkbwRyfMxKId8KMGZMTBCoEWMwVMA/E+jJCeMrAOwquLQIr70ckfVZi3j0whdfSqMkl7q2CaHYPEkK05xYkE0y1++/WzIyeGasbCIZ7E2AR5vcX5vnMiQgBCJxJID5vubk7c1WcWHW8E04kQs3LEmAxd7fO3FsZPzWwwbVd95+WrcUyKY17vBKopVGTSz63CqLZPUgI0Z5bkEww1e6/WzMzemasbiAY7k2ARZjfX5jnMyciBCBwJoH4vOXm7sxVcWLV8U44kQg1L0uAxfyodfFtnXblb+i8ROtf47529FldF4VSkU9GUtI6PpaW6LHxL060jhbqsU/m0awOIVXIQFxJFJF4Q6lCBpey2MpAnIimTJlBMcqlE0wZJ7VHnUZNpya/oouHYjLxrNR+qdUCXWq12dsQQRSJ2+KklgDyQwgUV/ghtX9VJsy/Ik9cCEDgNALxecvN3Wnr4dx6452wIpf9KlqxC5/kTOtbsPfdAmi2cqEQh9Mmsaae7bNq8WA8F6vQOnos/otCmY0vcS414+H20SjoEH6qJRNfuPGjH71ySwjR0a5E2D64ovc58ZkbP/Gj5nwlbPR1FbUpIzePRbdG57YKnQbjkwmYlXMyirTaYZ6GmkAQgMDhBOLzlpu7w5fHQeXHO2FFEPtVtGIXPsmZ1tewyw2IvwiomRi5sG33ICbGlX806elHr3wrqcWtybVDraPHolMUyqy/7tFTxbF2qMei7IWXxMvF5BrUFLxcS/Q49tNSrPdmkhz3WAwtQhnoBLRQj0WnKKxxKCoXheLfu/L6XqLNGR9LgIWR33qY5zMnIgQgcCaB+Lzl5u7MVXFi1fFOuIjoD2kZ58NqSTU/KyLOQ4AVonshW/Ua6KmOsXhrt+1rR5+VzirwIFUUmXjDFokO7W9ezOylUEvDh/Pm4qE4pYU1b16uJXp8efMSiRJM3dqKk0GDYm4ilIGOroV6LDpFYa3ppsvyKN6ugchloBV8RC/R+oyPJcDCyG89zPOZExECEDiTQHzecnN35qo4sep4Jxgij5SN7e+P30b/PX88jCbACpFrneItwI/8n+J9qn+l12elS2v3YDQFmh5oz7U7Gq1jfOqpornW12NjqB8vtVvlmoKXa4keX0G9RJIJpm5txcmgQTE3EcpAR9dCPRadorDY1ppQXF0D79BIzGOjWxOFxxMI+KVyQtXf1gjzb/kTHQIQOIdAfN5yc3fOSji90ngnGDpF5esr9/qikC9eY3g9ymzgR3sTJ9pQj0XhNrq4FRMvkSkGixIorqtFa3mUtt4U80Doy6TPSuNq92A0zWPxlsTr6NBFE63gzbVEj7WVGYuaDIzC9Vib9XIt0ePYz22xLQrFzF8R+kJ0PvGs1tTJFK2eKscOTQjzWIulfTI+k4BfKmdyyKwa5pm0iQUBCJxMID5vubk7eW2cVXu8EwyLmrK/BfOaRnL7aBTav1i84VWFl3uJqZfHtQic1lB9YTdhp/ra0Wely6958HIt0ePAm1Ezj/6YMgr+0Ut0dO/QSIy5tq1NebmR6Ed/tusQJpn2KaNZe5QVXlMI5D5zXZfP3My2KEh0b3tNebmR+EcvkSg1n0aBxzMJmJVzJoTkqmGeDJxwEIDAsQTi85abu2MXxnGFxzvB4Kgpe7mXBK6Kyl7oJcbn9VhT83IvKTpEuAqBExoqdxn+YmK2NiW3w5DxfLyCEJMpkVyDolyEtQJjBTN7Peq4WsGH0PpaUzxooYz9bCC5Lq0kkM9BbP31VuOUVgvGPv9AWU/p5AMnMlWrMVbQszLWaWiSl4KZNQryeKl5n17iHSI5k0BtDZ9JI6dqmOdwJgoEIACB+Lzl5o4VcgqBeCcYCjVlLy9K5KvDfMN4ZRP3evxRzZt7STEuwlUIbNxQvXdoxyoE9sgz3lbBbDC1BxmqgMA8BNhu+b2AeT5zIkIAAmcSiM9bbu7OXBUnVh3vBEOkpuzlRmIezW9q+FkT93r8Uc2be0kxLsJVCGzWUH1bt2JpK+a8ylJPy9P8W5Zi3GKji8KiOUIIQOB3Auy43xk+9QDzp8TQhwAEINBHID5vubnro4rVegTinWDqqSl7uZGYR27uDFgeXyHgl9krbjOdrH5bp1lt0A5dzjljvQjPqZpKIbA0Ac7b/PbBPJ85ESEAgTMJxOctN3dnrooTq453giFSU/ZyI/GPXnIb69bk8mDUxK2Rt/wuidgyWIKAafESOV9JbnlXsm47Flo5pAoBCEDA/NtQgOQQ4B2Xw5koEIAABOLzlps7VsgpBOKdcFHQ1woyFkAtEvkPb1/K8ihOROK91XS03JtLIK0mzq+qizpan/FaBFoW8zwV6dW4VuaNDLcsqrF21CAAAQhkEuC8zaR9xYJ5PnMiQgACZxKIz1tu7s5cFSdWHe+EE4lQ87IElljM+sJuWdJNiS/RjqZKUIIABCAwNwHO2/z+wDyfOREhAIEzCcTnLTd3Z66KE6uOd8KJRKh5WQLTLmZ9Wzdtkq+3/ZxKX0eHQwhAAAKPCHDePsL1ijLMX8GIEwhAAAK3BOLzlpu7W4AobEIg3gmbFEkZZxCYajGfeVunF9pU7dCJMYYABCCwGQHO2/yGwjyfOREhAIEzCcTnLTd3Z66KE6uOd8KJRKh5WQIzLGZ9YbcsyHcSn6Ed71SCFwhAAAJzE+C8ze8PzPOZExECEDiTQHzecnN35qo4sep4J5xIhJqXJfDVYta3dV/lMGHTQDFhU0gJAhDYkgDnbX5bYZ7PnIgQgMCZBOLzlpu7M1fFiVXHO+FEItS8LIHkxawv7JZlNjDx5HYMrATXEIAABOYmwHmb3x+Y5zMnIgQgcCaB+Lzl5u7MVXFi1fFOOJEINS9LIGEx69u6hHDLtuK/icNn6faRPAQgsBABztv8ZsE8nzkRIQCBMwnE5y03d2euihOrjnfCiUSoeVkCgxYzt3V9K2JQO/qSwQoCEIDAxgQ4b/ObC/N85kSEAATOJBCft9zcnbkqTqw63gknEqHmZQm8u5j1hd2ySL5M/N12fFkJsSEAAQjMTYDzNr8/MM9nTkQIQOBMAvF5y83dmavixKrjnXAiEWpelsDvi1nf1v3ubVmQ7yQOwHc44gUCEIDAHQHO2ztC78/D/H2meIQABCBQIhCft9zclZgh25FAvBN2rJiatiXQvZj1hd22dNIL625HeqYEhAAEILA2Ac7b/P7BPJ85ESEAgTMJxOctN3dnrooTq453wolEqHlZAo8Ws76te2S4LJ7sxKGaTZx4EIDAqQQ4b/M7D/N85kSEAATOJBCft9zcnbkqTqw63gknEqHmZQncLmZu6zJ7e9uOzGSIBQEIQGBjApy3+c2FeT5zIkIAAmcSiM9bbu7OXBUnVh3vhBOJUPOyBGqLWV/YLVvceonX2rFeJWQMAQhAYG4CnLf5/YF5PnMiQgACZxKIz1tu7s5cFSdWHe+EE4lQ87IE9GLWt3Vavmxx6yUO9vV6RsYQgMCaBDhv8/sG83zmRIQABM4kEJ+33NyduSpOrDreCScSoeZlCXBbN1XrOFumagfJQAACGxPgvM1vLszzmRMRAhA4k0B83nJzd+aqOLHqeCecSISalyVw3dwtm/5uiXO27NZR6oEABGYlwHmb3xmY5zMnIgQgcCaB+Lzl5u7MVXFi1fFOOJEINS9LgMU8Vetox1TtIBkIQGBjApy3+c01v+bPIwQgAAEIjCMQHPLc3AVwmNqKAD/tbdXOs4thMU/Vf9oxVTtIBgIQ2JgA521+c2Gez5yIEIDAmQTi85abuzNXxYlVxzvhRCLUvCwBFvNUraMdU7WDZCAAgY0JcN7mNxfm+cyJCAEInEkgPm+5uTtzVZxYdbwTTiRCzcsSYDFP1TraMVU7SAYCENiYAOdtfnNhns+ciBCAwJkE4vOWm7szV8WJVcc74UQi1LwsARbzVK2jHVO1g2QgAIGNCXDe5jcX5vnMiQgBCJxJID5vubk7c1WcWPW4/5AkniGQT+DEPTxrzfFbdtasyQsCEIDAegQ4b/N7BvN85kSEAATOJBCft9zcnbkqTqw63gknEqHmZQmwmKdqHe2Yqh0kAwEIbEyA8za/uTDPZ05ECEDgTALxecvN3Zmr4sSq451wIhFqXpYAi3mq1tGOqdpBMhCAwMYEOG/zmwvzfOZEhAAEziQQn7fc3J25Kk6sOt4JJxKh5mUJsJinah3tmKodJAMBCGxMgPM2v7kwz2dObj2TxgAAIABJREFURAhA4EwC8XnLzd2Zq+LEquOdcCIRal6WAIt5qtbRjqnaQTIQgMDGBDhv85sL83zmRIQABM4kEJ+33NyduSpOrDreCScSoeZlCbCYp2od7ZiqHSQDAQhsTIDzNr+5MM9nTkQIQOBMAvF5y83dmavixKrjnXAiEWpelgCLearW0Y6p2kEyEIDAxgQ4b/ObC/N85kSEAATOJBCft9zcnbkqTqw63gknEqHmZQmwmKdqHe2Yqh0kAwEIbEyA8za/uTDPZ05ECEDgTALxecvN3Zmr4sSq451wIhFqXpYAi3mq1tGOqdpBMhCAwMYEOG/zmwvzfOZEhAAEziQQn7fc3J25Kk6sOt4JJxKh5mUJsJinah3tmKodJNNIgHXbCGoPtW3avU0hC60rmH/brD34L1HFEkl+uxqJrgmMWDCxT27uNH/GOxOId8LOlVPbdgRYzFO19D/8BQEIQAACWQSmOv9PSGb1Hzmuhfltp24ZBkne2n5bWmP0JaoYmuRQ541dQO2WQLATve2InsY+ubnzXUCyJ4F4J+xZM1VtSoDFvGljDypLf+P/+fOHJZ3c+0c/mybnRrhBBKTpeveJcFBQ3G5AoO987rMahKsjmQ6TWvKNrhrValGK8hE+i4EQtqBu0RlH0p/8Op/irFZoTKzDxHiOPRTzNB5+fIwT+NH5rXkcnZu7W4AobEIg3gmbFEkZZxBgMZ/R5w2r1D9ySXmXUB4ZJBCQRiTEIsQ8BIrvDlkMMpgnYTKZgUBx2dwm1md167ZPoSOZDpNabo2uGtVqUYryET6LgRC2oG7RSSBZS8PLveQ2vQ4T4zP24Ge9xDh8+vi6w0cJxNG5uXsEE+WFCcQ7YeHCSP08Aizm83q+cMVyHXANfCWsZ89kqEQaAfmhnOd0ftt0s2Fv9ecsk6xeJNC3BrqtjKGcV1dF8qgXqi/WzBqf2pU4FCfaVo9FITY3asEvlRvnJkkz691enkXNBBK5GXg/WkHPXnIfRev42Y4qvBMTouVRqmhRNjpia5K/1G45aHM9NlFMg/xsi0T8tyjXdIplFtPzmpLANaUV9JQe+zRqs1qux9qDjljMOVhOl09RuNyKUKJIaZKDTGkTb2jU+h5NgcYJN3cGCI/bEoh3wrZlU9iOBFjMO3Z1t5rkJ554uQ760Wc3mq/WIx2RwavucTY1gUc7Tnbx1CWR3GACfQdFn1XxU9y48mvYK2gkXt9HMR68gnboZ7256NemjLyY5OXEaNY8Fz3UbAMnMnWVaTzcPhoF8VaTP4Ip3vzgKj+I4k28pGbu2XpNL/H+fbFFnUA4uswrdK0WI/dYWgr0Tky9RiGYLWoaoX8Uic5fhC3LXlLSViL8cRD75ObuR7yYL0Mg3gnLlEGiEOA/CsYamJiA/FjZeOQ2qk1c8WKp6R9VW37IXqw80m0g8GjTPVJuCI7KegTa14A+/824vWwfzkjM4+VZhDLQEYvCWCEwKU4VhbUztqhcFNY8BPK4Lj3rxyYH82iC+lmjoP0XlbWCjNs1xeStQS20l7dIill5w6LaUGEtB71niwnUDLVyi06s3+ihqHYr1AotY0lVK8dCme0bFAOJK27uBAWDzQnEO2Hz4ilvLwIs5r36uU815lbotrCn+rcOUbglYE4P83hrjsIGBNr3Hctjg3b/XkLfMuizKl79GFfm8SpQhDLQhXuhvqQo7ghvIg69bdGDSUzMizXWhIH8mtLJ6BBBdK2mzX0VHoKW6LH2WRwHynEORW+DhLUkvbxFUkzSGxbVhgprOYhcBj4N06yighdqifHgY3mJNpdxUe1WqBVaxh3hxKRvoLPyHri580yQ7Ekg3gl71kxVmxJgMW/a2B3KerQ4HynvQGeCGgxz/6k2QY6kMJxAS99bdIYnSoAJCJhDozGjPqviRZVxZR6vfEQoA52nEZrHlqCBNz3lxz5WMVxNGMhbYhWji6GfNRLzaJLxs+LZD2rKXu4l3tsgSS20l7dIikl6w6LaUGEtBy/3EpOYV/ASbeJnWyTawzXWVrWxWNUUWuRFJ7FQZvsGOivvgZs7zwTJngTinbBnzVS1KQEW86aN3aSsxvXJvUB+v4utKQrzcyNiMoG472zP5HbMHC5eKrXM+6zM3dDl3Lgyj0YnnjXKkry38pJAWab8oOinXVgE4qNcEu/WS7StnzUS82iS8bPauRnXlL3cS4yrcY+10F7eIinm6Q2LakOFtRy83EtMYl7BS7SJn22RaA9mEZpH7y1Q0Mq1sYTWCrFQZvsGxUDiips7QcFgcwLxTti8eMrbiwCLea9+blhNyxJt0dkQzaclFZkXhZ+mSfAMAvHdHKsioweLxOhbDH1W5jP7ejSu/NL1Chpti77xUEzD+NSPXl/Peude3ycpHorm3kOLxLjyj14iaVyDpwpibgxr8oCDmBQHl2EtStHEC2vmXn4r8QrFBvkcYsm3ZfqibiVGwT8aiadkFMzjU31tHoz1lA8hPTJqIv9lEPvk5u4XttiuRCDeCStVQq7HE2AxH78EFgAQr9Lun84XqHzWFGvMa/JZ6yCv1wjUNilL4jXEWziqrZNxxV0rUNahDK6IVz5GxyRjZo2H61NcdOQxdhLMxohqs5KArkii6FkZy6zkLFONUbQH40QeLx3xLCZeIibFKT97qYlDE6jIwSjXHmsJ1PS1XGz1QBREGEiuKdEMeiFO+gYSosNcbPVA/GihHotCsZt6VsY180vBzF6PYlvU0bPaXMZaweSpp4y+Di1jM5DHop9rtqij9R+Na4vncsLN3SOYKC9MIN4JCxdG6ucRYDGf1/MlKw4WajC1ZKkrJB0wD6ZWqIwc+wn41utPET/bHwnLZQnMtgxmy+e2scslfFsRCn0EWAl93I6yihcJN3dHLYaji413wtFoKH41Aizm1Tp2br7FtVoUnssopfL43wnTkZQmzBjELIz4ccYCyGk8gdnOh9nyaenAijm31IVOOwHWQDurkzXjdcLN3clr46za451wFguqXZwAi3nxBp6SvvzyjimYBWyAJDzGzM19TUI+hJiHgF4benxlWNvF8+RPJqMJ+FUxOmLgnwUZwGEKAhBYnUB83nJzt3p/yb+VQLwTWr2gB4EJCLCYJ2gCKdwQ0JdBesXq8Y0Lpt8jcIv9VuG9XPA0FwHZqsEaEJ25UiebFALBwkiJTxAIQAACpxCIz1tu7k5ZB9QZ7wT4QGAhAizmhZp1Zqr+O/9atF5+Jp/kqluwt+gkp024NAJX9+M3S4tOWsIEyiQQL4zMTIgFAQhAYG8C8XnLzd3e3ae6fwjEO+EfPUYQmJ4Ai3n6Fh2dYO0OqCY/GlZK8Y0nRqNaSsoEySbQ2H12cXZjJojXuDYmyJQUIAABCKxNID5vublbu7tk304g3gntftCEwOcEWMyft4AEagTiD3uWbo3bOHncER2X7mgajGsE2ldUzQPytQhwMqzVL7KFAATWJRCft9zcrdtZMn9GIN4Jz3yhDYFPCbCYP8VP8CoBVmYVzXcT7U3hRua7Lq0XmdWyXs96M24/Q3ojYAcBCEAAAv8lEJ+33NyxSk4hEO+EUyhQ5xYEWMxbtHG3IliWE3b0ul559PcJqyClOQlweTdnX17PirP9daQ4hAAEIFAkEJ+33NwVoSHckEC8EzYsmJL2JcBi3re3S1bGB/yKbeMYWbFrE+bM9p+wKe+mxFnxLk+8QQACEKgRiM9bbu5q3JDvRiDeCbtVSz1bE2Axb93exYrju32xhv1Nl2PkLwn++SsBDoFfCc5tz1kxd3/IDgIQ2IdAfN5yc7dPp6kkJhDvhNiWWQhMRYDFPFU7Tk6GL/Z1u88xsm7vJsz8OgpYVBO25veUaOvvDPEAAQhAoIVAfN5yc9fCEJ0dCMQ7YYcKqeEYAizmY1o9daFc203dnrvkOEbuCDH/mABnwmNkKxhwVqzQJXKEAAR2IBCft9zc7dBjamghEO+EFg/oQGASAizmSRpxchp8oq/efY6R1Ts4Z/788t2cffklK86KX+gtYbtHi/eoYokFs0eScy6YOCtu7vZYe1RxTyDeCff2aEBgGgIs5mlacWgiXNtt0HiOkQ2aOG0JHBHTtqYjsbXOimPX3i9tarSdnG1jFR1b4M+fP0Od96WElSfwaInO2dM4K27ufNOR7Ekg3gl71kxVmxJgMW/a2DXKevSD0RolHZklx8iRbc8rmoMij/XgSH1nRZ/VK6WMDn2tbfP3VzLvdjK6ZEksLZBEzBm01NWiMy5bs97MAVuc7Ui4w8SUHHso5mk8/PgYJ/Cj8wTzOH9u7hJaQIgpCMQ7YYoUSQICbQRYzG2c0HqfgPlh8f0AeMwiwDGSRfroOJwYG7S/76zos3oFV0JoH8JLXqml0Ula9LRAjYW/pdZSV4vOW/kEfmppeLmXBG6vqQ4T4zP24Ge9xDh8+vi6w6cJ/Kgf58/N3Y94MV+GQLwTlimDRCHAL+2zBj4iwEf4R+CHhOWdOAQrTh0Bzg2HZDFB31nRZ3X9sUSxvRaPPAo4kfsp+YONgY5ek6Imzq+ByIMQ3sRLxI+ekgRkVkdpF4pPbS4Mb4XFQOLzGhgd47OoYzy0PEqUFmWjI7ZBbpqJUdPmemyiyLry8naJ+G838Zomf1Hw8qJE56AVRG4G4l8GWkGEhnCgY0z04zUObK+ELwWtrJ1oHa0pOjX/ovDtQDfFZ8LNnWeCZE8CeqMyhsDqBPbcpVQ1MYFry0ycIKk9IxD/dPjMF9oQuCPAAXJHaN75vrOiz+qicNlqD7Vx8T7FLzZt/lYI3zAT5fbxVsGEMPoyW5S3C4sMNSUdyLs1EvMotvFAfiaP1eLZWuj29RD7D0DdGl4Ko8uUKMV8DB+PpaVA78TEMgrBbFHTCP2jSHT+IrxK0I9BUUbNpPrVY5wVN3df9YW42QTinZCdDfEg8AMBFvMP8DDtIcCS66E2tw09nbs/G2anP7Q2LG/fktrPCrmY8INHeIKlUkzGCM3jFdoIE0KYkn0CPyqIufFck9fUalcbRf2iUCLWXGmFceNabl7eIinm6Q2LakOFtRz0pismUDPUyi06sX6jh6LarVArtIwlVa0cC2X2q0ExVUmGmztBwWBzAvFO2Lx4ytuLAIt5r37OXg3rbfYOdeVHW7uwYfQrgeDG5FfX2I8h0HdW9FldFQS2+npCj3XpRXMjNI/GXHuWsdHRj9fY+BRDGWgTo1y889I6eqz9FA1r+RhDeSw6bxRKdTIQt8mDYsJFPl7TS4rJN6oVbd8S1nIQuQx8ROnRNSgqeKGWGA8+lpdocxkX1W6FWqFl3BFOTL4a6Lp8DtzceSZI9iQQ74Q9a6aqTQmwmDdt7HRl1X62my5REnpOgGPkOTMs3iHAwfIOxywvfWdFn9VVU2AbTAmPoo4RmkexLV706NkgQ+1Tj4smtwomE68vWbVMBTomUOzW+DGPNVfic+jAJ3OF8/IWSTFVb1hUGyqs5eDlXmIS8wpeok38bItEe7jG2qo2FquaQou86CQWyuxXA12Xz4GbO88EyZ4E4p2wZ81UtSkBFvOmjZ2rLL6u5+rH29lwjLxNFH8PCMgvbjywQfUjAn1nRZ/VVWJgG0wJnqKOEZpHsW28eyqaa6EeF4u6VdBWXrkxYTGUgTaUcXG2Reh1vESijB7UQnt5i6SYrTcsqg0V1nLwci8xiXkFL9EmfrZFoj34/aU96LFYaeHTcdFJLJTZrwa6Rp8DN3eeCZI9CcQ7Yc+aqWpTAizmTRs7UVlc203UjDGpcIyM4YrXBwQ4Zx7A+k6176zos7qqjG39rJH4dWUU/PWBoXur/1ShO6UrkA93m7Ao+NAyJYOafyP3rm4VJEQ8uDwbb7GJn62Ze/mtxCvcrhmfj5d8W6Yv6lZiFPyjkXhKRsE8PtXX5sFYT/kQ0hejJvJvB3FW3Nx92x2i5xGId0JeHkSCwM8EWMw/I8RBRMD/dB5pM7cmAY6RNfu2W9avfMruBmWyepLPClkSMvA8ZOoaaAWRaB2tcH3J69ligYGCmboeTQgTRR4vNfEgVl6ip2RcGxRLuJRr6UlKErqoqWfFRKdxq6CVa2NxUlMI5GKrB6IvwkByTYlmDWZNLp5vBxLiVtMriK0eiJoW6rEoSO9qs6IZK5jZ61Fsr4HR0bN6SsZaweSpp4z+9agjiq0MtI64Ej96ILOfD+Jlxs3d5w0igSQC8U5ISoIwEHiDAIv5DYr4KBMo/qBTVkW6MgGOkZW7t1vuHDszd5Sz4tvutPBv0fm2ig2iA3mDJs5fQrzMuLmbv4Nk+A6BeCe8EwMvEEghwGJOwXxiEL6fz+k6x8g5vV6iUg6fadvEWfFha9rht2t+WM66ocG7bu/WyjxeadzcrdVNsu0nEO+Efr9YQiCdAIs5HfkRAflyPqLNf4vkGPlLgn9ORIBTaKJm/E2Fs+Ivibx/XhtB/p4XmEgQgMCnBOLzlpu7T5tD8EQC8U5ITIRQEPiVAIv5V4LYOwJ8MDskmws4RjZv8LLlcRbN1jrOitk6Qj4QgMCuBOLzlpu7XftOXZZAvBOsNs8QmJgAi3ni5iyZGp/KS7btt6Q5Rn7jh/VYAhxKY/k+8c5Z8YQWuhCAAAT6CcTnLTd3/WSxXItAvBPWqoVsDyfAYj58AbxbPl/I7/JcxRvHyCqdOjZPjqZJWs9ZMUkjSAMCENieQHzecnO3/QKgwP8RiHcCmCCwEAEW80LNmjxV1tLkDRqXHq0fxxbPLxLg/u5FmH2uOCv6uGEFAQhA4CmB+Lzl5u4pT/RXJRDvhFWrIu8jCbCYj2z7+0WzkN5nuo5Hur9Or07PlMu7b1cAZ8W3/IkOAQicQyA+b7m5O2clnF5pvBNOp0P9SxFgMS/VrhmT5Ut4xq7k5sQxksubaD8RuI4sFu1PEHuNwd5LDjsIQAACzwjE5y03d89oor0ugXgnrFsXmR9IgMV8YNNfLJlruxdhruuKY2Td3h2bOWfXJ63nrPgEO0EhAIEDCcTnLTd3By6JQ0uOd8KhUCh7TQIs5jX7NkXWfPpO0YYJkuAYmaAJpPCYAL989xjZzwacFT8jxAEEIACBJgLxecvNXRNElDYgEO+EDQqkhHMIsJjP6fW7lXJt9y7Ppb1xjCzdvsOT5yjLXACcFZm0iQUBCJxMID5vubk7eW2cVXu8E85iQbWLE2AxL97Ab9LnW/cb7rNG5RiZtTPk1USAA60J0xtKnBVvUMQHBCAAgXsC8XnLzd09QTT2IBDvhD1qpIpDCLCYD2n0i2XylfsizD1ccYzs0cfDq+BkS1gAnBUJkAkBAQhA4M+fP/F5y80di+QUAvFOOIUCdW5BgMW8RRvziuDjNo/1OpE4RtbpFZlGBDjfIjpvzHFWvEERHxCAAATuCcTnLTd39wTR2INAvBP2qJEqDiHAYj6k0a+UyWftKxj3c8Ixsl9PT66Ig25c9zkrxrHFMwQgAAFNID5vubnTrBjvTCDeCTtXTm3bEWAxb9fSUQXxNTuK7Pp+OUbW7yEV/IsAx92/cLz3wFnxHks8QQACEIgIxOctN3cRO+Z2IhDvhJ0qpZbtCbCYt2/xKwXyHfsKxl2dcIzs2tmT67oOPdb2u2sAnu/yxBsEIACBGoH4vOXmrsYN+W4E4p2wW7XUszUBFvPW7X2nOBbJOxz39cIK2be3p1fGv7R4dwVwVrzLE28QgAAEagTi85abuxo35LsRiHfCbtVSz9YEWMxbt/eF4lghL0Dc3QWLZPcOH10fv3z3Yvs5K16EiSsIQAACAYH4vOXmLkDH1FYE4p2wVakUszsBFvPuHe6vj1826Wd3mCXHyGENP7FczsNXus5Z8QpGnEAAAhC4JRCft9zc3QJEYRMC8U7YpEjKOIMAi/mMPj+uks/Ux8gONuAYObj5B5XOL9/93mzOit8Z4gECEIBAC4H4vOXmroUhOjsQiHfCDhVSwzEEWMzHtPpBoVzbPYCF6p8/HCOsgnMIcDz+0mvOil/oYQsBCECgnUB83nJz104SzbUJxDth7drI/jACLObDGn5fLt+l94zQ+DcBjpF/8+BpcwIckt0N5qzoRochBCAAgUcE4vOWm7tHMFFemEC8ExYujNTPI8BiPq/nUcV8kUZ0mKsQ4BipgEG8MwFOy47uclZ0QMMEAhCAQAeB+Lzl5q4DKSZLEoh3wpIlkfSpBFjMp3a+UDcfogUoiBoIcIw0QEJlQwKcmU+bylnxlBj6EIAABPoIxOctN3d9VLFaj0C8E9arh4wPJsBiPrj5/yqdT9B/4eDhCQGOkSe00N2NAIdne0c5K9pZoQkBCEDgFwLxecvN3S9ssV2JQLwTVqqEXI8nwGI+fgn8FwBfniyDXwhwjPxCD9sNCHCENjaRs6IRFGoQgAAEfiQQn7fc3P2IF/NlCMQ7YZkySBQC/E8hWQNc27EGfibAO/FnhDhYnsB1ecdeiBsJn5gPsxCAAATeIhCft9zcvcUZP7MTiHfC7NmTHwQUARazgnHikF8VObHrb9fMMfI2UfytSoATNe4cZ0XMh1kIQAACbxGIz1tu7t7ijJ/ZCcQ7YfbsyQ8CigCLWcE4bshH5nEtH1Mwx8gYrnhdkgC/fBe0jbMigMMUBCAAgRcJxOctN3cvosbV1ATinTB16iQHgX8TYDH/m8dBT7T+oGYPLpW1NBgw7tcjwL8XKfaMs6KIBSEEIACB1wnE5y03d68Dx+GkBOKdMGnSpAWBEgEWc4nK5jI+KTdvcHp5HCPpyAm4AAFOWt8kzgrPBAkEIACBEQTi85abuxHM8TkjgXgnzJgxOUGgQoDFXAGzrZiPyW1b+11hHCPfsSfy7AQ4cnWHOCs0DcYQgAAExhGIz1tu7saRx/NcBOKdMFeuZAOBkACLOcSz2yTfkLt1dI56OEbm6ANZTEqAg1caw1khKBhAAAIQGEogPm+5uRsKH+cTEYh3wkSJkgoE7giwmO8I7TPP1+M+vZysEo6RyRpCOjMS4AT+8+cPZ8WMS5OcIACBHQnE5y03dzv2nJpKBOKdULJABoFJCbCYJ23M22nx0fg2Ufz9Q4Bj5B8WjCBQJ8A5zFlRXx3MQAACEHiTQHzecnP3Jmt8zUwg3gkzZ05uEDAEWMwGyJaPfC5u2dZ5iuIYmacXZDI/gZMPZM6K+dcnGUIAAnsQiM9bbu726DJV3BOId8K9PRoQmIYAi3maVoxK5OSvxFFM8ftvAhwj/+bBEwRuCBx7LF+F83cIQAACEEggELyKuLkL4DC1FQG+UrZq59nFsJj37v/1Y8HeNVLd5wQ4Rj5vAQksR0C+2ZbLnIQhAAEIQGB1Atzcrd5B8m8lwFdKKyn0pifAYp6+Rf0Jcm3Xzw7LJwQ4Rp7QQhcC/xDglP6HBSMIQAACEMgiwM1dFmnifE2Ar5SvO0D81wiwmF9DOZkjPggna8jO6XCM7NxdahtMgF++GwwY9xCAAAQgYAlwc2eJ8LwrAb5Sdu3sgXWxmLdsOtd2W7Z12qI4RqZtDYmtQoBDe5VOkScEIACBDQhwc7dBEymhiQBfKU2YUFqBAIt5hS49y5GePuOF9s8EWHI/I8QBBP5weccigAAEIACBHALc3OVwJsr3BPhK+b4HZPASARbzSyBncUNDZ+nESXmw6k7qNrWOJcD93Vi+eIcABCAAgT9/uLljFZxCgK+UUzp9QJ0s5m2azPfeNq1crhCOkeVaRsIzE+Awn7k75AYBCEBgAwLc3G3QREpoIsBXShMmlFYgwGJeoUv3OfKld88IjWEEOEaGocXxuQQ41c/tPZVDAAIQGEyAm7vBgHE/DQG+UqZpBYn8SoDF/CvBCez5wJugCUenwDFydPspfhgBzvZhaHEMAQhA4GgC3Nwd3f6jiucr5ah2710si3n1/vJpt3oHN8ifY2SDJmaWcJ1a/B0CEIAABBIIZB7vxFqFADd3q3SKPH8lwFfKrwSxn4YAi3maVvQkcv3A12OJDQTeI8Ax8h7LIzyxYI5oM0VCAAITEOC8naAJM6bAzd2MXSGnEQQ4BEdQxecnBFjMn2B/JSjXdq9gxMnvBDhGfmd4lAcWzFHtplgIQOBDApy3H8KfOTQ3dzN3h9zeJMAh+CZNfH1KgMX8Kf7+4Fzb9bPD8m0CHCNvE93cHwtm8wZTHgQgMA0BzttpWjFXItzczdUPshlHgENwHFs8JxNgMScDfyUc13avYMTJWwQ4Rt4ieYgfFswhjaZMCEDgcwKct5+3YM4EuLmbsy9k9T4BDsH3meLxIwIs5o/A94fl2q6fHZZjCHCMjOG6rVcWzLatpTAIQGAyApy3kzVklnS4uZulE+QxmgCH4GjC+E8jwGJOQ/1KIK7tXsGIk3cJcIy8y3N7byyY7VtMgRCAwCQEOG8nacRsaXBzN1tHyGcUAQ7BUWTxm06AxZyOvD8gzepnh+VIAqzMkXQ39M2C2bCplAQBCExJgPN2yrZ8nxQ3d9/3gAxyCFy/9sLfIbAHgZxdQ5QfCfCz148AMR9HgMU5ju2WnlkwW7aVoiAAgQkJcN5O2JQZUuLmboYukAMEIAABCGxF4Log3qokitmLAB8Ge/VzeDUsmOGICQABCEDg/wlw3rIQigS4uStiQQgBCEAAAhDoJMC1XSc4zBIJ8GGQCHuHUCyYHbpIDRCAwAoEOG9X6NIHOXJz9wF0QkIAAhCAwK4EuLbbtbOb1cWHwWYNHV0OC2Y0YfxDAAIQuAhw3rISigS4uStiQQgBCEAAAhB4TIBru8fIMPiIAB8GH4FfNSwLZtXOkTcEILAaAc7b1TqWlC83d0mgCQMBCEAAAnsT4Npu7/5uVh0fBps1dHQ50y6YaRMb3RH8QwACuxLgWNu1sz/Wxc3djwAxhwAEIAABCPzh2o5FsBYBPgzW6tfn2U67YKZN7POWkQAEILAoAY61RRs3Om1u7kYTxj8EIAABCGxOgGu7zRu8Y3l8GOzY1YE1tS+Y6zyUvw/MaQLEYr8hAAAgAElEQVTX7VgmSJYUIACBNQhwsKzRp/QsublLR05ACEAAAhDYiADXdhs186BS+DA4qNlvlPp0wTzVfyPHD3wcUuYHZAkJgYMJcLAc3PyodG7uIjrMQQACEIAABAICXNsFcJiamQAfBjN3Z8Lcni6YW335pbyaplEwama2SCzQuab+/Pnff+hAHr2fmhMt12PvAQkEIACBRwTMcffIFuWNCXBzt3FzKQ0CEIAABAYSCD72BkbFNQTeIMCHwRsUD/LxdMHE+mbWPF4XahpucNh628vQyM2j3NmZKPqxmEasYGZ5hAAEINBBwJ9XHU4w2Y8AN3f79ZSKIAABCEBgOAF+rhqOmAAjCbCAR9Ld0PfTBRPoF6eM0DwGQIuaLUKv4yUmrlfwEmPCIwQgAIGnBDhYnhI7RJ+bu0MaTZkQgAAEIPAaAX6oeg0ljj4iwBr+CPyqYZ8umEBf/9lSPTZo9FTszRj635W7FIwT81i0Mjm0mPhkkEAAAhB4RMAfNY/MUd6VADd3u3aWuiAAAQhA4H0C14fc+37xCIFcAnwY5PJePtrTBeP1RSKDR1BqVkV5i9DrGIl5rF3tPaoCZQhAAAK3BPzhc2uCwgkEuLk7ocvUCAEIQAACLxDg2u4FiLiYgwAfBnP0YZksni4Yry8SGTwqvmZVlLcIvY6RmEdu7h71C2UIQKCbgD98ul1huBMBbu526ia1QAACEIDAKAJc240ii98vCPBh8AX1hWM+XTBeX0v0+IJiJOaxeGtWNBTExoN5LDo0Ov7RSLwTryD5MIAABCDQSICTpBHUaWrc3J3WceqFAAQgAIHHBLi2e4wMg7kJ8GEwd3+my659wVynZfHvuiqjoKeuG7GnCj5D7aHmX+SiLBKThjxqBRFe5maKRwhAAAIdBPxp1uEEk/0IcHO3X0+pCAIQgAAE3iTAJ5nQlI9bBhCAwDwEZIeOG/AlOY4tniEAAQhoApy3mgZjIcDNnaBgAAEIzEVgno8iMoHAEgQSNjA/TSZAJgQEHhHI2ZU5UR4VjjIEIACBLQlw3m7Z1t+L4ubud4Z4gAAEhhDgvTUEK043JZCzX3KibNoiyoLAEAI5uzInyhBAOIUABCCwFAHO26XalZcsN3d5rIkEAQg8IsB76xEulA8nkLNfcqIc3krKh8AjAjm7MifKo8JRhgAEILAlAc7bLdv6e1Hc3P3OEA8QgMAQAry3hmDF6aYEcvZLTpRNW0RZEBhCIGdX5kQZAginEIAABJYiwHm7VLvykuXmLo81kSAAgUcEeG89woXy4QRy9ktOlMNbSfkQeEQgZ1fmRHlUOMoQgAAEtiTAebtlW38vipu73xniAQIQGEKA99YQrDjdlEDOfsmJsmmLKAsCQwjk7MqcKEMA4RQCEIDAUgQ4b5dqV16y3NzlsSYSBCDwiADvrUe4UD6cQM5+yYlyeCspHwKPCOTsypwojwpHGQIQgMCWBDhvt2zr70Vxc/c7QzxAAAJDCPDeGoIVp5sSyNkvOVE2bRFlQWAIgZxdmRNlCCCcQgACEFiKAOftUu3KS5abuzzWRIIABB4R4L31CBfKhxPI2S85UQ5vJeVD4BGBnF2ZE+VR4ShDAAIQ2JIA5+2Wbf29KG7ufmeIBwhAYAgB3ltDsOJ0UwI5+yUnyqYtoiwIDCGQsytzogwBhFMIQAACSxHgvF2qXXnJcnOXx5pIEIDAIwK8tx7hQvlwAjn7JSfK4a2kfAg8IpCzK3OiPCocZQhAAAJbEuC83bKtvxfFzd3vDPEAAQgMIcB7awhWnG5KIGe/5ETZtEWUBYEhBHJ2ZU6UIYBwCgEIQGApApy3S7UrL1lu7vJYEwkCEHhEgPfWI1woH04gZ7/kRDm8lZQPgUcEcnZlTpRHhaMMAQhAYEsCnLdbtvX3ori5+50hHiAAgSEEpn1vTZvYkDbgdBECOcsyJ8oiyEkTAlMQyNmVOVGmAEoSEIAABD4lwHn7Kf55g3NzN29vyAwChxOY9r01bWKHL5jDy89Zlu1R/uP+Kjao3WHRPEe4RJI5KIgyIYGc9ZkTZUK8pAQBCEAgmQDnbTLwVcJxc7dKp8gTAscRePreMhcFf/78eephCcRbFrUE+cmTzFkYHVEuk5phTT4V7SWSnIoYyWQSyFmfOVEyuRELAhCAwJwEOG/n7MvnWXFz93kLSAACECgTePTe8srXRV7Z9cpSX+nK1ZD7awRyFsbTKFpfj6+LdXPbXtuzWs3zMrMmyqVvdMSJRIwV9KyYiBMGEPiWQHHNv55STpTX08YhBCAAgeUIcN4u17KchLm5y+FMFAhA4DGB9vdWTdPL9Re4JCSf4jKQawXREYnW8bO3aoGCeL4G8ihRtFyPRYHByQT8ah9B42kUra/HkltRKLPXfnn06B0aiX/0Eh3R52BmeYTAtwTMAh6UTE6UQcnjFgIQgMBCBDhvF2pWZqrc3GXSJhYEIPCAQPt7q1HTqOlHfU1mxj5jbahnteEl95pG4h+9RIfgEsHQ4FEImJUj8ncHT6NofT2WrIpCmfUDra/HolkUyqzfQV6/RaIdMobAtwT8ih2RT06UEZnjEwIQgMBaBDhv1+pXWrbc3KWhJhAEIPCMQPt7q11TZ6CtWsZiq5VF6G8EihKt7xW85xaJ8cnjmQT8UhnB4VEUr9wiMWnrXy81l+Pem7G9HgMPfg82SoqBEELgEwKNG+HH3HKi/Jgk5hCAAAQ2IMB5u0ETR5TAzd0IqviEAAReIND+3mrUDD7gtYfaWErSCiJs/OAPcmj3oIMyhsBFoLYs3+XzKIpf7d7cS3TCflZL9Fhb6bHXMRLz2LgNdQjGEPiWgF/DI/LJiTIic3xCAAIQWIsA5+1a/UrLlpu7NNQEggAEnhFof2+1aHodLWkZS/ZaWYQtH/ze0EjMY4tPnQDjkwn4xTOCxqMoXrlFotOO9f2str3GXsdIzCObzjNEMjkBv4ZHJJwTZUTm+IQABCCwFgHO27X6lZYtN3dpqAkEAQg8I/DovVVU1kI9vvLQkpaxZK+VRdjywe8NjcQ8tvjUCTA+mYBfPCNotEepaRr508dY328Zr+8lBpRRuPVpzHmEQDIBv2JHJJATZUTm+IQABCCwFgHO27X6lZYtN3dpqAkEAQg8I/D0vWX0bx+1QstYstfKIvSf915iDK8/S/jIw61P7Y3xUQTM6hpUe2MU+XOyJo2iXIRF52b2etRutcJTD2IrDr3kmhJ5MYSYM4BAPoGcNZkTJZ8eESEAAQjMRoDzdraOTJIPN3eTNII0IAABS6DjvRV/XZvZ6/G6C5OxPF7ZeLl2ojMUuZThJeJc3MpAT8UetKZOQKwYnEkgZzHkRDmzg1QNgT4CObtS3mgMIAABCEBgNIG+1wFWexPg5m7v/lIdBBYmkPM1sjAgUoeAIpCzX3KiqLIYQgACNwRydmVOlJtSmYYABCBwAAHO2wOa3FMiN3c91LCBAAQSCPDeSoBMiG0I5OyXnCjbNIVCIJBAIGdX5kRJwEUICEAAApMT4LydvEFfpcfN3VfkiQsBCNwQ4L11A4hpCCgCOfslJ4oqiyEEIHBDIGdX5kS5KZVpCEAAAgcQ4Lw9oMk9JXJz10MNGwhAIIEA760EyITYhkDOfsmJsk1TKAQCCQRydmVOlARchIAABCAwOQHO28kb9FV63Nx9RZ64EIDADQHeWzeAmIaAIpCzX3KiqLIYQgACNwRydmVOlJtSmYYABCBwAAHO2wOa3FMiN3c91LCBAAQSCPDeSoBMiG0I5OyXnCjbNIVCIJBAIGdX5kRJwEUICEAAApMT4LydvEFfpcfN3VfkiQsBCNwQ4L11A4hpCCgCOfslJ4oqiyEEIHBDIGdX5kS5KZVpCEAAAgcQ4Lw9oMk9JXJz10MNGwhAIIEA760EyITYhkDOfsmJsk1TKAQCCQRydmVOlARchIAABCAwOQHO28kb9FV63Nx9RZ64EIDADQHeWzeAmIaAIpCzX3KiqLIYQgACNwRydmVOlJtSmYYABCBwAAHO2wOa3FMiN3c91LCBAAQSCPDeSoBMiG0I5OyXnCjbNIVCIJBAIGdX5kRJwEUICEAAApMT4LydvEFfpcfN3VfkiQsBCNwQ4L11A4hpCCgCOfslJ4oqiyEEIHBDIGdX5kS5KZVpCEAAAgcQ4Lw9oMk9JXJz10MNGwhAIIEA760EyITYhkDOfsmJsk1TKAQCCQRydmVOlARchIAABCAwOQHO28kb9FV63Nx9RZ64EIDADQHeWzeAmIaAIpCzX3KiqLIYQgACNwRydmVOlJtSmYYABCBwAAHO2wOa3FMiN3c91LCBAAQSCPDeSoBMiG0I5OyXnCjbNIVCIJBAIGdX5kTpwDVtYh21/GICh1/oYQuBqQiwnadqxzzJcHM3Ty/IBAIQ+BcB3lv/wsEDBEICOfslJ0pYKJMQgMC/COTsypwo/yqs7aE7sf+ov9pCTa3VzWHqqkgOAkcSYDsf2fb7orm5u2eEBgQg8AkB3lufYCfoogRy9ktOlEVbQNoQ+IRAzq7MibIxwE9Kawy6cXMbCaAGgakIsCWnasc8yXBzN08vyAQCEPgXAd5b/8LBAwRCAjn7JSdKWCiTEIDAvwjk7MqcKP8qLOth49IaEUKgERRqEMghwJbM4bxcFG7ulmsZCUPgFAK8t07pNHW+QSBnv+REeYMHPiBwCoGcXZkTRfdM/WHW/36tmATMrDaUsdExHrSajM3AeDCzV1ai45P0+kWJ9lBUCIRiW6zumvV5ikNtrseiwAACEMgnUNzO+WkQcTYC3NzN1hHygQAE/keA9xZLAQLtBHL2S06U9qrRhAAEcnZlThTppgknN1CiIAOjWZO/4kGcXwMTOghhDM2jXJkZ+aNHk4zY+qy8ppeIOQMIQCCfAFsyn/kSEbm5W6JNJAmBEwnw3jqx69TcSyBnv+RE6WWAHQROJJCzK9ujyD2UGbT3phirKKz9mltRuSj8xUPNYXulL2rWkvHyFsmLieEKAhB4SsBv0qce0N+SADd3W7aVoiCwAwHeWzt0kRqyCOTsl5woWcyIA4EdCOTsypwoVz8exSoqF4W1ZheVzbWjPBonIr8GZjbzsVhF8V7Sa3pJZubEggAEDAG2pAHC40WAmztWAgQgMCkB3luTNoa0piSQs19yokwJmKQgMCmBnF2ZE+VC/ChWUbkorPWvqFwU1jyIvM9KzH8Z1EJ7eYvkl0ywhQAEfiTgN+mPDjHfgwA3d3v0kSogsCEB3lsbNpWShhHI2S85UYZBwjEENiSQsytzolzteRSrqFwU1npfVC4Kax5E3mcl5r8MaqG9vEXySybYQgACPxLwm/RHh5jvQYCbuz36SBUQ2JAA760Nm0pJwwjk7JecKMMg4RgCGxLI2ZU5UaQ9PpyXXMrt8nbNmmfjwTwW/2iqVBQM5I/cBjq3Uz6Zy8TLbyVe4TY6ChCAwIsE2IMvwtzJFTd3O3WTWiCwFQHeW1u1k2IGE8jZL/KFyQACEJiHwODT5b/uc04YXYjBq6eufIyCz9AoJHgwIRofJc9Gfa0mtnogCiIMJNeUaHqMYssAAhDIIcA2zOG8XBRu7pZrGQlD4BQC+udIxhCAwC2BhKOBnyYTIBMCAo8I5OzKnCiPCkcZAhCAwJYEOG+3bOvvRXFz9ztDPEAAAkMI8N4aghWnmxLI2S85UTZtEWVBYAiBnF2ZE2UIIJxCAAIQWIoA5+1S7cpLlpu7PNZEggAEHhHgvfUIF8qHE8jZLzlRDm8l5UPgEYGcXZkT5VHhKEMAAhDYkgDn7ZZt/b0obu5+Z4gHCEBgCAHeW0Ow4nRTAjn7JSfKpi2iLAgMIZCzK3OiDAGEUwhAAAJLEeC8Xapdeclyc5fHmkgQgMAjAry3HuFC+XACOfslJ8rhraR8CDwikLMrc6I8KhxlCEAAAlsS4Lzdsq2/F8XN3e8M8QABCAwhwHtrCFacbkogZ7/kRNm0RZQFgSEEcnZlTpQhgHAKAQhAYCkCnLdLtSsvWW7u8lgTCQIQeESA99YjXCgfTiBnv+REObyVlA+BRwRydmVOlEeFowwBCEBgSwKct1u29feiuLn7nSEeIACBIQR4bw3BitNNCeTsl5wom7aIsiAwhEDOrsyJMgQQTiEAAQgsRYDzdql25SXLzV0eayJBAAKPCPDeeoQL5cMJ5OyXnCiHt5LyIfCIQM6uzInyqHCUIQABCGxJgPN2y7b+XhQ3d78zxAMEIDCEAO+tIVhxuimBnP2SE2XTFlEWBIYQyNmVOVGGAMIpBCAAgaUIcN4u1a68ZLm5y2NNJAhA4BEB3luPcKF8OIGc/ZIT5fBWUj4EHhHI2ZU5UR4VjjIEIACBLQlw3m7Z1t+L4ubud4Z4gAAEhhDgvTUEK043JZCzX3KibNoiyoLAEAI5uzInyhBAOIUABCCwFAHO26XalZcsN3d5rIkEAQg8IsB76xEulA8nkLNfcqIc3krKh8AjAjm7MifKo8JRhgAEILAlAc7bLdv6e1Hc3P3OEA8QgMAQAry3hmDF6aYEcvZLTpRNW0RZEBhCIGdX5kQZAginEIAABJYiwHm7VLvykuXmLo81kSAAgUcEeG89woXy4QRy9ktOlMNbSfkQeEQgZ1fmRHlUOMoQgAAEtiTAebtlW38vipu73xniAQIQGEKA99YQrDjdlEDOfsmJsmmLKAsCQwjk7MqcKEMA4RQCEIDAUgQ4b5dqV16y3NzlsSYSBCDwiADvrUe4UD6cQM5+yYlyeCspHwKPCOTsypwojwpHGQIQgMCWBDhvt2zr70Vxc/c7QzxAAAJDCPDeGoIVp5sSyNkvOVE2bRFlQWAIgZxdmRNlCCCcQgACEFiKAOftUu3KS5abuzzWRIIABB4R4L31CBfKhxPI2S85UQ5vJeVD4BGBnF2ZE+VR4ShDAAIQ2JIA5+2Wbf29KG7ufmeIBwhAYAgB3ltDsOJ0UwI5+yUnyqYtoiwIDCGQsytzogwBhFMIQAACSxHgvF2qXXnJcnOXx5pIEIDAIwK8tx7hQvlwAjn7JSfK4a2kfAg8IpCzK3OiPCocZQhAAAJbEuC83bKtvxfFzd3vDPEAAQgMIcB7awhWnG5KIGe/5ETZtEWUBYEhBHJ2ZU6UIYBwCgEIQGApApy3S7UrL1lu7vJYEwkCEHhEgPfWI1woH04gZ7/kRDm8lZQPgUcEcnZlTpRHhaMMAQhAYEsCnLdbtvX3ori5+50hHiAAgSEEeG8NwYrTTQnk7JecKJu2iLIgMIRAzq7MiTIEEE4hAAEILEWA83apduUly81dHmsiQQACjwjw3nqEC+XDCeTsl5woh7eS8iHwiEDOrsyJ8qhwlCEAAQhsSYDzdsu2/l4UN3e/M8QDBCAwhADvrSFYcbopgZz9khNl0xZRFgSGEMjZlf/hLwhAAAIQyCIw5G2B08UJcHO3eANJHwL7Esj5GtmXH5WdRSBnv+REOatzVAuB3wjk7MqcKL+RwBoCEIDADgQ4b3fo4oAauLkbABWXEIDAGwR4b71BER+nEMjZLzlRTukZdULgDQI5uzInyhs88AEBCEBgbQKct2v3b1j23NwNQ4tjCEDgNwK8t37jh/VZBHL2S06UszpHtRD4jUDOrsyJ8hsJrCEAAQjsQIDzdocuDqiBm7sBUHEJAQi8QYD31hsU8XEKgZz9khPllJ5RJwTeIJCzK3OivMEDHxCAAATWJsB5u3b/hmXPzd0wtDiGAAR+I8B76zd+WJ9FIGe/5EQ5q3NUC4HfCOTsypwov5HAGgIQgMAOBDhvd+jigBq4uRsAFZcQgMAbBHhvvUERH6cQyNkvOVFO6Rl1QuANAjm7MifKGzzwAQEIQGBtApy3a/dvWPbc3A1Di2MIQOA3Ary3fuOH9VkEcvZLTpSzOke1EPiNQM6uzInyGwmsIQABCOxAgPN2hy4OqIGbuwFQcQkBCLxBgPfWGxTxcQqBnP2SE+WUnlEnBN4gkLMrc6K8wQMfEIAABNYmwHm7dv+GZc/N3TC0OIYABH4jwHvrN35Yn0UgZ7/kRDmrc1QLgd8I5OzKnCi/kcAaAhCAwA4EOG936OKAGri5GwAVlxCAwBsEeG+9QREfpxDI2S85UU7pGXVC4A0CObsyJ8obPPABAQhAYG0CnLdr929Y9tzcDUOLYwhA4DcCvLd+44f1WQRy9ktOlLM6R7UQ+I1Azq7MifIbCawhAAEI7ECA83aHLg6ogZu7AVBxCQEIvEGA99YbFPFxCoGc/fIf/oIABOYjkHDM5ZwwCYUQAgIQgMDkBDhvJ2/QV+lxc/cVeeJCAAI3BHhv3QBiGgKKQM5+yYmiymIIAQjcEMjZlTlRbkplGgIQgMABBDhvD2hyT4nc3PVQwwYCEEggMN+vNZARBKYmkLMrE6IQAgIQaCeQ842XE6W96hc1Ny7tRUq4ggAE0ghwKKWhXisQN3dr9YtsIXAQAd5bBzWbUn8mkLNfcqL8DAMHEDiIQM6uzInySdsWKq2YalH4CUmCQgACrxBgU7+CcT8n3Nzt11MqgsAmBHhvbdJIykghkLNfcqKkACMIBDYhkLMr+6J0W+lfb96kT5Uy2hEFmsFUJSxiCEBgXgLs6Hl782lm3Nx9ip/gEIBAnQDvrTobZiBgCeTsl5wotjaeIQCBOoGcXdkXpc/qqvUX2zqt6Wbayww0g6npCiYhCEDgjgA7+o7QofPc3B3aeMqGwPwEeG/N3yMynIdAzn7JiTIPVTKBwPwEcnZlX5Q+q4v5re3t7+UZBePQzBYbHehcU3/+/Al0pBDR0VFEaAZaR49N/o1TWo0xBCCwBIFgsy+RP0kOIsDN3SCwuIUABH4lwHvrV4LYn0QgZ7/kRDmpb9QKgV8J5OzKvih9VheR2NbMmsfrQk2TvW7HtETG3raYgFfzPos6EshnVZRofRl7zzJ1DW4VjD6PEIDAtATYztO25tvEuLn7lj/RIQCBKgHeW1U0TEDAEcjZLzlRXHEIIACBKoGcXdkexfwGmX6s1lCaCCIWp4zQPJYi/E9W1GwReh0vMXG9gpcYk+vxVu1WoegWIQQgMCEBtvOETZkhJW7uZugCOUAAAgUCvLcKUBBBoEIgZ7/kRKmUiBgCECgQyNmVfVH6rK4iA1t9G6jHho6eir0Zw9qvwhkn5rFoZXJoMfHJFD0bNe/ZKPAIAQisQoDtvEqnkvPk5i4ZOOEgAIFWAry3WkmhB4H//28tJWBgVyZAJgQEHhHI2ZV9UfqsrvK9rUhk8AqoorcWodcxEvNYvIDzOsWibtVuFYpuEUIAAhMSYDtP2JQZUuLmboYukAMEIFAgwHurAAURBCoEcvZLTpRKiYghAIECgZxd2Relz+oq0tuKRAYFHHVRzaoobxF6HSMxj9zc1ZvDDAQg8A8Bf3T8M8foYALc3B3cfEqHwNwEeG/N3R+ym4tAzn7JiTIXWbKBwNwEcnZlX5Q+q4u3t9USPS7q3ypIV71mt0Pjyj8aib/L8wq3eXonYsIAAhBYkUBwDqxYDjm/RYCbu7dI4gcCEHiZAO+tl4HibmsCOfslJ8rWjaI4CLxMIGdX5kS50Pj/NpxINDsRXgM9dV1mPVXwNWoPNf8iF2WRmDTkUSuIsFiF1vTpyWwwJToMIACBVQiwo1fpVHKe3NwlAyccBCDQSoD3Visp9CDAf+eONQCBUwnkvCtzopzaw6a6gxYEU02uUYIABGYiwI6eqRsT5cLN3UTNIBUIQEAT4L2laTCGQEwgZ7/kRPGVfhXXZ/KtBA7f8p8zes6qyIkyJ+F5sip2oSicJ2cygQAEnhJgUz8ldog+N3eHNJoyIbAega/eW1/FfdShJZJ8VBHKPxLIWRI5UTyKr+L6TEZIbv+UnARN41AMVBRKbqMH7ZR+yUT+wOO3xT4qISfVnCiPCkcZAhCAwJYEOG+3bOvvRXFz9ztDPEAAAkMIfPXe+iruI4hpSRYDFYWP8v9FmQ/4Ir2cpvRF6bMqlvlIqG9hgmVzm96twqOsisoJIYpxi8IgmWCq6OpdYWb0zFg/UspJNSfKjygwhwAEILABAc7bDZo4ogRu7kZQxScEIPACgb73Vp/Vj+nKBYHxU5MbtWkfA5jBVEI5mdEzY/2CLifPvih9Vr/QMLZXArU0anJxcqsgmt2DhBDtuQXJBFPt/rs1M6NnxuoGchnmpJoT5UcUmEMAAhDYgADn7QZNHFECN3cjqOITAhB4gUDfe6vP6vd0i7/RUxT+HivNQwAzmEpILzN6Zqxf0OXk2Relz6rxf7ko9+NXFB9LS/TY+Dd+rl5ooR77Tj2aNWlcmfiIEqXFuSlHbGUgTkRTpszApycKwZToxAOdRqzpZ6/o4qGYTDwrtV9qPoRIis6v2dsQQRSJ2+JEkokHQaqx4aPZnCiPUkIZAhCAwJYEOG+3bOvvRXFz9ztDPEAAAkMI9L23+qyCDy1dm/nW0rGucSwJoojnYjgRipoOZGaDKJemOBFN8WAGxSjixCg/fdRpdNhK8pcf70H816q4Vbh81sxvExBzCaSTlLRlNgikDWvjH81rbo28L0qflQ5d82DkQrVma/QvtaKw5kHLZWw83D4ahWsttSTjDcXKTAWPRUq1WkQuA+NZ5I0DWfCN+lrNZ26SiR8158ut0Tex9KOMjYl5LLo1OrdVSKzGgfHfaPVULSfK06zQhwAEILAfAc7b/Xr6SkXc3L2CEScQgMD7BPreW31WOvuaByM3X1/XrNapSSSWVvaflJea0anZarkxCR5NCeIkDi1qxrPIGwdX9D4nPnPjJ370tI2+LqE2ZeTm8fJghP7RS3ToR2Pj6pFtu3J7FOmvH7SHE81a3JpcDE2vi/pFYc2DltfG2qEei74XXhIvF5NrUFPwci3R49iPwWWi39oW9V8U+kJ0wvGs1tQpFa0eKdc8SBSjYB5rscT8duAd3pp0KORE6UgMEwhAAAKbEeC83ayhb+ImcuwAABFfSURBVJXDzd1bJPEDAQi8TKD9veWvBkTSkVMtbk1+hZDZa2Aea99momacFB91LcZQprxcS/S4O0QQS6ZGD3whmnA8qzV1nkWrR8o1DxLFKJjHWiwxjwfeW6zfN9sXpc9KZxh4kM1+DbRVEal35SW3TrxCLY1b55erYvImSrEcMTfKOq4e1/TF3CvL1K2t0Xz9sZibCGWg42qhHotOUVhDbbosj+LtGohcBlrBR/QSrX87/tH81v+lkBOlMRnUIAABCGxMgPN24+b+Uho3d7/QwxYCEBhIoO+91Welywg8yGfYNShaXebixA+KVpdQlIuPgaFMGQ/m+zOeFSe30RsVjMMXH30hutJ4VmvqlIpWgbJZDH5JXLZGLY5Yy0Fb1ca/2NZ8enlflD4rHb3dg9E0/Gtt0rH82Pg0Cn5WS/TYGOrHS+1Wuabg5Vqix1dQL5FkgqlbW3EyaFDMTYQy0NG1UI9FpygMNr4Y1gbeoZGYx1qsmn8v9w69zu+SnCi/54kHCEAAAqsT4LxdvYOD8ufmbhBY3EIAAr8S6Htv9VnpXNs9aM3bsVaQcF4oEhmIsh7UZr1cS/T48uYlEiWYurUVJ4MGxdxEKAMdXQv1WHSKwtpHdU1ZvBUNjZV5LJpoh/HYe4v1+2b7ovRZ6QzbPRhN81iE7HV06KKJVvDmWqLH2sqMRU0GRuF6rM16uZboceznttgWhWLmrwh9ITqfeFZr6mSKVk+VY4cmhHmsxdI+47F3GOv3zeZE6csNKwhAAAI7EeC83ambL9bCzd2LMHEFAQi8SaDvvdVnpfNu96A19bjorajghSKRgfYm49qsl2uJHl+uvOQ2RLuCaL4+KKYtQhnouFqox6JTFNY+qmvK4q1oaKzMY9FEO4zH3lus3zfbF6XPSmdY8+DlWqLHgTejZh59X4yCf/QSHd07NBJjrm1rU15uJPqx+IuHLVFMntqkfSy/BdluIpo+c12XT8/MtijoWDLWg6c+b3P2WelwLWOfUovVU52cKE+zQh8CEIDAfgQ4b/fr6SsVcXP3CkacQAAC7xPoe2/1Wensax68XEv0uObN6JhHsfJfejIlg8BWdK6B0dSPt4G0cuzWzLY8XtGDEIETn7nxEz/6T2Wjr0PXprzcSPyjl+hAPiszGz8a57Fy92xOFElPFokeyOxFTE/p9ESu9bWJlouy9tCuYMyvx5q5D6H1javLiRbKWPy3SEzhPgfxFq/D2FA7qY19tjVNI78MdSHFZMR/cfaRubgqZlKb9SEkcz0lPgM/ohMPapXGVk9nc6I8zQp9CEAAAvsR4Lzdr6evVMTN3SsYcQIBCLxPIPm9JZ9PeqCr0vJrLLMyJZJr4OUiCaozzrVPbS5jUWiRmE/HII1LU5ybQWxolIuPPtuimhdehrqQYjLivzj7yFxcmWRELikFChLx0hFbMfESmWoZ1MpssW3XyYnSng+afQTiPgazwVRfJlj9TiCnKTlRfqexq4c9+C9RxRJJ7rrOV6xrxIIZ4XNFtuRsCHBzZ4DwCAEIzEKA91ZCJ2LIwWwwlZA2ITyBnI7kRPHVIXmRQO2iWYcoNroo1FaMPyGQ05ecKOMAtiz7cdEvz7cMgyRvbUcn/4r/JaoYmuRQ56/0CCfm37PeAhnR0xE+bwtBYX4C3NzN3yMyhMChBHhvjW588JEgoYtdKArFhMEnBHKakhPlE4B7B702e8uW35vDltXl7Mq+KH1Wg9rUkUyHSS35RleNarUoRfkIn8VACFtQt+iMI6nfBTKWcCIxA1FoHPxeY+zBpHc9NubWqBYn0OikW+3b6N1pYziaADd3ownjHwIQ6CTAe6sTXGimf9wJFZlcjEDOfsmJshh60oXApwRydmVflD6rQTg7kukwqSXf6KpRrRalKB/hsxgIYQvqFp0EkrU0vNxLbtPrMDE+Yw9+1kuMw6ePrzt8lMC30R+linImAW7uMmkTCwIQeECA99YDWKgeTyBnv+REOb6ZAIDAAwI5u7IvSreVMTS/UyOP8b+LMrPG54XY6Ah3LddjUYjNjdr15++8UP5c3hXCqwWhxZvR0WXqKT0WWxnUZi+5z1MMr4Ex1znc2oor40Tk7QPx0G4immJrkr8UrtmgFm2ux+JfBkX/MtsyEP8tyjWdWhpeXpToHLSCyM3Ap6EV9KyW67HRCR6vqcD2SvhS0MreZ81JsBK0k+6xRtrtBMP9CHBzt19PqQgCmxDgvbVJIykjhUDOfsmJkgKMIBDYhEDOruyL0md1fRWb9hhX+qv70vQK2oPX91GMB6+gHfpZby76tSkjLyZZrK7muejBRBFbGRgF/+glYlvkYPRFuSYvOhGr9sFVfhClxVXN3LP1ml5SjNioVrS9WPlkaso1eS0HkcvAeDDyYiZGx3hoaXfsQc/qsQQyQv8oEp2/CAWyOPQ5y5S2EuGPgxE+f0wJ8xkIcHM3QxfIAQIQKBDgvVWAgggCFQI5+yUnSqVExBCAQIFAzq5sj3J9CRf/Xsi+IvLhjMQ8Xm5EKAPtviiMFQKT4lRRWPvmLyoXhTUPgTyuS8/6scnBPJqgftYoaP9FZa0g43ZNMXlrUAvt5S2SYlbesKg2VFjLQe/cYgI1Q63cohPrN3ooqt0KtULLWFLVyrFQZvsGxUB9rrDaiQA3dzt1k1ogsBUB3ltbtZNiBhPI2S85UQajwj0EtiKQsyv7ovRZFa9+jCvzeHVUhDLQnfZCfUlxjbV+MQ1R8LZFDyYxMa8590kGHmRKJ6NDiIIXaok291X4lLREj7XP4jhQjnMoehskrCXp5S2SYpLesKg2VFjLQeQy8GmYZhUVvFBLjAcfy0u0uYyLardCrdAy7ggnJn0DnVWfB6y2JMDN3ZZtpSgI7ECA99YOXaSGLAI5+yUnShYz4kBgBwI5u7IvSp9V8VbLuDKPVyNFKAPdYCM0jy1BA296yo99rGK4mjCQt8QqRhdDP2sk5tEk42fFsx/UlL3cS7y3QZJaaC9vkRST9IZFtaHCWg5e7iUmMa/gJdrEz7ZItIdrrK1qY7GqKbTIi05iocz2DXRWfR6w2pIAN3dbtpWiILADAd5bO3SRGrII5OyXnChZzIgDgR0I5OzKvih9VuZu6GqScWUejU48a5RlEXgrLwmUZcoPin7ahUUgPsol8W69RNv6WSMxjyYZP6udm3FN2cu9xLga91gL7eUtkmKe3rCoNlRYy8HLvcQk5hW8RJv42RaJ9mAWoXn03gIFrVwbS2itEAtltm9QDNTnCqudCHBzt1M3qQUCWxHgvbVVOylmMIGc/ZITZTAq3ENgKwI5u7IvSp+V+cy+Ho2r2z/U2aFvTIpp6KVzqx8rF/17n5eTdrnXNJLbx1ihmLau1CvIrPFck/vmimY8kD+DGavFs41JFss0tubxilsUximZ2W/L9PnfSoyCfzQSz9YomMen+to8GOspH0KaYtRE/stghM9f8sF2EgLc3E3SCNKAAAQsAd5blgjPEKgTyNkvOVHqVTIDAQhYAjm7MieKrk2uJ67Q5jZHC82UOIk9XJ/ioiOPYn4NRKFIQM8WFcRbbVZ78DnoWRmLT9GXqcYo2oNxIo+mfDGRWCIRk+KUn73UtLnRkUejc/tYS+DWUCKKB5OkyMWVl1xTIg96IU76BhKiw1xs9UD8aKEei0IRlJ6Vcc38UjCz16PYFnX0rDaXsVYweeopo69Dy9gM5LHo55ot6mj9R+Pa4nnkBOX9CHBzt19PqQgCmxDgvbVJIykjhUDOfsmJkgKMIBDYhEDOrsyJ0t6S2fK5zXy5hG8rQqGPACuhj9tRViySo9rdXiw3d+2s0IQABFIJ8N5KxU2wxQnk7JecKIu3gvQhkEogZ1fmRGkHN1s+LZmvmHNLXei0E2ANtLM6WZN1cnL3g9q5uQvgMAUBCHxJgPfWl/SJvRqBnP2SE2U19uQLgS8J5OzKnCiNHOWPpzXqowYBCEBgIQJTnbcLcds+VW7utm8xBUJgVQK8t1btHHl/QSBnv+RE+YIfMSGwKoGcXZkTZdUekDcEIACB9whw3r7HcitP3Nxt1U6KgcBOBHhv7dRNahlNIGe/5EQZzQr/ENiJQM6uzImyU1+oBQIQgEAfAc7bPm7bW3Fzt32LKRACqxLgvbVq58j7CwI5+yUnyhf8iAmBVQnk7MqcKKv2gLwhAAEIvEeA8/Y9llt54uZuq3ZSDAR2IsB7a6duUstoAjn7JSfKaFb4h8BOBHJ2ZU6UnfpCLRCAAAT6CHDe9nHb3oqbu+1bTIEQWJUA761VO0feXxDI2S85Ub7gR0wIrEogZ1fmRFm1B+QNAQhA4D0CnLfvsdzKEzd3W7WTYiCwEwHeWzt1k1pGE8jZLzlRRrPCPwR2IpCzK3Oi7NQXaoEABCDQR4Dzto/b9lbc3G3fYgqEwKoEeG+t2jny/oJAzn7JifIFP2JCYFUCObsyJ8qqPSBvCEAAAu8R4Lx9j+VWnri526qdFAOBnQjw3tqpm9QymkDOfsmJMpoV/iGwE4GcXZkTZae+UAsEIACBPgKct33ctrfi5m77FlMgBFYlwHtr1c6R9xcEcvZLTpQv+BETAqsSyNmVOVFW7QF5QwACEHiPAOfteyy38sTN3VbtpBgI7ESA99ZO3aSW0QRy9ktOlNGs8A+BnQjk7MqcKDv1hVogAAEI9BHgvO3jtr0VN3fbt5gCIbAqAd5bq3aOvL8gkLNfcqJ8wY+YEFiVQM6uzImyag/IGwIQgMB7BDhv32O5lSdu7rZqJ8VAYCcCvLd26ia1jCaQs19yooxmhX8I7EQgZ1f+Xzt2cMNACAMBMP1XnR4QLOdl8s8Zz8ogOVOlKRe9ECBAYE3AfbvmVv8vm7v6iDVIYKqAd2tqcs59QyAzL5kqN/zUJDBVIDOVmSpTM3BuAgQI7BNw3+6zrPqSzV1VnJoh0CTg3WpKUy+nBTLzkqly2sr3CTQJZKYyU6UpF70QIEBgTcB9u+ZW/y+bu/qINUhgqoB3a2pyzn1DIDMvmSo3/NQkMFUgM5WZKlMzcG4CBAjsE3Df7rOs+pLNXVWcmiHQJODdakpTL6cFMvOSqXLayvcJNAlkpjJTpSkXvRAgQGBNwH275lb/L5u7+og1SGCqgHdranLOfUMgMy+ZKjf81CQwVSAzlZkqUzNwbgIECOwTcN/us6z6ks1dVZyaIdAk4N1qSlMvpwUy85KpctrK9wk0CWSmMlOlKRe9ECBAYE3AfbvmVv8vm7v6iDVIYKqAd2tqcs59QyAzL5kqN/zUJDBVIDOVmSpTM3BuAgQI7BNw3+6zrPqSzV1VnJoh0CTg3WpKUy+nBTLzkqly2sr3CTQJZKYyU6UpF70QIEBgTcB9u+ZW/y+bu/qINUhgqoB3a2pyzn1DIDMvmSo3/NQkMFUgM5WZKlMzcG4CBAjsE3Df7rOs+pLNXVWcmiHQJODdakpTL6cFMvOSqXLayvcJNAlkpjJTpSkXvRAgQGBNwH275lb/L5u7+og1SGCqgHdranLOfUMgMy8/PwIEvicQuHK+17QTESBAoFYgcKsrMU7A5m5cZA5M4BWB2tdYYwTOCLxyNeiTAAECBAgQIECAwEsCNncvpa1XAgQIECBAgAABAgQIECBAgACBOQI2d3OyclICBAgQIECAAAECBAgQIECAAIGXBGzuXkpbrwQIECBAgAABAgQIECBAgAABAnMEbO7mZOWkBAgQIECAAAECBAgQIECAAAECLwnY3L2Utl4JECBAgAABAgQIECBAgAABAgTmCNjczcnKSQkQIECAAAECBAgQIECAAAECBF4SsLl7KW29EiBAgAABAgQIECBAgAABAgQIzBGwuZuTlZMSIECAAAECBAgQIECAAAECBAi8JGBz91LaeiVAgAABAgQIECBAgAABAgQIEJgjYHM3JysnJUCAAAECBAgQIECAAAECBAgQeEngD06oz4Wg9qMOAAAAAElFTkSuQmCC;" vertex="1" parent="1">
          <mxGeometry x="33" y="160" width="1103.92" height="570" as="geometry" />
        </mxCell>
        <mxCell id="Yhj1wLFjmlfYXxHoX_J6-1" value="&lt;h1 style=&quot;margin-top: 0px;&quot;&gt;Patró Estats:&lt;/h1&gt;&lt;div&gt;&lt;div&gt;Donat que hi ha molt de codi repetit, es crea una classe abstracta&lt;span style=&quot;background-color: transparent; color: light-dark(rgb(0, 0, 0), rgb(255, 255, 255));&quot;&gt;&amp;nbsp;per evitar errors humans i facilitar el manteniment.&lt;/span&gt;&lt;/div&gt;&lt;/div&gt;&lt;div&gt;&lt;span style=&quot;background-color: transparent; color: light-dark(rgb(0, 0, 0), rgb(255, 255, 255));&quot;&gt;En aquest exemple, ens podríem estalviar la interfície del patró estat.&lt;/span&gt;&lt;/div&gt;&lt;div&gt;És important que alguns estats siguin instàncies úniques (veure 1 al diagrama).&lt;/div&gt;" style="text;html=1;align=left;verticalAlign=middle;whiteSpace=wrap;rounded=0;" vertex="1" parent="1">
          <mxGeometry x="40" y="30" width="690" height="110" as="geometry" />
        </mxCell>
        <mxCell id="Yhj1wLFjmlfYXxHoX_J6-2" value="1" style="rounded=0;whiteSpace=wrap;html=1;fillColor=none;strokeColor=none;" vertex="1" parent="1">
          <mxGeometry x="300" y="510" width="50" height="40" as="geometry" />
        </mxCell>
        <mxCell id="Yhj1wLFjmlfYXxHoX_J6-4" value="1" style="rounded=0;whiteSpace=wrap;html=1;fillColor=none;strokeColor=none;" vertex="1" parent="1">
          <mxGeometry x="420" y="620" width="50" height="40" as="geometry" />
        </mxCell>
        <mxCell id="Yhj1wLFjmlfYXxHoX_J6-5" value="1" style="rounded=0;whiteSpace=wrap;html=1;fillColor=none;strokeColor=none;" vertex="1" parent="1">
          <mxGeometry x="640" y="620" width="50" height="40" as="geometry" />
        </mxCell>
        <mxCell id="Yhj1wLFjmlfYXxHoX_J6-6" value="1" style="rounded=0;whiteSpace=wrap;html=1;fillColor=none;strokeColor=none;" vertex="1" parent="1">
          <mxGeometry x="1080" y="480" width="50" height="40" as="geometry" />
        </mxCell>
      </root>
    </mxGraphModel>
  </diagram>
</mxfile>
